<svg width="354" height="176" viewBox="0 0 354 176" fill="none" xmlns="http://www.w3.org/2000/svg">
<path d="M119.319 7.72099C120.504 7.72099 121.551 7.89694 122.458 8.24883C123.366 8.60073 124.079 9.12857 124.598 9.83236C125.135 10.5361 125.403 11.4251 125.403 12.4994C125.403 13.7217 124.959 14.8145 124.07 15.7775C123.199 16.7221 121.838 17.4074 119.986 17.8333L119.847 17.5C121.773 17.6667 123.199 18.1667 124.125 19.0001C125.051 19.8336 125.514 20.9171 125.514 22.2505C125.514 23.2136 125.246 24.0841 124.709 24.862C124.19 25.6399 123.403 26.2603 122.347 26.7233C121.31 27.1678 119.995 27.3901 118.402 27.3901C116.976 27.3901 115.846 27.2789 115.013 27.0567C114.198 26.8344 113.624 26.5381 113.291 26.1677C112.957 25.7788 112.791 25.3528 112.791 24.8898C112.791 24.4267 112.92 24.0471 113.179 23.7507C113.457 23.4359 113.855 23.2785 114.374 23.2785C114.967 23.2785 115.578 23.3618 116.208 23.5285C116.837 23.6952 117.513 23.7785 118.236 23.7785C119.162 23.7785 119.875 23.6118 120.375 23.2785C120.875 22.9266 121.125 22.4913 121.125 21.9727C121.125 21.6023 121.032 21.2875 120.847 21.0282C120.662 20.7504 120.319 20.5096 119.819 20.3059C119.319 20.0836 118.588 19.8706 117.624 19.6669C116.772 19.5002 116.124 19.3057 115.68 19.0835C115.254 18.8427 115.041 18.4816 115.041 18C115.041 17.4629 115.282 17.0369 115.763 16.7221C116.245 16.4072 116.921 16.1016 117.791 15.8053C118.995 15.3793 119.856 14.9719 120.375 14.5829C120.912 14.194 121.18 13.7217 121.18 13.1661C121.18 12.6105 120.949 12.1938 120.486 11.9159C120.041 11.6381 119.393 11.4992 118.541 11.4992C117.856 11.4992 117.189 11.5826 116.541 11.7493C115.893 11.9159 115.198 11.9993 114.457 11.9993C113.957 11.9993 113.578 11.8882 113.318 11.6659C113.059 11.4437 112.929 11.1288 112.929 10.7214C112.929 10.1843 113.198 9.69345 113.735 9.24895C114.272 8.78593 115.022 8.41552 115.985 8.13771C116.948 7.85989 118.06 7.72099 119.319 7.72099ZM129.854 21.1115C130.595 21.1115 131.188 21.3708 131.632 21.8894C132.095 22.3895 132.327 23.1303 132.327 24.1119C132.327 25.0194 132.105 25.788 131.66 26.4177C131.234 27.0474 130.54 27.3623 129.577 27.3623C128.799 27.3623 128.225 27.103 127.854 26.5844C127.502 26.0658 127.326 25.3343 127.326 24.3897C127.326 23.8341 127.4 23.3062 127.549 22.8062C127.697 22.3061 127.956 21.8987 128.326 21.5838C128.697 21.2689 129.206 21.1115 129.854 21.1115ZM149.407 27.2234C148.259 27.2234 147.305 27.0104 146.545 26.5844C145.805 26.1399 145.249 25.4639 144.878 24.5564C144.619 23.9267 144.425 23.1673 144.295 22.2783C144.184 21.3708 144.128 20.3336 144.128 19.1668C144.128 17.1666 144.193 15.5182 144.323 14.2218C144.452 12.9068 144.638 11.8511 144.878 11.0547C145.138 10.2398 145.425 9.58233 145.74 9.08227C146.24 8.32291 147.036 7.71173 148.129 7.24871C149.222 6.78569 150.768 6.55418 152.768 6.55418C154.102 6.55418 155.167 6.75791 155.963 7.16537C156.778 7.5543 157.361 8.07288 157.713 8.72111C158.084 9.36934 158.269 10.0916 158.269 10.888C158.269 12.1475 157.899 13.1846 157.158 13.9995C156.417 14.8145 155.445 15.4627 154.241 15.9442V16.0553C155.556 16.2035 156.574 16.6295 157.297 17.3333C158.037 18.0185 158.408 19.0001 158.408 20.2781C158.408 21.2967 158.149 22.232 157.63 23.084C157.13 23.9174 156.445 24.649 155.574 25.2787C154.722 25.8899 153.759 26.3714 152.685 26.7233C151.611 27.0567 150.518 27.2234 149.407 27.2234ZM150.268 23.8896C151.157 23.8896 151.944 23.7415 152.629 23.4451C153.333 23.1488 153.88 22.7506 154.269 22.2505C154.676 21.732 154.88 21.1486 154.88 20.5003C154.88 19.7965 154.537 19.2131 153.852 18.7501C153.185 18.2686 152.139 18.0278 150.713 18.0278C149.749 18.0278 148.981 18.2593 148.407 18.7223C147.851 19.1668 147.573 19.9354 147.573 21.0282C147.573 22.0653 147.795 22.8062 148.24 23.2507C148.684 23.6766 149.36 23.8896 150.268 23.8896ZM150.379 15.083C151.639 15.083 152.685 14.8052 153.518 14.2496C154.37 13.6754 154.796 12.9346 154.796 12.0271C154.796 11.3603 154.528 10.8232 153.991 10.4158C153.454 10.0083 152.666 9.80458 151.629 9.80458C150.5 9.80458 149.573 10.0268 148.851 10.4713C148.129 10.9158 147.768 11.6752 147.768 12.7494C147.768 13.6199 147.999 14.231 148.462 14.5829C148.944 14.9163 149.583 15.083 150.379 15.083ZM173.99 26.9178C173.49 26.9178 173.101 26.7511 172.823 26.4177C172.564 26.0658 172.388 25.6213 172.295 25.0842C172.203 24.5286 172.156 23.9452 172.156 23.334L172.295 23.2229C172.11 24.0193 171.749 24.7046 171.212 25.2787C170.675 25.8528 170.054 26.2973 169.35 26.6122C168.647 26.9085 167.943 27.0567 167.239 27.0567C166.295 27.0567 165.433 26.8344 164.655 26.3899C163.878 25.9454 163.276 25.2602 162.85 24.3341C162.424 23.3525 162.09 22.1209 161.85 20.6392C161.609 19.1391 161.488 17.6018 161.488 16.0276C161.488 15.1756 161.525 14.3885 161.599 13.6662C161.674 12.9439 161.794 12.3512 161.961 11.8882C162.109 11.4066 162.331 11.0547 162.627 10.8325C162.924 10.5917 163.303 10.4713 163.766 10.4713C164.304 10.4713 164.72 10.6843 165.017 11.1103C165.331 11.5177 165.526 12.0919 165.6 12.8327C165.674 13.4439 165.72 14.2033 165.739 15.1108C165.776 15.9998 165.804 16.898 165.822 17.8056C165.859 18.6946 165.906 19.4446 165.961 20.0558C166.072 21.1671 166.359 21.9913 166.822 22.5284C167.285 23.0469 167.85 23.3062 168.517 23.3062C169.499 23.3062 170.249 22.9358 170.767 22.195C171.286 21.4542 171.545 20.417 171.545 19.0835C171.545 18.4167 171.508 17.6667 171.434 16.8332C171.36 15.9813 171.277 15.1571 171.184 14.3607C171.11 13.5643 171.073 12.9068 171.073 12.3882C171.073 11.5177 171.221 10.8973 171.517 10.5269C171.814 10.138 172.221 9.94348 172.74 9.94348C173.184 9.94348 173.555 10.0639 173.851 10.3046C174.166 10.5454 174.416 10.8788 174.601 11.3048C174.86 11.8604 175.083 12.6197 175.268 13.5828C175.453 14.5459 175.601 15.6386 175.712 16.861C175.823 18.0834 175.879 19.3706 175.879 20.7226C175.879 22.7969 175.74 24.3527 175.462 25.3898C175.184 26.4085 174.694 26.9178 173.99 26.9178ZM182.009 32.6129C181.009 32.6129 180.509 32.0758 180.509 31.0016C180.509 30.409 180.712 29.7052 181.12 28.8902C181.527 28.0753 182.12 27.1956 182.898 26.251C183.694 25.3065 184.657 24.3434 185.787 23.3618L185.759 23.584C183.296 21.1393 181.425 18.9909 180.148 17.1388C178.888 15.2867 178.258 13.6847 178.258 12.3327C178.258 11.6659 178.425 11.1473 178.758 10.7769C179.11 10.4065 179.573 10.2213 180.148 10.2213C181.37 10.2213 182.583 11.1103 183.787 12.8883C184.991 14.6663 186.13 17.3703 187.204 21.0004H187.315C188.019 17.1851 188.769 14.3885 189.565 12.6105C190.362 10.814 191.306 9.9157 192.399 9.9157C192.918 9.9157 193.297 10.1009 193.538 10.4713C193.797 10.8232 193.927 11.3233 193.927 11.9715C193.927 12.5086 193.807 13.2217 193.566 14.1107C193.344 14.9811 193.019 15.972 192.594 17.0832C192.186 18.176 191.705 19.315 191.149 20.5003C190.612 21.6857 190.019 22.8525 189.371 24.0008C187.723 26.9826 186.315 29.1588 185.148 30.5293C183.981 31.9184 182.935 32.6129 182.009 32.6129ZM208.914 9.69345C210.562 9.69345 211.747 9.93422 212.47 10.4158C213.192 10.8973 213.553 11.5178 213.553 12.2771C213.553 12.7216 213.396 13.092 213.081 13.3883C212.785 13.6662 212.359 13.8051 211.803 13.8051C211.229 13.8051 210.627 13.7217 209.997 13.555C209.386 13.3883 208.673 13.305 207.858 13.305C206.913 13.305 206.21 13.4902 205.747 13.8606C205.284 14.231 205.052 14.7033 205.052 15.2775C205.052 15.8146 205.256 16.2406 205.663 16.5554C206.089 16.8517 206.895 17.074 208.08 17.2222C209.395 17.3703 210.479 17.6111 211.331 17.9445C212.201 18.2593 212.849 18.7409 213.275 19.3891C213.701 20.0188 213.914 20.8893 213.914 22.0005C213.914 23.76 213.294 25.0657 212.053 25.9177C210.812 26.7696 209.099 27.1956 206.913 27.1956C205.524 27.1956 204.422 27.0845 203.607 26.8622C202.793 26.64 202.2 26.3251 201.829 25.9177C201.478 25.5102 201.302 25.0287 201.302 24.473C201.302 23.9915 201.459 23.6211 201.774 23.3618C202.107 23.084 202.496 22.9451 202.941 22.9451C203.367 22.9451 203.82 23.0006 204.302 23.1118C204.784 23.2044 205.293 23.3062 205.83 23.4174C206.367 23.5285 206.923 23.584 207.497 23.584C209.349 23.584 210.275 23.0099 210.275 21.8616C210.275 21.4727 210.182 21.1578 209.997 20.917C209.812 20.6763 209.479 20.4818 208.997 20.3336C208.515 20.167 207.812 20.0373 206.886 19.9447C205.774 19.8336 204.811 19.6484 203.996 19.3891C203.181 19.1113 202.552 18.6668 202.107 18.0556C201.663 17.4259 201.441 16.5647 201.441 15.4719C201.441 13.7495 202.089 12.3604 203.385 11.3048C204.682 10.2306 206.524 9.69345 208.914 9.69345ZM223.476 27.1678C221.994 27.1678 220.698 26.8437 219.587 26.1955C218.494 25.5287 217.642 24.5842 217.031 23.3618C216.438 22.1394 216.142 20.6855 216.142 19.0001C216.142 17.2407 216.447 15.7034 217.059 14.3885C217.67 13.0735 218.531 12.0456 219.642 11.3048C220.772 10.5639 222.078 10.1935 223.559 10.1935C225.152 10.1935 226.532 10.5547 227.699 11.277C228.866 11.9808 229.773 12.9716 230.421 14.2496C231.07 15.5275 231.394 17.0184 231.394 18.7223C231.394 20.4633 231.07 21.9635 230.421 23.2229C229.773 24.4823 228.856 25.4546 227.671 26.1399C226.486 26.8252 225.087 27.1678 223.476 27.1678ZM223.865 23.4174C225.013 23.4174 225.921 22.9636 226.587 22.0561C227.273 21.13 227.615 19.9077 227.615 18.389C227.615 16.8517 227.273 15.6294 226.587 14.7218C225.921 13.8143 225.013 13.3606 223.865 13.3606C222.68 13.3606 221.744 13.8143 221.059 14.7218C220.374 15.6294 220.031 16.8517 220.031 18.389C220.031 19.9077 220.374 21.13 221.059 22.0561C221.744 22.9636 222.68 23.4174 223.865 23.4174ZM237.197 27.14C236.623 27.14 236.169 27.0104 235.836 26.7511C235.503 26.4733 235.234 26.0195 235.03 25.3898C234.753 24.4638 234.54 23.297 234.391 21.8894C234.262 20.4633 234.197 18.7131 234.197 16.6387C234.197 15.3608 234.243 14.0829 234.336 12.8049C234.447 11.5085 234.586 10.3324 234.753 9.27673C234.919 8.20253 235.095 7.36909 235.28 6.77643C235.484 6.14672 235.725 5.71148 236.003 5.47071C236.281 5.22994 236.595 5.10956 236.947 5.10956C237.318 5.10956 237.614 5.2392 237.836 5.49849C238.059 5.73926 238.234 6.1745 238.364 6.80421C238.475 7.4154 238.559 8.16549 238.614 9.05448C238.688 9.94348 238.725 10.8973 238.725 11.9159C238.725 13.305 238.66 14.7681 238.531 16.3054C238.401 17.8426 238.225 19.352 238.003 20.8337C237.799 22.3154 237.549 23.6766 237.253 24.9175L236.475 24.5286C236.957 23.9359 237.503 23.4729 238.114 23.1395C238.744 22.8062 239.318 22.6395 239.837 22.6395C240.262 22.6395 240.587 22.7599 240.809 23.0006C241.05 23.2229 241.17 23.5748 241.17 24.0563C241.17 24.5379 240.957 25.0194 240.531 25.5009C240.124 25.9825 239.614 26.3807 239.003 26.6955C238.392 26.9919 237.79 27.14 237.197 27.14Z" fill="white"/>
<path d="M26.624 52.1969L23.0698 64.4604H21.2752L18.4248 54.5898L15.4689 64.4604L13.6918 64.478L10.2609 52.1969H11.9676L14.642 62.5954L17.5979 52.1969H19.3925L22.2077 62.5602L24.8997 52.1969H26.624ZM29.2031 53.2526C28.8981 53.2526 28.6401 53.147 28.429 52.9359C28.2178 52.7248 28.1122 52.4667 28.1122 52.1617C28.1122 51.8567 28.2178 51.5987 28.429 51.3876C28.6401 51.1764 28.8981 51.0708 29.2031 51.0708C29.4964 51.0708 29.7427 51.1764 29.9421 51.3876C30.1532 51.5987 30.2588 51.8567 30.2588 52.1617C30.2588 52.4667 30.1532 52.7248 29.9421 52.9359C29.7427 53.147 29.4964 53.2526 29.2031 53.2526ZM29.9773 54.8185V64.4604H28.3762V54.8185H29.9773ZM34.6591 56.1381V61.8212C34.6591 62.2904 34.7588 62.6247 34.9583 62.8241C35.1577 63.0118 35.5037 63.1057 35.9963 63.1057H37.1752V64.4604H35.7324C34.841 64.4604 34.1724 64.2552 33.7266 63.8446C33.2809 63.4341 33.058 62.7596 33.058 61.8212V56.1381H31.8088V54.8185H33.058V52.3905H34.6591V54.8185H37.1752V56.1381H34.6591ZM43.9009 54.6426C44.6282 54.6426 45.285 54.8009 45.8715 55.1176C46.458 55.4226 46.9155 55.8859 47.2439 56.5076C47.5841 57.1293 47.7542 57.8859 47.7542 58.7773V64.4604H46.1706V59.0061C46.1706 58.0442 45.9302 57.3111 45.4493 56.8067C44.9683 56.2906 44.3115 56.0326 43.4786 56.0326C42.6341 56.0326 41.9596 56.2965 41.4553 56.8243C40.9626 57.3522 40.7163 58.1205 40.7163 59.1292V64.4604H39.1151V51.4403H40.7163V56.1909C41.033 55.6983 41.467 55.317 42.0183 55.0473C42.5813 54.7775 43.2089 54.6426 43.9009 54.6426ZM51.1966 53.2526C50.8916 53.2526 50.6335 53.147 50.4224 52.9359C50.2113 52.7248 50.1057 52.4667 50.1057 52.1617C50.1057 51.8567 50.2113 51.5987 50.4224 51.3876C50.6335 51.1764 50.8916 51.0708 51.1966 51.0708C51.4898 51.0708 51.7361 51.1764 51.9355 51.3876C52.1467 51.5987 52.2522 51.8567 52.2522 52.1617C52.2522 52.4667 52.1467 52.7248 51.9355 52.9359C51.7361 53.147 51.4898 53.2526 51.1966 53.2526ZM51.9707 54.8185V64.4604H50.3696V54.8185H51.9707ZM59.3974 54.6426C60.5703 54.6426 61.5205 55.0003 62.2477 55.7159C62.975 56.4196 63.3386 57.4401 63.3386 58.7773V64.4604H61.7551V59.0061C61.7551 58.0442 61.5146 57.3111 61.0337 56.8067C60.5527 56.2906 59.8959 56.0326 59.0631 56.0326C58.2185 56.0326 57.544 56.2965 57.0397 56.8243C56.547 57.3522 56.3007 58.1205 56.3007 59.1292V64.4604H54.6996V54.8185H56.3007V56.1909C56.6174 55.6983 57.0455 55.317 57.5851 55.0473C58.1364 54.7775 58.7405 54.6426 59.3974 54.6426ZM78.844 55.7862C78.844 56.8067 78.4921 57.6571 77.7883 58.3375C77.0962 59.0061 76.0347 59.3404 74.6036 59.3404H72.2459V64.4604H70.6448V52.1969H74.6036C75.9877 52.1969 77.0376 52.5312 77.7531 53.1998C78.4803 53.8684 78.844 54.7306 78.844 55.7862ZM74.6036 58.0208C75.4951 58.0208 76.152 57.8272 76.5742 57.4401C76.9965 57.0531 77.2076 56.5018 77.2076 55.7862C77.2076 54.2731 76.3396 53.5165 74.6036 53.5165H72.2459V58.0208H74.6036ZM85.6197 54.6426C86.347 54.6426 87.0038 54.8009 87.5903 55.1176C88.1768 55.4226 88.6343 55.8859 88.9627 56.5076C89.3029 57.1293 89.473 57.8859 89.473 58.7773V64.4604H87.8894V59.0061C87.8894 58.0442 87.649 57.3111 87.1681 56.8067C86.6871 56.2906 86.0303 56.0326 85.1974 56.0326C84.3529 56.0326 83.6784 56.2965 83.174 56.8243C82.6814 57.3522 82.4351 58.1205 82.4351 59.1292V64.4604H80.8339V51.4403H82.4351V56.1909C82.7518 55.6983 83.1858 55.317 83.7371 55.0473C84.3001 54.7775 84.9277 54.6426 85.6197 54.6426ZM91.4902 59.6043C91.4902 58.619 91.6896 57.7569 92.0884 57.0179C92.4872 56.2672 93.0327 55.6865 93.7247 55.276C94.4285 54.8654 95.2085 54.6602 96.0648 54.6602C96.9094 54.6602 97.6425 54.842 98.2642 55.2056C98.8858 55.5692 99.3492 56.0267 99.6541 56.578V54.8185H101.273V64.4604H99.6541V62.6658C99.3374 63.2288 98.8624 63.698 98.229 64.0734C97.6073 64.437 96.88 64.6188 96.0472 64.6188C95.1909 64.6188 94.4168 64.4077 93.7247 63.9854C93.0327 63.5631 92.4872 62.9708 92.0884 62.2083C91.6896 61.4459 91.4902 60.5779 91.4902 59.6043ZM99.6541 59.6219C99.6541 58.8946 99.5075 58.2612 99.2143 57.7217C98.921 57.1821 98.5222 56.7715 98.0178 56.49C97.5252 56.1968 96.9797 56.0502 96.3815 56.0502C95.7833 56.0502 95.2379 56.1909 94.7452 56.4724C94.2526 56.7539 93.8596 57.1645 93.5664 57.7041C93.2731 58.2436 93.1265 58.877 93.1265 59.6043C93.1265 60.3433 93.2731 60.9884 93.5664 61.5397C93.8596 62.0793 94.2526 62.4957 94.7452 62.7889C95.2379 63.0705 95.7833 63.2112 96.3815 63.2112C96.9797 63.2112 97.5252 63.0705 98.0178 62.7889C98.5222 62.4957 98.921 62.0793 99.2143 61.5397C99.5075 60.9884 99.6541 60.3491 99.6541 59.6219ZM108.676 54.6426C109.849 54.6426 110.799 55.0003 111.527 55.7159C112.254 56.4196 112.618 57.4401 112.618 58.7773V64.4604H111.034V59.0061C111.034 58.0442 110.794 57.3111 110.313 56.8067C109.832 56.2906 109.175 56.0326 108.342 56.0326C107.498 56.0326 106.823 56.2965 106.319 56.8243C105.826 57.3522 105.58 58.1205 105.58 59.1292V64.4604H103.979V54.8185H105.58V56.1909C105.896 55.6983 106.325 55.317 106.864 55.0473C107.415 54.7775 108.02 54.6426 108.676 54.6426ZM117.186 56.1381V61.8212C117.186 62.2904 117.286 62.6247 117.485 62.8241C117.685 63.0118 118.031 63.1057 118.523 63.1057H119.702V64.4604H118.259C117.368 64.4604 116.699 64.2552 116.254 63.8446C115.808 63.4341 115.585 62.7596 115.585 61.8212V56.1381H114.336V54.8185H115.585V52.3905H117.186V54.8185H119.702V56.1381H117.186ZM125.847 64.6188C124.944 64.6188 124.123 64.4135 123.384 64.003C122.657 63.5924 122.082 63.0118 121.66 62.2611C121.249 61.4987 121.044 60.6189 121.044 59.6219C121.044 58.6366 121.255 57.7686 121.677 57.0179C122.111 56.2554 122.698 55.6748 123.437 55.276C124.176 54.8654 125.003 54.6602 125.918 54.6602C126.833 54.6602 127.659 54.8654 128.398 55.276C129.137 55.6748 129.718 56.2496 130.14 57.0003C130.574 57.751 130.791 58.6249 130.791 59.6219C130.791 60.6189 130.568 61.4987 130.123 62.2611C129.689 63.0118 129.096 63.5924 128.346 64.003C127.595 64.4135 126.762 64.6188 125.847 64.6188ZM125.847 63.2112C126.422 63.2112 126.962 63.0763 127.466 62.8065C127.97 62.5368 128.375 62.1321 128.68 61.5925C128.997 61.0529 129.155 60.3961 129.155 59.6219C129.155 58.8477 129.003 58.1909 128.698 57.6513C128.393 57.1117 127.994 56.7129 127.501 56.4548C127.008 56.1851 126.475 56.0502 125.9 56.0502C125.314 56.0502 124.774 56.1851 124.281 56.4548C123.8 56.7129 123.413 57.1117 123.12 57.6513C122.827 58.1909 122.68 58.8477 122.68 59.6219C122.68 60.4078 122.821 61.0705 123.102 61.6101C123.396 62.1497 123.783 62.5544 124.264 62.8241C124.745 63.0822 125.272 63.2112 125.847 63.2112ZM144.491 54.6426C145.242 54.6426 145.911 54.8009 146.497 55.1176C147.084 55.4226 147.547 55.8859 147.887 56.5076C148.227 57.1293 148.398 57.8859 148.398 58.7773V64.4604H146.814V59.0061C146.814 58.0442 146.574 57.3111 146.093 56.8067C145.623 56.2906 144.984 56.0326 144.175 56.0326C143.342 56.0326 142.679 56.3024 142.187 56.8419C141.694 57.3698 141.448 58.1381 141.448 59.1468V64.4604H139.864V59.0061C139.864 58.0442 139.624 57.3111 139.143 56.8067C138.673 56.2906 138.034 56.0326 137.225 56.0326C136.392 56.0326 135.729 56.3024 135.237 56.8419C134.744 57.3698 134.498 58.1381 134.498 59.1468V64.4604H132.897V54.8185H134.498V56.2085C134.814 55.7041 135.237 55.317 135.764 55.0473C136.304 54.7775 136.896 54.6426 137.542 54.6426C138.351 54.6426 139.066 54.8244 139.688 55.188C140.31 55.5516 140.773 56.0853 141.078 56.7891C141.348 56.1088 141.794 55.581 142.415 55.2056C143.037 54.8303 143.729 54.6426 144.491 54.6426ZM152.678 62.2435L150.707 66.9765H149.634L150.918 62.2435H152.678ZM158.605 59.6219C158.605 58.6249 158.804 57.7569 159.203 57.0179C159.602 56.2672 160.153 55.6865 160.857 55.276C161.572 54.8654 162.387 54.6602 163.302 54.6602C164.487 54.6602 165.461 54.9476 166.223 55.5223C166.997 56.0971 167.507 56.8947 167.754 57.9152H166.03C165.865 57.3287 165.543 56.8654 165.062 56.5252C164.593 56.1851 164.006 56.015 163.302 56.015C162.387 56.015 161.648 56.3317 161.085 56.9651C160.522 57.5868 160.241 58.4724 160.241 59.6219C160.241 60.7831 160.522 61.6805 161.085 62.3139C161.648 62.9473 162.387 63.264 163.302 63.264C164.006 63.264 164.593 63.0998 165.062 62.7714C165.531 62.4429 165.854 61.9737 166.03 61.3638H167.754C167.496 62.3491 166.98 63.1408 166.205 63.7391C165.431 64.3256 164.464 64.6188 163.302 64.6188C162.387 64.6188 161.572 64.4135 160.857 64.003C160.153 63.5924 159.602 63.0118 159.203 62.2611C158.804 61.5104 158.605 60.6307 158.605 59.6219ZM171.491 51.4403V64.4604H169.89V51.4403H171.491ZM175.047 53.2526C174.742 53.2526 174.484 53.147 174.273 52.9359C174.062 52.7248 173.956 52.4667 173.956 52.1617C173.956 51.8567 174.062 51.5987 174.273 51.3876C174.484 51.1764 174.742 51.0708 175.047 51.0708C175.34 51.0708 175.587 51.1764 175.786 51.3876C175.997 51.5987 176.103 51.8567 176.103 52.1617C176.103 52.4667 175.997 52.7248 175.786 52.9359C175.587 53.147 175.34 53.2526 175.047 53.2526ZM175.821 54.8185V64.4604H174.22V54.8185H175.821ZM177.952 59.6219C177.952 58.6249 178.151 57.7569 178.55 57.0179C178.949 56.2672 179.5 55.6865 180.204 55.276C180.92 54.8654 181.735 54.6602 182.65 54.6602C183.834 54.6602 184.808 54.9476 185.57 55.5223C186.345 56.0971 186.855 56.8947 187.101 57.9152H185.377C185.213 57.3287 184.89 56.8654 184.409 56.5252C183.94 56.1851 183.353 56.015 182.65 56.015C181.735 56.015 180.996 56.3317 180.433 56.9651C179.87 57.5868 179.588 58.4724 179.588 59.6219C179.588 60.7831 179.87 61.6805 180.433 62.3139C180.996 62.9473 181.735 63.264 182.65 63.264C183.353 63.264 183.94 63.0998 184.409 62.7714C184.878 62.4429 185.201 61.9737 185.377 61.3638H187.101C186.843 62.3491 186.327 63.1408 185.553 63.7391C184.779 64.3256 183.811 64.6188 182.65 64.6188C181.735 64.6188 180.92 64.4135 180.204 64.003C179.5 63.5924 178.949 63.0118 178.55 62.2611C178.151 61.5104 177.952 60.6307 177.952 59.6219ZM194.622 64.4604L190.839 60.2025V64.4604H189.238V51.4403H190.839V59.0941L194.551 54.8185H196.786L192.246 59.6219L196.803 64.4604H194.622ZM203.758 50.455L203.564 53.9564H202.456L202.244 50.455H203.758ZM206.133 50.455L205.939 53.9564H204.831L204.62 50.455H206.133ZM214.262 58.1439C214.707 58.2143 215.112 58.3961 215.476 58.6894C215.851 58.9826 216.144 59.3462 216.355 59.7802C216.578 60.2142 216.69 60.6776 216.69 61.1702C216.69 61.7919 216.531 62.3549 216.215 62.8593C215.898 63.352 215.435 63.7449 214.825 64.0382C214.226 64.3197 213.517 64.4604 212.696 64.4604H208.121V52.1969H212.52C213.352 52.1969 214.062 52.3377 214.649 52.6192C215.235 52.889 215.675 53.2585 215.968 53.7277C216.261 54.1968 216.408 54.7247 216.408 55.3112C216.408 56.0384 216.209 56.6425 215.81 57.1234C215.423 57.5926 214.907 57.9328 214.262 58.1439ZM209.722 57.4929H212.414C213.165 57.4929 213.745 57.317 214.156 56.9651C214.566 56.6132 214.772 56.1264 214.772 55.5047C214.772 54.883 214.566 54.3963 214.156 54.0444C213.745 53.6925 213.153 53.5165 212.379 53.5165H209.722V57.4929ZM212.555 63.1408C213.352 63.1408 213.974 62.9532 214.42 62.5778C214.866 62.2025 215.088 61.6805 215.088 61.0119C215.088 60.3315 214.854 59.7978 214.385 59.4108C213.915 59.0119 213.288 58.8125 212.502 58.8125H209.722V63.1408H212.555ZM227.463 54.8185V64.4604H225.861V63.0353C225.556 63.5279 225.128 63.915 224.577 64.1965C224.037 64.4663 223.439 64.6012 222.782 64.6012C222.032 64.6012 221.357 64.4487 220.759 64.1437C220.161 63.827 219.686 63.3578 219.334 62.7362C218.994 62.1145 218.824 61.3579 218.824 60.4664V54.8185H220.407V60.2553C220.407 61.2054 220.647 61.9385 221.128 62.4546C221.609 62.959 222.266 63.2112 223.099 63.2112C223.955 63.2112 224.63 62.9473 225.122 62.4195C225.615 61.8916 225.861 61.1233 225.861 60.1145V54.8185H227.463ZM238.471 54.8185L232.664 68.9999H231.01L232.911 64.3549L229.022 54.8185H230.799L233.826 62.6306L236.817 54.8185H238.471ZM240.854 50.455L240.661 53.9564H239.552L239.341 50.455H240.854ZM243.23 50.455L243.036 53.9564H241.928L241.716 50.455H243.23ZM249.31 59.6043C249.31 58.619 249.51 57.7569 249.908 57.0179C250.307 56.2672 250.853 55.6865 251.545 55.276C252.249 54.8654 253.029 54.6602 253.885 54.6602C254.729 54.6602 255.463 54.842 256.084 55.2056C256.706 55.5692 257.169 56.0267 257.474 56.578V54.8185H259.093V64.4604H257.474V62.6658C257.158 63.2288 256.682 63.698 256.049 64.0734C255.427 64.437 254.7 64.6188 253.867 64.6188C253.011 64.6188 252.237 64.4077 251.545 63.9854C250.853 63.5631 250.307 62.9708 249.908 62.2083C249.51 61.4459 249.31 60.5779 249.31 59.6043ZM257.474 59.6219C257.474 58.8946 257.328 58.2612 257.034 57.7217C256.741 57.1821 256.342 56.7715 255.838 56.49C255.345 56.1968 254.8 56.0502 254.202 56.0502C253.603 56.0502 253.058 56.1909 252.565 56.4724C252.073 56.7539 251.68 57.1645 251.386 57.7041C251.093 58.2436 250.947 58.877 250.947 59.6043C250.947 60.3433 251.093 60.9884 251.386 61.5397C251.68 62.0793 252.073 62.4957 252.565 62.7889C253.058 63.0705 253.603 63.2112 254.202 63.2112C254.8 63.2112 255.345 63.0705 255.838 62.7889C256.342 62.4957 256.741 62.0793 257.034 61.5397C257.328 60.9884 257.474 60.3491 257.474 59.6219ZM266.496 54.6426C267.669 54.6426 268.62 55.0003 269.347 55.7159C270.074 56.4196 270.438 57.4401 270.438 58.7773V64.4604H268.854V59.0061C268.854 58.0442 268.614 57.3111 268.133 56.8067C267.652 56.2906 266.995 56.0326 266.162 56.0326C265.318 56.0326 264.643 56.2965 264.139 56.8243C263.646 57.3522 263.4 58.1205 263.4 59.1292V64.4604H261.799V54.8185H263.4V56.1909C263.717 55.6983 264.145 55.317 264.684 55.0473C265.236 54.7775 265.84 54.6426 266.496 54.6426ZM272.455 59.6043C272.455 58.619 272.654 57.7569 273.053 57.0179C273.452 56.2672 273.997 55.6865 274.689 55.276C275.393 54.8654 276.179 54.6602 277.047 54.6602C277.798 54.6602 278.496 54.8361 279.141 55.188C279.786 55.5282 280.279 55.9798 280.619 56.5428V51.4403H282.238V64.4604H280.619V62.6482C280.302 63.223 279.833 63.698 279.211 64.0734C278.59 64.437 277.862 64.6188 277.03 64.6188C276.173 64.6188 275.393 64.4077 274.689 63.9854C273.997 63.5631 273.452 62.9708 273.053 62.2083C272.654 61.4459 272.455 60.5779 272.455 59.6043ZM280.619 59.6219C280.619 58.8946 280.472 58.2612 280.179 57.7217C279.886 57.1821 279.487 56.7715 278.983 56.49C278.49 56.1968 277.944 56.0502 277.346 56.0502C276.748 56.0502 276.203 56.1909 275.71 56.4724C275.217 56.7539 274.824 57.1645 274.531 57.7041C274.238 58.2436 274.091 58.877 274.091 59.6043C274.091 60.3433 274.238 60.9884 274.531 61.5397C274.824 62.0793 275.217 62.4957 275.71 62.7889C276.203 63.0705 276.748 63.2112 277.346 63.2112C277.944 63.2112 278.49 63.0705 278.983 62.7889C279.487 62.4957 279.886 62.0793 280.179 61.5397C280.472 60.9884 280.619 60.3491 280.619 59.6219ZM293.558 56.1381H291.534V64.4604H289.933V56.1381H288.684V54.8185H289.933V54.1323C289.933 53.0532 290.209 52.2673 290.76 51.7746C291.323 51.2703 292.221 51.0181 293.452 51.0181V52.3553C292.748 52.3553 292.25 52.496 291.957 52.7775C291.675 53.0473 291.534 53.4989 291.534 54.1323V54.8185H293.558V56.1381ZM299.63 64.6188C298.727 64.6188 297.905 64.4135 297.166 64.003C296.439 63.5924 295.864 63.0118 295.442 62.2611C295.032 61.4987 294.826 60.6189 294.826 59.6219C294.826 58.6366 295.037 57.7686 295.46 57.0179C295.894 56.2554 296.48 55.6748 297.219 55.276C297.958 54.8654 298.785 54.6602 299.7 54.6602C300.615 54.6602 301.442 54.8654 302.181 55.276C302.92 55.6748 303.501 56.2496 303.923 57.0003C304.357 57.751 304.574 58.6249 304.574 59.6219C304.574 60.6189 304.351 61.4987 303.905 62.2611C303.471 63.0118 302.879 63.5924 302.128 64.003C301.377 64.4135 300.545 64.6188 299.63 64.6188ZM299.63 63.2112C300.204 63.2112 300.744 63.0763 301.248 62.8065C301.753 62.5368 302.157 62.1321 302.462 61.5925C302.779 61.0529 302.938 60.3961 302.938 59.6219C302.938 58.8477 302.785 58.1909 302.48 57.6513C302.175 57.1117 301.776 56.7129 301.284 56.4548C300.791 56.1851 300.257 56.0502 299.682 56.0502C299.096 56.0502 298.556 56.1851 298.064 56.4548C297.583 56.7129 297.196 57.1117 296.903 57.6513C296.609 58.1909 296.463 58.8477 296.463 59.6219C296.463 60.4078 296.603 61.0705 296.885 61.6101C297.178 62.1497 297.565 62.5544 298.046 62.8241C298.527 63.0822 299.055 63.2112 299.63 63.2112ZM308.28 51.4403V64.4604H306.679V51.4403H308.28ZM312.61 51.4403V64.4604H311.009V51.4403H312.61ZM319.544 64.6188C318.641 64.6188 317.82 64.4135 317.081 64.003C316.354 63.5924 315.779 63.0118 315.357 62.2611C314.946 61.4987 314.741 60.6189 314.741 59.6219C314.741 58.6366 314.952 57.7686 315.374 57.0179C315.808 56.2554 316.395 55.6748 317.134 55.276C317.873 54.8654 318.7 54.6602 319.614 54.6602C320.529 54.6602 321.356 54.8654 322.095 55.276C322.834 55.6748 323.415 56.2496 323.837 57.0003C324.271 57.751 324.488 58.6249 324.488 59.6219C324.488 60.6189 324.265 61.4987 323.82 62.2611C323.386 63.0118 322.793 63.5924 322.043 64.003C321.292 64.4135 320.459 64.6188 319.544 64.6188ZM319.544 63.2112C320.119 63.2112 320.658 63.0763 321.163 62.8065C321.667 62.5368 322.072 62.1321 322.377 61.5925C322.694 61.0529 322.852 60.3961 322.852 59.6219C322.852 58.8477 322.699 58.1909 322.394 57.6513C322.089 57.1117 321.691 56.7129 321.198 56.4548C320.705 56.1851 320.172 56.0502 319.597 56.0502C319.01 56.0502 318.471 56.1851 317.978 56.4548C317.497 56.7129 317.11 57.1117 316.817 57.6513C316.524 58.1909 316.377 58.8477 316.377 59.6219C316.377 60.4078 316.518 61.0705 316.799 61.6101C317.093 62.1497 317.48 62.5544 317.961 62.8241C318.441 63.0822 318.969 63.2112 319.544 63.2112ZM339.438 54.8185L336.429 64.4604H334.775L332.452 56.8067L330.13 64.4604H328.476L325.45 54.8185H327.086L329.303 62.9121L331.696 54.8185H333.332L335.672 62.9297L337.854 54.8185H339.438ZM3.18901 79.2526C2.88404 79.2526 2.62598 79.147 2.41484 78.9359C2.20371 78.7248 2.09814 78.4667 2.09814 78.1617C2.09814 77.8567 2.20371 77.5987 2.41484 77.3876C2.62598 77.1764 2.88404 77.0708 3.18901 77.0708C3.48226 77.0708 3.72858 77.1764 3.92799 77.3876C4.13913 77.5987 4.2447 77.8567 4.2447 78.1617C4.2447 78.4667 4.13913 78.7248 3.92799 78.9359C3.72858 79.147 3.48226 79.2526 3.18901 79.2526ZM3.96318 80.8185V90.4604H2.36206V80.8185H3.96318ZM11.3898 80.6426C12.5628 80.6426 13.5129 81.0003 14.2402 81.7159C14.9674 82.4196 15.331 83.4401 15.331 84.7773V90.4604H13.7475V85.0061C13.7475 84.0442 13.507 83.3111 13.0261 82.8067C12.5452 82.2906 11.8883 82.0326 11.0555 82.0326C10.211 82.0326 9.5365 82.2965 9.03212 82.8243C8.53946 83.3522 8.29314 84.1205 8.29314 85.1292V90.4604H6.69202V80.8185H8.29314V82.1909C8.60984 81.6983 9.03798 81.317 9.57756 81.0473C10.1289 80.7775 10.7329 80.6426 11.3898 80.6426ZM21.3598 90.6188C20.6209 90.6188 19.9581 90.4956 19.3716 90.2493C18.7852 89.9913 18.3218 89.6394 17.9817 89.1936C17.6415 88.7362 17.4538 88.2142 17.4186 87.6277H19.0725C19.1195 88.1086 19.3423 88.5016 19.7411 88.8065C20.1517 89.1115 20.6854 89.264 21.3423 89.264C21.9522 89.264 22.4331 89.1291 22.785 88.8593C23.1369 88.5895 23.3129 88.2494 23.3129 87.8388C23.3129 87.4166 23.1252 87.1057 22.7498 86.9063C22.3745 86.6952 21.7939 86.4899 21.008 86.2905C20.2924 86.1028 19.7059 85.9151 19.2485 85.7275C18.8027 85.5281 18.4157 85.2407 18.0872 84.8653C17.7705 84.4782 17.6122 83.9739 17.6122 83.3522C17.6122 82.8595 17.7588 82.4079 18.052 81.9974C18.3453 81.5868 18.7617 81.2643 19.3013 81.0297C19.8408 80.7833 20.4567 80.6602 21.1487 80.6602C22.2161 80.6602 23.0783 80.93 23.7351 81.4695C24.392 82.0091 24.7439 82.7481 24.7908 83.6865H23.1897C23.1545 83.1821 22.9492 82.7774 22.5739 82.4724C22.2103 82.1675 21.7176 82.015 21.0959 82.015C20.5212 82.015 20.0637 82.1381 19.7235 82.3845C19.3834 82.6308 19.2133 82.9534 19.2133 83.3522C19.2133 83.6689 19.313 83.9328 19.5124 84.1439C19.7235 84.3433 19.9816 84.5076 20.2866 84.6366C20.6033 84.7539 21.0373 84.8888 21.5886 85.0413C22.2806 85.2289 22.8437 85.4166 23.2777 85.6043C23.7117 85.7802 24.0812 86.05 24.3861 86.4137C24.7029 86.7773 24.8671 87.2523 24.8788 87.8388C24.8788 88.3667 24.7322 88.8417 24.4389 89.264C24.1457 89.6863 23.7293 90.0206 23.1897 90.2669C22.6619 90.5015 22.0519 90.6188 21.3598 90.6188ZM29.0921 82.1381V87.8212C29.0921 88.2904 29.1918 88.6247 29.3912 88.8241C29.5906 89.0118 29.9366 89.1057 30.4293 89.1057H31.6081V90.4604H30.1653C29.2739 90.4604 28.6053 90.2552 28.1595 89.8446C27.7138 89.4341 27.4909 88.7596 27.4909 87.8212V82.1381H26.2417V80.8185H27.4909V78.3905H29.0921V80.8185H31.6081V82.1381H29.0921ZM35.1492 82.3845C35.4307 81.8332 35.8295 81.405 36.3456 81.1C36.8735 80.7951 37.5127 80.6426 38.2635 80.6426V82.2965H37.8412C36.0465 82.2965 35.1492 83.2701 35.1492 85.2172V90.4604H33.5481V80.8185H35.1492V82.3845ZM48.6628 80.8185V90.4604H47.0617V89.0353C46.7567 89.5279 46.3285 89.915 45.7772 90.1965C45.2377 90.4663 44.6394 90.6012 43.9826 90.6012C43.2319 90.6012 42.5574 90.4487 41.9592 90.1437C41.361 89.827 40.8859 89.3578 40.534 88.7362C40.1938 88.1145 40.0238 87.3579 40.0238 86.4664V80.8185H41.6073V86.2553C41.6073 87.2054 41.8477 87.9385 42.3287 88.4546C42.8096 88.959 43.4665 89.2112 44.2993 89.2112C45.1556 89.2112 45.83 88.9473 46.3227 88.4195C46.8153 87.8916 47.0617 87.1233 47.0617 86.1145V80.8185H48.6628ZM50.768 85.6219C50.768 84.6249 50.9674 83.7569 51.3662 83.0179C51.765 82.2672 52.3163 81.6865 53.0201 81.276C53.7356 80.8654 54.5508 80.6602 55.4658 80.6602C56.6505 80.6602 57.624 80.9476 58.3865 81.5223C59.1607 82.0971 59.6709 82.8947 59.9172 83.9152H58.1929C58.0287 83.3287 57.7062 82.8654 57.2252 82.5252C56.756 82.1851 56.1695 82.015 55.4658 82.015C54.5508 82.015 53.8118 82.3317 53.2488 82.9651C52.6858 83.5868 52.4043 84.4724 52.4043 85.6219C52.4043 86.7831 52.6858 87.6805 53.2488 88.3139C53.8118 88.9473 54.5508 89.264 55.4658 89.264C56.1695 89.264 56.756 89.0998 57.2252 88.7714C57.6944 88.4429 58.017 87.9737 58.1929 87.3638H59.9172C59.6592 88.3491 59.1431 89.1408 58.3689 89.7391C57.5947 90.3256 56.627 90.6188 55.4658 90.6188C54.5508 90.6188 53.7356 90.4135 53.0201 90.003C52.3163 89.5924 51.765 89.0118 51.3662 88.2611C50.9674 87.5104 50.768 86.6307 50.768 85.6219ZM64.0066 82.1381V87.8212C64.0066 88.2904 64.1063 88.6247 64.3057 88.8241C64.5051 89.0118 64.8512 89.1057 65.3438 89.1057H66.5227V90.4604H65.0799C64.1884 90.4604 63.5198 90.2552 63.0741 89.8446C62.6284 89.4341 62.4055 88.7596 62.4055 87.8212V82.1381H61.1563V80.8185H62.4055V78.3905H64.0066V80.8185H66.5227V82.1381H64.0066ZM69.2896 79.2526C68.9846 79.2526 68.7266 79.147 68.5154 78.9359C68.3043 78.7248 68.1987 78.4667 68.1987 78.1617C68.1987 77.8567 68.3043 77.5987 68.5154 77.3876C68.7266 77.1764 68.9846 77.0708 69.2896 77.0708C69.5828 77.0708 69.8292 77.1764 70.0286 77.3876C70.2397 77.5987 70.3453 77.8567 70.3453 78.1617C70.3453 78.4667 70.2397 78.7248 70.0286 78.9359C69.8292 79.147 69.5828 79.2526 69.2896 79.2526ZM70.0638 80.8185V90.4604H68.4626V80.8185H70.0638ZM76.9977 90.6188C76.0945 90.6188 75.2735 90.4135 74.5345 90.003C73.8072 89.5924 73.2325 89.0118 72.8102 88.2611C72.3996 87.4987 72.1944 86.6189 72.1944 85.6219C72.1944 84.6366 72.4055 83.7686 72.8278 83.0179C73.2618 82.2554 73.8483 81.6748 74.5873 81.276C75.3262 80.8654 76.1532 80.6602 77.0681 80.6602C77.983 80.6602 78.81 80.8654 79.549 81.276C80.288 81.6748 80.8686 82.2496 81.2909 83.0003C81.7249 83.751 81.9419 84.6249 81.9419 85.6219C81.9419 86.6189 81.719 87.4987 81.2733 88.2611C80.8393 89.0118 80.2469 89.5924 79.4962 90.003C78.7455 90.4135 77.9127 90.6188 76.9977 90.6188ZM76.9977 89.2112C77.5725 89.2112 78.1121 89.0763 78.6165 88.8065C79.1208 88.5368 79.5255 88.1321 79.8305 87.5925C80.1472 87.0529 80.3056 86.3961 80.3056 85.6219C80.3056 84.8477 80.1531 84.1909 79.8481 83.6513C79.5431 83.1117 79.1443 82.7129 78.6516 82.4548C78.159 82.1851 77.6253 82.0502 77.0505 82.0502C76.464 82.0502 75.9245 82.1851 75.4318 82.4548C74.9509 82.7129 74.5638 83.1117 74.2706 83.6513C73.9773 84.1909 73.8307 84.8477 73.8307 85.6219C73.8307 86.4078 73.9714 87.0705 74.253 87.6101C74.5462 88.1497 74.9333 88.5544 75.4142 88.8241C75.8951 89.0822 76.423 89.2112 76.9977 89.2112ZM88.7448 80.6426C89.9178 80.6426 90.8679 81.0003 91.5952 81.7159C92.3224 82.4196 92.6861 83.4401 92.6861 84.7773V90.4604H91.1025V85.0061C91.1025 84.0442 90.8621 83.3111 90.3812 82.8067C89.9002 82.2906 89.2434 82.0326 88.4105 82.0326C87.566 82.0326 86.8915 82.2965 86.3872 82.8243C85.8945 83.3522 85.6482 84.1205 85.6482 85.1292V90.4604H84.047V80.8185H85.6482V82.1909C85.9649 81.6983 86.393 81.317 86.9326 81.0473C87.4839 80.7775 88.088 80.6426 88.7448 80.6426ZM98.7149 90.6188C97.9759 90.6188 97.3132 90.4956 96.7267 90.2493C96.1402 89.9913 95.6769 89.6394 95.3367 89.1936C94.9965 88.7362 94.8088 88.2142 94.7737 87.6277H96.4276C96.4745 88.1086 96.6973 88.5016 97.0962 88.8065C97.5067 89.1115 98.0404 89.264 98.6973 89.264C99.3072 89.264 99.7882 89.1291 100.14 88.8593C100.492 88.5895 100.668 88.2494 100.668 87.8388C100.668 87.4166 100.48 87.1057 100.105 86.9063C99.7295 86.6952 99.1489 86.4899 98.363 86.2905C97.6475 86.1028 97.061 85.9151 96.6035 85.7275C96.1578 85.5281 95.7707 85.2407 95.4423 84.8653C95.1255 84.4782 94.9672 83.9739 94.9672 83.3522C94.9672 82.8595 95.1138 82.4079 95.4071 81.9974C95.7003 81.5868 96.1167 81.2643 96.6563 81.0297C97.1959 80.7833 97.8117 80.6602 98.5037 80.6602C99.5712 80.6602 100.433 80.93 101.09 81.4695C101.747 82.0091 102.099 82.7481 102.146 83.6865H100.545C100.51 83.1821 100.304 82.7774 99.9289 82.4724C99.5653 82.1675 99.0726 82.015 98.451 82.015C97.8762 82.015 97.4187 82.1381 97.0786 82.3845C96.7384 82.6308 96.5683 82.9534 96.5683 83.3522C96.5683 83.6689 96.668 83.9328 96.8674 84.1439C97.0786 84.3433 97.3366 84.5076 97.6416 84.6366C97.9583 84.7539 98.3923 84.8888 98.9436 85.0413C99.6357 85.2289 100.199 85.4166 100.633 85.6043C101.067 85.7802 101.436 86.05 101.741 86.4137C102.058 86.7773 102.222 87.2523 102.234 87.8388C102.234 88.3667 102.087 88.8417 101.794 89.264C101.501 89.6863 101.084 90.0206 100.545 90.2669C100.017 90.5015 99.4069 90.6188 98.7149 90.6188ZM113.108 82.1381H111.085V90.4604H109.484V82.1381H108.235V80.8185H109.484V80.1323C109.484 79.0532 109.76 78.2673 110.311 77.7746C110.874 77.2703 111.771 77.0181 113.003 77.0181V78.3553C112.299 78.3553 111.801 78.496 111.507 78.7775C111.226 79.0473 111.085 79.4989 111.085 80.1323V80.8185H113.108V82.1381ZM116.576 82.3845C116.858 81.8332 117.257 81.405 117.773 81.1C118.301 80.7951 118.94 80.6426 119.691 80.6426V82.2965H119.268C117.474 82.2965 116.576 83.2701 116.576 85.2172V90.4604H114.975V80.8185H116.576V82.3845ZM125.744 90.6188C124.841 90.6188 124.02 90.4135 123.281 90.003C122.554 89.5924 121.979 89.0118 121.557 88.2611C121.146 87.4987 120.941 86.6189 120.941 85.6219C120.941 84.6366 121.152 83.7686 121.574 83.0179C122.008 82.2554 122.595 81.6748 123.334 81.276C124.073 80.8654 124.9 80.6602 125.815 80.6602C126.729 80.6602 127.556 80.8654 128.295 81.276C129.034 81.6748 129.615 82.2496 130.037 83.0003C130.471 83.751 130.688 84.6249 130.688 85.6219C130.688 86.6189 130.465 87.4987 130.02 88.2611C129.586 89.0118 128.993 89.5924 128.243 90.003C127.492 90.4135 126.659 90.6188 125.744 90.6188ZM125.744 89.2112C126.319 89.2112 126.858 89.0763 127.363 88.8065C127.867 88.5368 128.272 88.1321 128.577 87.5925C128.894 87.0529 129.052 86.3961 129.052 85.6219C129.052 84.8477 128.899 84.1909 128.594 83.6513C128.289 83.1117 127.891 82.7129 127.398 82.4548C126.905 82.1851 126.372 82.0502 125.797 82.0502C125.21 82.0502 124.671 82.1851 124.178 82.4548C123.697 82.7129 123.31 83.1117 123.017 83.6513C122.724 84.1909 122.577 84.8477 122.577 85.6219C122.577 86.4078 122.718 87.0705 122.999 87.6101C123.293 88.1497 123.68 88.5544 124.161 88.8241C124.642 89.0822 125.169 89.2112 125.744 89.2112ZM144.388 80.6426C145.139 80.6426 145.808 80.8009 146.394 81.1176C146.981 81.4226 147.444 81.8859 147.784 82.5076C148.124 83.1293 148.294 83.8859 148.294 84.7773V90.4604H146.711V85.0061C146.711 84.0442 146.47 83.3111 145.989 82.8067C145.52 82.2906 144.881 82.0326 144.072 82.0326C143.239 82.0326 142.576 82.3024 142.083 82.8419C141.591 83.3698 141.344 84.1381 141.344 85.1468V90.4604H139.761V85.0061C139.761 84.0442 139.52 83.3111 139.04 82.8067C138.57 82.2906 137.931 82.0326 137.122 82.0326C136.289 82.0326 135.626 82.3024 135.134 82.8419C134.641 83.3698 134.395 84.1381 134.395 85.1468V90.4604H132.793V80.8185H134.395V82.2085C134.711 81.7041 135.134 81.317 135.661 81.0473C136.201 80.7775 136.793 80.6426 137.438 80.6426C138.248 80.6426 138.963 80.8244 139.585 81.188C140.207 81.5516 140.67 82.0853 140.975 82.7891C141.245 82.1088 141.691 81.581 142.312 81.2056C142.934 80.8303 143.626 80.6426 144.388 80.6426ZM159.025 90.6188C158.286 90.6188 157.623 90.4956 157.037 90.2493C156.45 89.9913 155.987 89.6394 155.647 89.1936C155.307 88.7362 155.119 88.2142 155.084 87.6277H156.738C156.785 88.1086 157.007 88.5016 157.406 88.8065C157.817 89.1115 158.351 89.264 159.007 89.264C159.617 89.264 160.098 89.1291 160.45 88.8593C160.802 88.5895 160.978 88.2494 160.978 87.8388C160.978 87.4166 160.79 87.1057 160.415 86.9063C160.04 86.6952 159.459 86.4899 158.673 86.2905C157.958 86.1028 157.371 85.9151 156.914 85.7275C156.468 85.5281 156.081 85.2407 155.752 84.8653C155.436 84.4782 155.277 83.9739 155.277 83.3522C155.277 82.8595 155.424 82.4079 155.717 81.9974C156.01 81.5868 156.427 81.2643 156.966 81.0297C157.506 80.7833 158.122 80.6602 158.814 80.6602C159.881 80.6602 160.743 80.93 161.4 81.4695C162.057 82.0091 162.409 82.7481 162.456 83.6865H160.855C160.82 83.1821 160.614 82.7774 160.239 82.4724C159.875 82.1675 159.383 82.015 158.761 82.015C158.186 82.015 157.729 82.1381 157.389 82.3845C157.049 82.6308 156.878 82.9534 156.878 83.3522C156.878 83.6689 156.978 83.9328 157.178 84.1439C157.389 84.3433 157.647 84.5076 157.952 84.6366C158.268 84.7539 158.702 84.8888 159.254 85.0413C159.946 85.2289 160.509 85.4166 160.943 85.6043C161.377 85.7802 161.746 86.05 162.051 86.4137C162.368 86.7773 162.532 87.2523 162.544 87.8388C162.544 88.3667 162.397 88.8417 162.104 89.264C161.811 89.6863 161.394 90.0206 160.855 90.2669C160.327 90.5015 159.717 90.6188 159.025 90.6188ZM173.602 85.27C173.602 85.575 173.584 85.8975 173.549 86.2377H165.842C165.901 87.1878 166.223 87.9327 166.81 88.4722C167.408 89.0001 168.13 89.264 168.974 89.264C169.666 89.264 170.241 89.1057 170.698 88.7889C171.168 88.4605 171.496 88.0265 171.684 87.4869H173.408C173.15 88.4136 172.634 89.1702 171.86 89.7567C171.086 90.3314 170.124 90.6188 168.974 90.6188C168.059 90.6188 167.238 90.4135 166.511 90.003C165.795 89.5924 165.232 89.0118 164.822 88.2611C164.411 87.4987 164.206 86.6189 164.206 85.6219C164.206 84.6249 164.405 83.751 164.804 83.0003C165.203 82.2496 165.76 81.6748 166.476 81.276C167.203 80.8654 168.036 80.6602 168.974 80.6602C169.889 80.6602 170.698 80.8596 171.402 81.2584C172.106 81.6572 172.646 82.2085 173.021 82.9123C173.408 83.6044 173.602 84.3903 173.602 85.27ZM171.948 84.9357C171.948 84.3257 171.813 83.8038 171.543 83.3698C171.273 82.924 170.904 82.5897 170.435 82.3669C169.977 82.1323 169.467 82.015 168.904 82.015C168.094 82.015 167.402 82.273 166.828 82.7891C166.265 83.3053 165.942 84.0208 165.86 84.9357H171.948ZM177.316 82.3845C177.598 81.8332 177.996 81.405 178.513 81.1C179.04 80.7951 179.68 80.6426 180.43 80.6426V82.2965H180.008C178.213 82.2965 177.316 83.2701 177.316 85.2172V90.4604H175.715V80.8185H177.316V82.3845ZM185.868 88.9825L188.859 80.8185H190.566L186.783 90.4604H184.918L181.135 80.8185H182.859L185.868 88.9825ZM192.968 79.2526C192.663 79.2526 192.405 79.147 192.194 78.9359C191.983 78.7248 191.877 78.4667 191.877 78.1617C191.877 77.8567 191.983 77.5987 192.194 77.3876C192.405 77.1764 192.663 77.0708 192.968 77.0708C193.262 77.0708 193.508 77.1764 193.707 77.3876C193.918 77.5987 194.024 77.8567 194.024 78.1617C194.024 78.4667 193.918 78.7248 193.707 78.9359C193.508 79.147 193.262 79.2526 192.968 79.2526ZM193.742 80.8185V90.4604H192.141V80.8185H193.742ZM195.873 85.6219C195.873 84.6249 196.072 83.7569 196.471 83.0179C196.87 82.2672 197.421 81.6865 198.125 81.276C198.841 80.8654 199.656 80.6602 200.571 80.6602C201.756 80.6602 202.729 80.9476 203.492 81.5223C204.266 82.0971 204.776 82.8947 205.022 83.9152H203.298C203.134 83.3287 202.811 82.8654 202.33 82.5252C201.861 82.1851 201.275 82.015 200.571 82.015C199.656 82.015 198.917 82.3317 198.354 82.9651C197.791 83.5868 197.509 84.4724 197.509 85.6219C197.509 86.7831 197.791 87.6805 198.354 88.3139C198.917 88.9473 199.656 89.264 200.571 89.264C201.275 89.264 201.861 89.0998 202.33 88.7714C202.8 88.4429 203.122 87.9737 203.298 87.3638H205.022C204.764 88.3491 204.248 89.1408 203.474 89.7391C202.7 90.3256 201.732 90.6188 200.571 90.6188C199.656 90.6188 198.841 90.4135 198.125 90.003C197.421 89.5924 196.87 89.0118 196.471 88.2611C196.072 87.5104 195.873 86.6307 195.873 85.6219ZM215.956 85.27C215.956 85.575 215.939 85.8975 215.903 86.2377H208.197C208.255 87.1878 208.578 87.9327 209.165 88.4722C209.763 89.0001 210.484 89.264 211.329 89.264C212.021 89.264 212.596 89.1057 213.053 88.7889C213.522 88.4605 213.851 88.0265 214.038 87.4869H215.763C215.505 88.4136 214.988 89.1702 214.214 89.7567C213.44 90.3314 212.478 90.6188 211.329 90.6188C210.414 90.6188 209.593 90.4135 208.865 90.003C208.15 89.5924 207.587 89.0118 207.176 88.2611C206.766 87.4987 206.561 86.6189 206.561 85.6219C206.561 84.6249 206.76 83.751 207.159 83.0003C207.558 82.2496 208.115 81.6748 208.83 81.276C209.557 80.8654 210.39 80.6602 211.329 80.6602C212.244 80.6602 213.053 80.8596 213.757 81.2584C214.461 81.6572 215 82.2085 215.375 82.9123C215.763 83.6044 215.956 84.3903 215.956 85.27ZM214.302 84.9357C214.302 84.3257 214.167 83.8038 213.898 83.3698C213.628 82.924 213.258 82.5897 212.789 82.3669C212.332 82.1323 211.821 82.015 211.258 82.015C210.449 82.015 209.757 82.273 209.182 82.7891C208.619 83.3053 208.297 84.0208 208.214 84.9357H214.302ZM221.483 90.6188C220.744 90.6188 220.081 90.4956 219.495 90.2493C218.908 89.9913 218.445 89.6394 218.105 89.1936C217.765 88.7362 217.577 88.2142 217.542 87.6277H219.196C219.243 88.1086 219.465 88.5016 219.864 88.8065C220.275 89.1115 220.808 89.264 221.465 89.264C222.075 89.264 222.556 89.1291 222.908 88.8593C223.26 88.5895 223.436 88.2494 223.436 87.8388C223.436 87.4166 223.248 87.1057 222.873 86.9063C222.498 86.6952 221.917 86.4899 221.131 86.2905C220.415 86.1028 219.829 85.9151 219.372 85.7275C218.926 85.5281 218.539 85.2407 218.21 84.8653C217.894 84.4782 217.735 83.9739 217.735 83.3522C217.735 82.8595 217.882 82.4079 218.175 81.9974C218.468 81.5868 218.885 81.2643 219.424 81.0297C219.964 80.7833 220.58 80.6602 221.272 80.6602C222.339 80.6602 223.201 80.93 223.858 81.4695C224.515 82.0091 224.867 82.7481 224.914 83.6865H223.313C223.278 83.1821 223.072 82.7774 222.697 82.4724C222.333 82.1675 221.841 82.015 221.219 82.015C220.644 82.015 220.187 82.1381 219.847 82.3845C219.506 82.6308 219.336 82.9534 219.336 83.3522C219.336 83.6689 219.436 83.9328 219.635 84.1439C219.847 84.3433 220.105 84.5076 220.41 84.6366C220.726 84.7539 221.16 84.8888 221.712 85.0413C222.404 85.2289 222.967 85.4166 223.401 85.6043C223.835 85.7802 224.204 86.05 224.509 86.4137C224.826 86.7773 224.99 87.2523 225.002 87.8388C225.002 88.3667 224.855 88.8417 224.562 89.264C224.269 89.6863 223.852 90.0206 223.313 90.2669C222.785 90.5015 222.175 90.6188 221.483 90.6188ZM233.554 77.4403V90.4604H231.953V77.4403H233.554ZM237.11 79.2526C236.805 79.2526 236.547 79.147 236.336 78.9359C236.124 78.7248 236.019 78.4667 236.019 78.1617C236.019 77.8567 236.124 77.5987 236.336 77.3876C236.547 77.1764 236.805 77.0708 237.11 77.0708C237.403 77.0708 237.649 77.1764 237.849 77.3876C238.06 77.5987 238.165 77.8567 238.165 78.1617C238.165 78.4667 238.06 78.7248 237.849 78.9359C237.649 79.147 237.403 79.2526 237.11 79.2526ZM237.884 80.8185V90.4604H236.283V80.8185H237.884ZM245.997 90.4604L242.214 86.2025V90.4604H240.613V77.4403H242.214V85.0941L245.926 80.8185H248.161L243.622 85.6219L248.179 90.4604H245.997ZM258.465 85.27C258.465 85.575 258.448 85.8975 258.413 86.2377H250.706C250.765 87.1878 251.087 87.9327 251.674 88.4722C252.272 89.0001 252.993 89.264 253.838 89.264C254.53 89.264 255.105 89.1057 255.562 88.7889C256.031 88.4605 256.36 88.0265 256.547 87.4869H258.272C258.014 88.4136 257.498 89.1702 256.723 89.7567C255.949 90.3314 254.987 90.6188 253.838 90.6188C252.923 90.6188 252.102 90.4135 251.375 90.003C250.659 89.5924 250.096 89.0118 249.686 88.2611C249.275 87.4987 249.07 86.6189 249.07 85.6219C249.07 84.6249 249.269 83.751 249.668 83.0003C250.067 82.2496 250.624 81.6748 251.339 81.276C252.067 80.8654 252.899 80.6602 253.838 80.6602C254.753 80.6602 255.562 80.8596 256.266 81.2584C256.97 81.6572 257.509 82.2085 257.885 82.9123C258.272 83.6044 258.465 84.3903 258.465 85.27ZM256.811 84.9357C256.811 84.3257 256.676 83.8038 256.407 83.3698C256.137 82.924 255.767 82.5897 255.298 82.3669C254.841 82.1323 254.331 82.015 253.767 82.015C252.958 82.015 252.266 82.273 251.691 82.7891C251.128 83.3053 250.806 84.0208 250.724 84.9357H256.811ZM277.709 78.2849V90.4604H276.108V81.3816L272.061 90.4604H270.935L266.871 81.364V90.4604H265.269V78.2849H266.994L271.498 88.3491L276.002 78.2849H277.709ZM284.63 90.6188C283.726 90.6188 282.905 90.4135 282.166 90.003C281.439 89.5924 280.864 89.0118 280.442 88.2611C280.031 87.4987 279.826 86.6189 279.826 85.6219C279.826 84.6366 280.037 83.7686 280.46 83.0179C280.894 82.2554 281.48 81.6748 282.219 81.276C282.958 80.8654 283.785 80.6602 284.7 80.6602C285.615 80.6602 286.442 80.8654 287.181 81.276C287.92 81.6748 288.5 82.2496 288.923 83.0003C289.357 83.751 289.574 84.6249 289.574 85.6219C289.574 86.6189 289.351 87.4987 288.905 88.2611C288.471 89.0118 287.879 89.5924 287.128 90.003C286.377 90.4135 285.544 90.6188 284.63 90.6188ZM284.63 89.2112C285.204 89.2112 285.744 89.0763 286.248 88.8065C286.753 88.5368 287.157 88.1321 287.462 87.5925C287.779 87.0529 287.937 86.3961 287.937 85.6219C287.937 84.8477 287.785 84.1909 287.48 83.6513C287.175 83.1117 286.776 82.7129 286.283 82.4548C285.791 82.1851 285.257 82.0502 284.682 82.0502C284.096 82.0502 283.556 82.1851 283.064 82.4548C282.583 82.7129 282.196 83.1117 281.902 83.6513C281.609 84.1909 281.462 84.8477 281.462 85.6219C281.462 86.4078 281.603 87.0705 281.885 87.6101C282.178 88.1497 282.565 88.5544 283.046 88.8241C283.527 89.0822 284.055 89.2112 284.63 89.2112ZM295.884 90.6188C294.981 90.6188 294.16 90.4135 293.421 90.003C292.693 89.5924 292.119 89.0118 291.696 88.2611C291.286 87.4987 291.081 86.6189 291.081 85.6219C291.081 84.6366 291.292 83.7686 291.714 83.0179C292.148 82.2554 292.734 81.6748 293.473 81.276C294.212 80.8654 295.039 80.6602 295.954 80.6602C296.869 80.6602 297.696 80.8654 298.435 81.276C299.174 81.6748 299.755 82.2496 300.177 83.0003C300.611 83.751 300.828 84.6249 300.828 85.6219C300.828 86.6189 300.605 87.4987 300.159 88.2611C299.725 89.0118 299.133 89.5924 298.382 90.003C297.632 90.4135 296.799 90.6188 295.884 90.6188ZM295.884 89.2112C296.459 89.2112 296.998 89.0763 297.503 88.8065C298.007 88.5368 298.412 88.1321 298.717 87.5925C299.033 87.0529 299.192 86.3961 299.192 85.6219C299.192 84.8477 299.039 84.1909 298.734 83.6513C298.429 83.1117 298.031 82.7129 297.538 82.4548C297.045 82.1851 296.511 82.0502 295.937 82.0502C295.35 82.0502 294.811 82.1851 294.318 82.4548C293.837 82.7129 293.45 83.1117 293.157 83.6513C292.864 84.1909 292.717 84.8477 292.717 85.6219C292.717 86.4078 292.858 87.0705 293.139 87.6101C293.432 88.1497 293.819 88.5544 294.3 88.8241C294.781 89.0822 295.309 89.2112 295.884 89.2112ZM307.631 80.6426C308.804 80.6426 309.754 81.0003 310.481 81.7159C311.209 82.4196 311.572 83.4401 311.572 84.7773V90.4604H309.989V85.0061C309.989 84.0442 309.748 83.3111 309.267 82.8067C308.786 82.2906 308.13 82.0326 307.297 82.0326C306.452 82.0326 305.778 82.2965 305.273 82.8243C304.781 83.3522 304.534 84.1205 304.534 85.1292V90.4604H302.933V80.8185H304.534V82.1909C304.851 81.6983 305.279 81.317 305.819 81.0473C306.37 80.7775 306.974 80.6426 307.631 80.6426ZM322.387 81.7862C322.387 82.8067 322.035 83.6571 321.331 84.3375C320.639 85.0061 319.578 85.3404 318.147 85.3404H315.789V90.4604H314.188V78.1969H318.147C319.531 78.1969 320.58 78.5312 321.296 79.1998C322.023 79.8684 322.387 80.7306 322.387 81.7862ZM318.147 84.0208C319.038 84.0208 319.695 83.8272 320.117 83.4401C320.539 83.0531 320.751 82.5018 320.751 81.7862C320.751 80.2731 319.883 79.5165 318.147 79.5165H315.789V84.0208H318.147ZM323.779 85.6043C323.779 84.619 323.978 83.7569 324.377 83.0179C324.776 82.2672 325.321 81.6865 326.013 81.276C326.717 80.8654 327.497 80.6602 328.353 80.6602C329.198 80.6602 329.931 80.842 330.553 81.2056C331.174 81.5692 331.638 82.0267 331.943 82.578V80.8185H333.561V90.4604H331.943V88.6658C331.626 89.2288 331.151 89.698 330.517 90.0734C329.896 90.437 329.168 90.6188 328.336 90.6188C327.479 90.6188 326.705 90.4077 326.013 89.9854C325.321 89.5631 324.776 88.9708 324.377 88.2083C323.978 87.4459 323.779 86.5779 323.779 85.6043ZM331.943 85.6219C331.943 84.8946 331.796 84.2612 331.503 83.7217C331.209 83.1821 330.811 82.7715 330.306 82.49C329.814 82.1968 329.268 82.0502 328.67 82.0502C328.072 82.0502 327.526 82.1909 327.034 82.4724C326.541 82.7539 326.148 83.1645 325.855 83.7041C325.562 84.2436 325.415 84.877 325.415 85.6043C325.415 86.3433 325.562 86.9884 325.855 87.5397C326.148 88.0793 326.541 88.4957 327.034 88.7889C327.526 89.0705 328.072 89.2112 328.67 89.2112C329.268 89.2112 329.814 89.0705 330.306 88.7889C330.811 88.4957 331.209 88.0793 331.503 87.5397C331.796 86.9884 331.943 86.3491 331.943 85.6219ZM344.572 80.8185L338.766 94.9999H337.112L339.012 90.3549L335.123 80.8185H336.9L339.927 88.6306L342.918 80.8185H344.572ZM346.692 90.566C346.387 90.566 346.129 90.4604 345.917 90.2493C345.706 90.0382 345.601 89.7801 345.601 89.4751C345.601 89.1702 345.706 88.9121 345.917 88.701C346.129 88.4898 346.387 88.3843 346.692 88.3843C346.985 88.3843 347.231 88.4898 347.431 88.701C347.642 88.9121 347.747 89.1702 347.747 89.4751C347.747 89.7801 347.642 90.0382 347.431 90.2493C347.231 90.4604 346.985 90.566 346.692 90.566ZM16.5699 113.733H11.2211L10.2358 116.46H8.54674L12.9806 104.267H14.8281L19.2443 116.46H17.5552L16.5699 113.733ZM16.1125 112.431L13.8955 106.238L11.6786 112.431H16.1125ZM22.7779 103.44V116.46H21.1767V103.44H22.7779ZM27.4597 108.138V113.821C27.4597 114.29 27.5594 114.625 27.7588 114.824C27.9582 115.012 28.3043 115.106 28.7969 115.106H29.9758V116.46H28.533C27.6415 116.46 26.9729 116.255 26.5272 115.845C26.0815 115.434 25.8586 114.76 25.8586 113.821V108.138H24.6094V106.819H25.8586V104.39H27.4597V106.819H29.9758V108.138H27.4597ZM40.7131 111.27C40.7131 111.575 40.6955 111.898 40.6603 112.238H32.9538C33.0125 113.188 33.335 113.933 33.9215 114.472C34.5197 115 35.2411 115.264 36.0857 115.264C36.7777 115.264 37.3525 115.106 37.81 114.789C38.2792 114.461 38.6076 114.027 38.7953 113.487H40.5196C40.2615 114.414 39.7454 115.17 38.9712 115.757C38.197 116.331 37.2352 116.619 36.0857 116.619C35.1708 116.619 34.3497 116.414 33.6224 116.003C32.9069 115.592 32.3439 115.012 31.9333 114.261C31.5228 113.499 31.3175 112.619 31.3175 111.622C31.3175 110.625 31.5169 109.751 31.9157 109C32.3145 108.25 32.8717 107.675 33.5872 107.276C34.3145 106.865 35.1473 106.66 36.0857 106.66C37.0006 106.66 37.81 106.86 38.5138 107.258C39.2175 107.657 39.7571 108.209 40.1325 108.912C40.5196 109.604 40.7131 110.39 40.7131 111.27ZM39.0592 110.936C39.0592 110.326 38.9243 109.804 38.6545 109.37C38.3847 108.924 38.0152 108.59 37.546 108.367C37.0886 108.132 36.5783 108.015 36.0153 108.015C35.2059 108.015 34.5139 108.273 33.9391 108.789C33.3761 109.305 33.0535 110.021 32.9714 110.936H39.0592ZM44.4277 108.384C44.7092 107.833 45.108 107.405 45.6241 107.1C46.1519 106.795 46.7912 106.643 47.5419 106.643V108.296H47.1196C45.325 108.296 44.4277 109.27 44.4277 111.217V116.46H42.8265V106.819H44.4277V108.384ZM54.088 106.643C55.261 106.643 56.2111 107 56.9383 107.716C57.6656 108.42 58.0292 109.44 58.0292 110.777V116.46H56.4457V111.006C56.4457 110.044 56.2052 109.311 55.7243 108.807C55.2434 108.291 54.5865 108.033 53.7537 108.033C52.9091 108.033 52.2347 108.296 51.7303 108.824C51.2376 109.352 50.9913 110.12 50.9913 111.129V116.46H49.3902V106.819H50.9913V108.191C51.308 107.698 51.7362 107.317 52.2757 107.047C52.827 106.777 53.4311 106.643 54.088 106.643ZM60.0464 111.604C60.0464 110.619 60.2458 109.757 60.6446 109.018C61.0435 108.267 61.5889 107.687 62.281 107.276C62.9847 106.865 63.7648 106.66 64.6211 106.66C65.4656 106.66 66.1987 106.842 66.8204 107.206C67.4421 107.569 67.9054 108.027 68.2104 108.578V106.819H69.8291V116.46H68.2104V114.666C67.8937 115.229 67.4186 115.698 66.7852 116.073C66.1635 116.437 65.4363 116.619 64.6035 116.619C63.7472 116.619 62.973 116.408 62.281 115.985C61.5889 115.563 61.0435 114.971 60.6446 114.208C60.2458 113.446 60.0464 112.578 60.0464 111.604ZM68.2104 111.622C68.2104 110.895 68.0638 110.261 67.7705 109.722C67.4773 109.182 67.0785 108.772 66.5741 108.49C66.0814 108.197 65.536 108.05 64.9378 108.05C64.3395 108.05 63.7941 108.191 63.3015 108.472C62.8088 108.754 62.4159 109.164 62.1226 109.704C61.8294 110.244 61.6827 110.877 61.6827 111.604C61.6827 112.343 61.8294 112.988 62.1226 113.54C62.4159 114.079 62.8088 114.496 63.3015 114.789C63.7941 115.07 64.3395 115.211 64.9378 115.211C65.536 115.211 66.0814 115.07 66.5741 114.789C67.0785 114.496 67.4773 114.079 67.7705 113.54C68.0638 112.988 68.2104 112.349 68.2104 111.622ZM74.4879 108.138V113.821C74.4879 114.29 74.5876 114.625 74.787 114.824C74.9864 115.012 75.3324 115.106 75.8251 115.106H77.0039V116.46H75.5611C74.6697 116.46 74.0011 116.255 73.5553 115.845C73.1096 115.434 72.8867 114.76 72.8867 113.821V108.138H71.6375V106.819H72.8867V104.39H74.4879V106.819H77.0039V108.138H74.4879ZM79.7708 105.253C79.4658 105.253 79.2078 105.147 78.9967 104.936C78.7855 104.725 78.6799 104.467 78.6799 104.162C78.6799 103.857 78.7855 103.599 78.9967 103.388C79.2078 103.176 79.4658 103.071 79.7708 103.071C80.0641 103.071 80.3104 103.176 80.5098 103.388C80.7209 103.599 80.8265 103.857 80.8265 104.162C80.8265 104.467 80.7209 104.725 80.5098 104.936C80.3104 105.147 80.0641 105.253 79.7708 105.253ZM80.545 106.819V116.46H78.9439V106.819H80.545ZM86.8632 114.982L89.8543 106.819H91.561L87.7781 116.46H85.913L82.1302 106.819H83.8545L86.8632 114.982ZM101.934 111.27C101.934 111.575 101.916 111.898 101.881 112.238H94.1746C94.2333 113.188 94.5558 113.933 95.1423 114.472C95.7405 115 96.4619 115.264 97.3065 115.264C97.9985 115.264 98.5733 115.106 99.0308 114.789C99.4999 114.461 99.8284 114.027 100.016 113.487H101.74C101.482 114.414 100.966 115.17 100.192 115.757C99.4178 116.331 98.456 116.619 97.3065 116.619C96.3915 116.619 95.5705 116.414 94.8432 116.003C94.1277 115.592 93.5646 115.012 93.1541 114.261C92.7436 113.499 92.5383 112.619 92.5383 111.622C92.5383 110.625 92.7377 109.751 93.1365 109C93.5353 108.25 94.0925 107.675 94.808 107.276C95.5353 106.865 96.3681 106.66 97.3065 106.66C98.2214 106.66 99.0308 106.86 99.7345 107.258C100.438 107.657 100.978 108.209 101.353 108.912C101.74 109.604 101.934 110.39 101.934 111.27ZM100.28 110.936C100.28 110.326 100.145 109.804 99.8753 109.37C99.6055 108.924 99.236 108.59 98.7668 108.367C98.3094 108.132 97.7991 108.015 97.2361 108.015C96.4267 108.015 95.7347 108.273 95.1599 108.789C94.5969 109.305 94.2743 110.021 94.1922 110.936H100.28ZM105.648 103.44V116.46H104.047V103.44H105.648ZM116.682 106.819L110.876 121H109.222L111.122 116.355L107.234 106.819H109.011L112.037 114.631L115.028 106.819H116.682ZM119.945 114.244L117.975 118.976H116.902L118.186 114.244H119.945ZM128.071 108.613C128.4 108.038 128.881 107.569 129.514 107.206C130.148 106.842 130.869 106.66 131.678 106.66C132.546 106.66 133.326 106.865 134.018 107.276C134.711 107.687 135.256 108.267 135.655 109.018C136.054 109.757 136.253 110.619 136.253 111.604C136.253 112.578 136.054 113.446 135.655 114.208C135.256 114.971 134.705 115.563 134.001 115.985C133.309 116.408 132.535 116.619 131.678 116.619C130.846 116.619 130.112 116.437 129.479 116.073C128.857 115.71 128.388 115.246 128.071 114.683V116.46H126.47V103.44H128.071V108.613ZM134.617 111.604C134.617 110.877 134.47 110.244 134.177 109.704C133.884 109.164 133.485 108.754 132.98 108.472C132.488 108.191 131.942 108.05 131.344 108.05C130.758 108.05 130.212 108.197 129.708 108.49C129.215 108.772 128.816 109.188 128.511 109.739C128.218 110.279 128.071 110.906 128.071 111.622C128.071 112.349 128.218 112.988 128.511 113.54C128.816 114.079 129.215 114.496 129.708 114.789C130.212 115.07 130.758 115.211 131.344 115.211C131.942 115.211 132.488 115.07 132.98 114.789C133.485 114.496 133.884 114.079 134.177 113.54C134.47 112.988 134.617 112.343 134.617 111.604ZM146.912 106.819V116.46H145.31V115.035C145.005 115.528 144.577 115.915 144.026 116.197C143.486 116.466 142.888 116.601 142.231 116.601C141.481 116.601 140.806 116.449 140.208 116.144C139.61 115.827 139.135 115.358 138.783 114.736C138.443 114.114 138.273 113.358 138.273 112.466V106.819H139.856V112.255C139.856 113.205 140.097 113.939 140.577 114.455C141.058 114.959 141.715 115.211 142.548 115.211C143.404 115.211 144.079 114.947 144.571 114.419C145.064 113.892 145.31 113.123 145.31 112.115V106.819H146.912ZM157.92 106.819L152.113 121H150.46L152.36 116.355L148.471 106.819H150.248L153.275 114.631L156.266 106.819H157.92ZM168.108 116.584C167.299 116.584 166.572 116.443 165.927 116.161C165.293 115.868 164.795 115.469 164.431 114.965C164.067 114.449 163.88 113.856 163.868 113.188H165.575C165.633 113.763 165.868 114.249 166.279 114.648C166.701 115.035 167.311 115.229 168.108 115.229C168.871 115.229 169.469 115.041 169.903 114.666C170.349 114.279 170.572 113.786 170.572 113.188C170.572 112.719 170.443 112.337 170.185 112.044C169.927 111.751 169.604 111.528 169.217 111.376C168.83 111.223 168.308 111.059 167.651 110.883C166.842 110.672 166.191 110.461 165.698 110.25C165.217 110.038 164.801 109.71 164.449 109.264C164.109 108.807 163.938 108.197 163.938 107.434C163.938 106.766 164.109 106.173 164.449 105.657C164.789 105.141 165.264 104.742 165.874 104.461C166.496 104.179 167.205 104.039 168.003 104.039C169.152 104.039 170.091 104.326 170.818 104.901C171.557 105.475 171.973 106.238 172.067 107.188H170.308C170.249 106.719 170.003 106.308 169.569 105.956C169.135 105.593 168.56 105.411 167.845 105.411C167.176 105.411 166.63 105.587 166.208 105.939C165.786 106.279 165.575 106.76 165.575 107.382C165.575 107.827 165.698 108.191 165.944 108.472C166.202 108.754 166.513 108.971 166.877 109.123C167.252 109.264 167.774 109.428 168.443 109.616C169.252 109.839 169.903 110.062 170.396 110.285C170.888 110.496 171.311 110.83 171.663 111.288C172.014 111.733 172.19 112.343 172.19 113.117C172.19 113.716 172.032 114.279 171.715 114.807C171.399 115.334 170.929 115.763 170.308 116.091C169.686 116.419 168.953 116.584 168.108 116.584ZM180.107 116.584C178.969 116.584 177.931 116.32 176.992 115.792C176.054 115.252 175.309 114.507 174.758 113.557C174.218 112.595 173.948 111.516 173.948 110.32C173.948 109.123 174.218 108.05 174.758 107.1C175.309 106.138 176.054 105.393 176.992 104.866C177.931 104.326 178.969 104.056 180.107 104.056C181.256 104.056 182.3 104.326 183.238 104.866C184.177 105.393 184.916 106.132 185.455 107.082C185.995 108.033 186.265 109.112 186.265 110.32C186.265 111.528 185.995 112.607 185.455 113.557C184.916 114.507 184.177 115.252 183.238 115.792C182.3 116.32 181.256 116.584 180.107 116.584ZM180.107 115.194C180.963 115.194 181.731 114.994 182.411 114.595C183.103 114.197 183.643 113.628 184.03 112.889C184.429 112.15 184.628 111.293 184.628 110.32C184.628 109.335 184.429 108.478 184.03 107.751C183.643 107.012 183.109 106.443 182.429 106.044C181.749 105.646 180.975 105.446 180.107 105.446C179.239 105.446 178.464 105.646 177.784 106.044C177.104 106.443 176.564 107.012 176.165 107.751C175.778 108.478 175.585 109.335 175.585 110.32C175.585 111.293 175.778 112.15 176.165 112.889C176.564 113.628 177.104 114.197 177.784 114.595C178.476 114.994 179.25 115.194 180.107 115.194ZM189.98 115.158H194.273V116.46H188.378V104.197H189.98V115.158ZM204.869 116.619C203.966 116.619 203.145 116.414 202.406 116.003C201.678 115.592 201.104 115.012 200.681 114.261C200.271 113.499 200.066 112.619 200.066 111.622C200.066 110.637 200.277 109.769 200.699 109.018C201.133 108.255 201.719 107.675 202.458 107.276C203.197 106.865 204.024 106.66 204.939 106.66C205.854 106.66 206.681 106.865 207.42 107.276C208.159 107.675 208.74 108.25 209.162 109C209.596 109.751 209.813 110.625 209.813 111.622C209.813 112.619 209.59 113.499 209.144 114.261C208.71 115.012 208.118 115.592 207.367 116.003C206.617 116.414 205.784 116.619 204.869 116.619ZM204.869 115.211C205.444 115.211 205.983 115.076 206.488 114.807C206.992 114.537 207.397 114.132 207.702 113.593C208.018 113.053 208.177 112.396 208.177 111.622C208.177 110.848 208.024 110.191 207.719 109.651C207.414 109.112 207.015 108.713 206.523 108.455C206.03 108.185 205.496 108.05 204.922 108.05C204.335 108.05 203.796 108.185 203.303 108.455C202.822 108.713 202.435 109.112 202.142 109.651C201.848 110.191 201.702 110.848 201.702 111.622C201.702 112.408 201.843 113.071 202.124 113.61C202.417 114.15 202.804 114.554 203.285 114.824C203.766 115.082 204.294 115.211 204.869 115.211ZM216.616 106.643C217.789 106.643 218.739 107 219.466 107.716C220.194 108.42 220.557 109.44 220.557 110.777V116.46H218.974V111.006C218.974 110.044 218.733 109.311 218.252 108.807C217.771 108.291 217.115 108.033 216.282 108.033C215.437 108.033 214.763 108.296 214.258 108.824C213.766 109.352 213.519 110.12 213.519 111.129V116.46H211.918V106.819H213.519V108.191C213.836 107.698 214.264 107.317 214.804 107.047C215.355 106.777 215.959 106.643 216.616 106.643ZM227.265 111.604C227.265 110.619 227.465 109.757 227.863 109.018C228.262 108.267 228.808 107.687 229.5 107.276C230.204 106.865 230.984 106.66 231.84 106.66C232.684 106.66 233.418 106.842 234.039 107.206C234.661 107.569 235.124 108.027 235.429 108.578V106.819H237.048V116.46H235.429V114.666C235.113 115.229 234.637 115.698 234.004 116.073C233.382 116.437 232.655 116.619 231.822 116.619C230.966 116.619 230.192 116.408 229.5 115.985C228.808 115.563 228.262 114.971 227.863 114.208C227.465 113.446 227.265 112.578 227.265 111.604ZM235.429 111.622C235.429 110.895 235.283 110.261 234.989 109.722C234.696 109.182 234.297 108.772 233.793 108.49C233.3 108.197 232.755 108.05 232.157 108.05C231.558 108.05 231.013 108.191 230.52 108.472C230.028 108.754 229.635 109.164 229.341 109.704C229.048 110.244 228.902 110.877 228.902 111.604C228.902 112.343 229.048 112.988 229.341 113.54C229.635 114.079 230.028 114.496 230.52 114.789C231.013 115.07 231.558 115.211 232.157 115.211C232.755 115.211 233.3 115.07 233.793 114.789C234.297 114.496 234.696 114.079 234.989 113.54C235.283 112.988 235.429 112.349 235.429 111.622ZM244.451 106.643C245.624 106.643 246.575 107 247.302 107.716C248.029 108.42 248.393 109.44 248.393 110.777V116.46H246.809V111.006C246.809 110.044 246.569 109.311 246.088 108.807C245.607 108.291 244.95 108.033 244.117 108.033C243.273 108.033 242.598 108.296 242.094 108.824C241.601 109.352 241.355 110.12 241.355 111.129V116.46H239.754V106.819H241.355V108.191C241.672 107.698 242.1 107.317 242.639 107.047C243.191 106.777 243.795 106.643 244.451 106.643ZM264.496 111.27C264.496 111.575 264.479 111.898 264.444 112.238H256.737C256.796 113.188 257.118 113.933 257.705 114.472C258.303 115 259.024 115.264 259.869 115.264C260.561 115.264 261.136 115.106 261.593 114.789C262.062 114.461 262.391 114.027 262.578 113.487H264.303C264.045 114.414 263.529 115.17 262.754 115.757C261.98 116.331 261.018 116.619 259.869 116.619C258.954 116.619 258.133 116.414 257.406 116.003C256.69 115.592 256.127 115.012 255.717 114.261C255.306 113.499 255.101 112.619 255.101 111.622C255.101 110.625 255.3 109.751 255.699 109C256.098 108.25 256.655 107.675 257.37 107.276C258.098 106.865 258.93 106.66 259.869 106.66C260.784 106.66 261.593 106.86 262.297 107.258C263.001 107.657 263.54 108.209 263.916 108.912C264.303 109.604 264.496 110.39 264.496 111.27ZM262.842 110.936C262.842 110.326 262.707 109.804 262.438 109.37C262.168 108.924 261.798 108.59 261.329 108.367C260.872 108.132 260.362 108.015 259.798 108.015C258.989 108.015 258.297 108.273 257.722 108.789C257.159 109.305 256.837 110.021 256.755 110.936H262.842ZM271.642 116.46L269.355 112.871L267.155 116.46H265.484L268.598 111.675L265.484 106.819H267.296L269.583 110.39L271.765 106.819H273.437L270.34 111.587L273.454 116.46H271.642ZM274.431 111.622C274.431 110.625 274.63 109.757 275.029 109.018C275.428 108.267 275.979 107.687 276.683 107.276C277.399 106.865 278.214 106.66 279.129 106.66C280.313 106.66 281.287 106.948 282.049 107.522C282.824 108.097 283.334 108.895 283.58 109.915H281.856C281.692 109.329 281.369 108.865 280.888 108.525C280.419 108.185 279.832 108.015 279.129 108.015C278.214 108.015 277.475 108.332 276.912 108.965C276.349 109.587 276.067 110.472 276.067 111.622C276.067 112.783 276.349 113.68 276.912 114.314C277.475 114.947 278.214 115.264 279.129 115.264C279.832 115.264 280.419 115.1 280.888 114.771C281.357 114.443 281.68 113.974 281.856 113.364H283.58C283.322 114.349 282.806 115.141 282.032 115.739C281.258 116.326 280.29 116.619 279.129 116.619C278.214 116.619 277.399 116.414 276.683 116.003C275.979 115.592 275.428 115.012 275.029 114.261C274.63 113.51 274.431 112.631 274.431 111.622ZM290.502 106.643C291.23 106.643 291.886 106.801 292.473 107.118C293.059 107.423 293.517 107.886 293.845 108.508C294.185 109.129 294.356 109.886 294.356 110.777V116.46H292.772V111.006C292.772 110.044 292.532 109.311 292.051 108.807C291.57 108.291 290.913 108.033 290.08 108.033C289.236 108.033 288.561 108.296 288.057 108.824C287.564 109.352 287.318 110.12 287.318 111.129V116.46H285.717V103.44H287.318V108.191C287.634 107.698 288.068 107.317 288.62 107.047C289.183 106.777 289.81 106.643 290.502 106.643ZM296.373 111.604C296.373 110.619 296.572 109.757 296.971 109.018C297.37 108.267 297.915 107.687 298.607 107.276C299.311 106.865 300.091 106.66 300.947 106.66C301.792 106.66 302.525 106.842 303.147 107.206C303.768 107.569 304.232 108.027 304.537 108.578V106.819H306.155V116.46H304.537V114.666C304.22 115.229 303.745 115.698 303.112 116.073C302.49 116.437 301.763 116.619 300.93 116.619C300.073 116.619 299.299 116.408 298.607 115.985C297.915 115.563 297.37 114.971 296.971 114.208C296.572 113.446 296.373 112.578 296.373 111.604ZM304.537 111.622C304.537 110.895 304.39 110.261 304.097 109.722C303.804 109.182 303.405 108.772 302.9 108.49C302.408 108.197 301.862 108.05 301.264 108.05C300.666 108.05 300.12 108.191 299.628 108.472C299.135 108.754 298.742 109.164 298.449 109.704C298.156 110.244 298.009 110.877 298.009 111.604C298.009 112.343 298.156 112.988 298.449 113.54C298.742 114.079 299.135 114.496 299.628 114.789C300.12 115.07 300.666 115.211 301.264 115.211C301.862 115.211 302.408 115.07 302.9 114.789C303.405 114.496 303.804 114.079 304.097 113.54C304.39 112.988 304.537 112.349 304.537 111.622ZM313.559 106.643C314.732 106.643 315.682 107 316.409 107.716C317.137 108.42 317.5 109.44 317.5 110.777V116.46H315.917V111.006C315.917 110.044 315.676 109.311 315.195 108.807C314.714 108.291 314.058 108.033 313.225 108.033C312.38 108.033 311.706 108.296 311.201 108.824C310.709 109.352 310.462 110.12 310.462 111.129V116.46H308.861V106.819H310.462V108.191C310.779 107.698 311.207 107.317 311.747 107.047C312.298 106.777 312.902 106.643 313.559 106.643ZM324.092 106.66C324.925 106.66 325.652 106.842 326.274 107.206C326.907 107.569 327.376 108.027 327.681 108.578V106.819H329.3V116.672C329.3 117.551 329.112 118.331 328.737 119.012C328.362 119.704 327.822 120.243 327.118 120.63C326.426 121.017 325.617 121.211 324.69 121.211C323.423 121.211 322.368 120.912 321.523 120.314C320.679 119.715 320.18 118.9 320.028 117.868H321.611C321.787 118.455 322.151 118.924 322.702 119.276C323.253 119.639 323.916 119.821 324.69 119.821C325.57 119.821 326.285 119.545 326.837 118.994C327.4 118.443 327.681 117.669 327.681 116.672V114.648C327.365 115.211 326.895 115.68 326.274 116.056C325.652 116.431 324.925 116.619 324.092 116.619C323.236 116.619 322.456 116.408 321.752 115.985C321.06 115.563 320.514 114.971 320.116 114.208C319.717 113.446 319.517 112.578 319.517 111.604C319.517 110.619 319.717 109.757 320.116 109.018C320.514 108.267 321.06 107.687 321.752 107.276C322.456 106.865 323.236 106.66 324.092 106.66ZM327.681 111.622C327.681 110.895 327.535 110.261 327.241 109.722C326.948 109.182 326.549 108.772 326.045 108.49C325.552 108.197 325.007 108.05 324.409 108.05C323.81 108.05 323.265 108.191 322.772 108.472C322.28 108.754 321.887 109.164 321.594 109.704C321.3 110.244 321.154 110.877 321.154 111.604C321.154 112.343 321.3 112.988 321.594 113.54C321.887 114.079 322.28 114.496 322.772 114.789C323.265 115.07 323.81 115.211 324.409 115.211C325.007 115.211 325.552 115.07 326.045 114.789C326.549 114.496 326.948 114.079 327.241 113.54C327.535 112.988 327.681 112.349 327.681 111.622ZM340.803 111.27C340.803 111.575 340.786 111.898 340.75 112.238H333.044C333.103 113.188 333.425 113.933 334.012 114.472C334.61 115 335.331 115.264 336.176 115.264C336.868 115.264 337.443 115.106 337.9 114.789C338.369 114.461 338.698 114.027 338.885 113.487H340.61C340.352 114.414 339.836 115.17 339.061 115.757C338.287 116.331 337.325 116.619 336.176 116.619C335.261 116.619 334.44 116.414 333.713 116.003C332.997 115.592 332.434 115.012 332.023 114.261C331.613 113.499 331.408 112.619 331.408 111.622C331.408 110.625 331.607 109.751 332.006 109C332.405 108.25 332.962 107.675 333.677 107.276C334.405 106.865 335.237 106.66 336.176 106.66C337.091 106.66 337.9 106.86 338.604 107.258C339.308 107.657 339.847 108.209 340.223 108.912C340.61 109.604 340.803 110.39 340.803 111.27ZM339.149 110.936C339.149 110.326 339.014 109.804 338.745 109.37C338.475 108.924 338.105 108.59 337.636 108.367C337.179 108.132 336.668 108.015 336.105 108.015C335.296 108.015 334.604 108.273 334.029 108.789C333.466 109.305 333.144 110.021 333.062 110.936H339.149ZM50.7679 137.604C50.7679 136.619 50.9674 135.757 51.3662 135.018C51.765 134.267 52.3104 133.687 53.0025 133.276C53.7063 132.865 54.4863 132.66 55.3426 132.66C56.1871 132.66 56.9202 132.842 57.5419 133.206C58.1636 133.569 58.6269 134.027 58.9319 134.578V132.819H60.5506V142.46H58.9319V140.666C58.6152 141.229 58.1401 141.698 57.5067 142.073C56.8851 142.437 56.1578 142.619 55.325 142.619C54.4687 142.619 53.6945 142.408 53.0025 141.985C52.3104 141.563 51.765 140.971 51.3662 140.208C50.9674 139.446 50.7679 138.578 50.7679 137.604ZM58.9319 137.622C58.9319 136.895 58.7853 136.261 58.492 135.722C58.1988 135.182 57.8 134.772 57.2956 134.49C56.8029 134.197 56.2575 134.05 55.6593 134.05C55.0611 134.05 54.5156 134.191 54.023 134.472C53.5303 134.754 53.1374 135.164 52.8441 135.704C52.5509 136.244 52.4043 136.877 52.4043 137.604C52.4043 138.343 52.5509 138.988 52.8441 139.54C53.1374 140.079 53.5303 140.496 54.023 140.789C54.5156 141.07 55.0611 141.211 55.6593 141.211C56.2575 141.211 56.8029 141.07 57.2956 140.789C57.8 140.496 58.1988 140.079 58.492 139.54C58.7853 138.988 58.9319 138.349 58.9319 137.622ZM67.9542 132.643C69.1272 132.643 70.0773 133 70.8045 133.716C71.5318 134.42 71.8954 135.44 71.8954 136.777V142.46H70.3119V137.006C70.3119 136.044 70.0714 135.311 69.5905 134.807C69.1096 134.291 68.4527 134.033 67.6199 134.033C66.7753 134.033 66.1009 134.296 65.5965 134.824C65.1038 135.352 64.8575 136.12 64.8575 137.129V142.46H63.2564V132.819H64.8575V134.191C65.1742 133.698 65.6023 133.317 66.1419 133.047C66.6932 132.777 67.2973 132.643 67.9542 132.643ZM73.9126 137.604C73.9126 136.619 74.112 135.757 74.5108 135.018C74.9096 134.267 75.4551 133.687 76.1471 133.276C76.8509 132.865 77.6368 132.66 78.5048 132.66C79.2555 132.66 79.9535 132.836 80.5986 133.188C81.2437 133.528 81.7364 133.98 82.0766 134.543V129.44H83.6953V142.46H82.0766V140.648C81.7599 141.223 81.2907 141.698 80.669 142.073C80.0473 142.437 79.3201 142.619 78.4872 142.619C77.631 142.619 76.8509 142.408 76.1471 141.985C75.4551 141.563 74.9096 140.971 74.5108 140.208C74.112 139.446 73.9126 138.578 73.9126 137.604ZM82.0766 137.622C82.0766 136.895 81.9299 136.261 81.6367 135.722C81.3435 135.182 80.9446 134.772 80.4403 134.49C79.9476 134.197 79.4022 134.05 78.8039 134.05C78.2057 134.05 77.6603 134.191 77.1676 134.472C76.675 134.754 76.282 135.164 75.9888 135.704C75.6955 136.244 75.5489 136.877 75.5489 137.604C75.5489 138.343 75.6955 138.988 75.9888 139.54C76.282 140.079 76.675 140.496 77.1676 140.789C77.6603 141.07 78.2057 141.211 78.8039 141.211C79.4022 141.211 79.9476 141.07 80.4403 140.789C80.9446 140.496 81.3435 140.079 81.6367 139.54C81.9299 138.988 82.0766 138.349 82.0766 137.622ZM94.5052 142.619C93.7662 142.619 93.1035 142.496 92.517 142.249C91.9305 141.991 91.4672 141.639 91.127 141.194C90.7868 140.736 90.5992 140.214 90.564 139.628H92.2179C92.2648 140.109 92.4877 140.502 92.8865 140.807C93.297 141.112 93.8307 141.264 94.4876 141.264C95.0975 141.264 95.5785 141.129 95.9304 140.859C96.2823 140.59 96.4582 140.249 96.4582 139.839C96.4582 139.417 96.2705 139.106 95.8952 138.906C95.5198 138.695 94.9392 138.49 94.1533 138.29C93.4378 138.103 92.8513 137.915 92.3938 137.727C91.9481 137.528 91.561 137.241 91.2326 136.865C90.9159 136.478 90.7575 135.974 90.7575 135.352C90.7575 134.86 90.9041 134.408 91.1974 133.997C91.4906 133.587 91.907 133.264 92.4466 133.03C92.9862 132.783 93.602 132.66 94.2941 132.66C95.3615 132.66 96.2236 132.93 96.8805 133.47C97.5374 134.009 97.8892 134.748 97.9362 135.686H96.335C96.2999 135.182 96.0946 134.777 95.7192 134.472C95.3556 134.167 94.863 134.015 94.2413 134.015C93.6665 134.015 93.209 134.138 92.8689 134.384C92.5287 134.631 92.3586 134.953 92.3586 135.352C92.3586 135.669 92.4583 135.933 92.6577 136.144C92.8689 136.343 93.1269 136.508 93.4319 136.637C93.7486 136.754 94.1826 136.889 94.7339 137.041C95.426 137.229 95.989 137.417 96.423 137.604C96.857 137.78 97.2265 138.05 97.5315 138.414C97.8482 138.777 98.0124 139.252 98.0241 139.839C98.0241 140.367 97.8775 140.842 97.5843 141.264C97.291 141.686 96.8746 142.021 96.335 142.267C95.8072 142.502 95.1973 142.619 94.5052 142.619ZM109.082 137.27C109.082 137.575 109.064 137.898 109.029 138.238H101.322C101.381 139.188 101.704 139.933 102.29 140.472C102.888 141 103.61 141.264 104.454 141.264C105.146 141.264 105.721 141.106 106.179 140.789C106.648 140.461 106.976 140.027 107.164 139.487H108.888C108.63 140.414 108.114 141.17 107.34 141.757C106.566 142.331 105.604 142.619 104.454 142.619C103.539 142.619 102.718 142.414 101.991 142.003C101.276 141.592 100.713 141.012 100.302 140.261C99.8914 139.499 99.6862 138.619 99.6862 137.622C99.6862 136.625 99.8856 135.751 100.284 135C100.683 134.25 101.24 133.675 101.956 133.276C102.683 132.865 103.516 132.66 104.454 132.66C105.369 132.66 106.179 132.86 106.882 133.258C107.586 133.657 108.126 134.209 108.501 134.912C108.888 135.604 109.082 136.39 109.082 137.27ZM107.428 136.936C107.428 136.326 107.293 135.804 107.023 135.37C106.753 134.924 106.384 134.59 105.915 134.367C105.457 134.132 104.947 134.015 104.384 134.015C103.575 134.015 102.883 134.273 102.308 134.789C101.745 135.305 101.422 136.021 101.34 136.936H107.428ZM115.893 132.643C117.066 132.643 118.016 133 118.743 133.716C119.471 134.42 119.834 135.44 119.834 136.777V142.46H118.251V137.006C118.251 136.044 118.01 135.311 117.529 134.807C117.048 134.291 116.392 134.033 115.559 134.033C114.714 134.033 114.04 134.296 113.535 134.824C113.043 135.352 112.796 136.12 112.796 137.129V142.46H111.195V132.819H112.796V134.191C113.113 133.698 113.541 133.317 114.081 133.047C114.632 132.777 115.236 132.643 115.893 132.643ZM121.851 137.604C121.851 136.619 122.051 135.757 122.45 135.018C122.848 134.267 123.394 133.687 124.086 133.276C124.79 132.865 125.576 132.66 126.444 132.66C127.194 132.66 127.892 132.836 128.537 133.188C129.183 133.528 129.675 133.98 130.015 134.543V129.44H131.634V142.46H130.015V140.648C129.699 141.223 129.229 141.698 128.608 142.073C127.986 142.437 127.259 142.619 126.426 142.619C125.57 142.619 124.79 142.408 124.086 141.985C123.394 141.563 122.848 140.971 122.45 140.208C122.051 139.446 121.851 138.578 121.851 137.604ZM130.015 137.622C130.015 136.895 129.869 136.261 129.576 135.722C129.282 135.182 128.883 134.772 128.379 134.49C127.886 134.197 127.341 134.05 126.743 134.05C126.145 134.05 125.599 134.191 125.106 134.472C124.614 134.754 124.221 135.164 123.928 135.704C123.634 136.244 123.488 136.877 123.488 137.604C123.488 138.343 123.634 138.988 123.928 139.54C124.221 140.079 124.614 140.496 125.106 140.789C125.599 141.07 126.145 141.211 126.743 141.211C127.341 141.211 127.886 141.07 128.379 140.789C128.883 140.496 129.282 140.079 129.576 139.54C129.869 138.988 130.015 138.349 130.015 137.622ZM139.858 131.253C139.553 131.253 139.295 131.147 139.083 130.936C138.872 130.725 138.767 130.467 138.767 130.162C138.767 129.857 138.872 129.599 139.083 129.388C139.295 129.176 139.553 129.071 139.858 129.071C140.151 129.071 140.397 129.176 140.597 129.388C140.808 129.599 140.913 129.857 140.913 130.162C140.913 130.467 140.808 130.725 140.597 130.936C140.397 131.147 140.151 131.253 139.858 131.253ZM140.632 132.819V142.46H139.031V132.819H140.632ZM145.314 134.138V139.821C145.314 140.29 145.413 140.625 145.613 140.824C145.812 141.012 146.158 141.106 146.651 141.106H147.83V142.46H146.387C145.495 142.46 144.827 142.255 144.381 141.845C143.935 141.434 143.712 140.76 143.712 139.821V134.138H142.463V132.819H143.712V130.39H145.314V132.819H147.83V134.138H145.314ZM156.413 134.138V139.821C156.413 140.29 156.513 140.625 156.713 140.824C156.912 141.012 157.258 141.106 157.751 141.106H158.929V142.46H157.487C156.595 142.46 155.927 142.255 155.481 141.845C155.035 141.434 154.812 140.76 154.812 139.821V134.138H153.563V132.819H154.812V130.39H156.413V132.819H158.929V134.138H156.413ZM165.075 142.619C164.171 142.619 163.35 142.414 162.611 142.003C161.884 141.592 161.309 141.012 160.887 140.261C160.476 139.499 160.271 138.619 160.271 137.622C160.271 136.637 160.482 135.769 160.905 135.018C161.339 134.255 161.925 133.675 162.664 133.276C163.403 132.865 164.23 132.66 165.145 132.66C166.06 132.66 166.887 132.865 167.626 133.276C168.365 133.675 168.945 134.25 169.368 135C169.802 135.751 170.019 136.625 170.019 137.622C170.019 138.619 169.796 139.499 169.35 140.261C168.916 141.012 168.324 141.592 167.573 142.003C166.822 142.414 165.989 142.619 165.075 142.619ZM165.075 141.211C165.649 141.211 166.189 141.076 166.693 140.807C167.198 140.537 167.602 140.132 167.907 139.593C168.224 139.053 168.382 138.396 168.382 137.622C168.382 136.848 168.23 136.191 167.925 135.651C167.62 135.112 167.221 134.713 166.728 134.455C166.236 134.185 165.702 134.05 165.127 134.05C164.541 134.05 164.001 134.185 163.509 134.455C163.028 134.713 162.641 135.112 162.347 135.651C162.054 136.191 161.908 136.848 161.908 137.622C161.908 138.408 162.048 139.071 162.33 139.61C162.623 140.15 163.01 140.554 163.491 140.824C163.972 141.082 164.5 141.211 165.075 141.211ZM185.119 132.819L179.313 147H177.659L179.559 142.355L175.671 132.819H177.448L180.474 140.631L183.465 132.819H185.119ZM190.934 142.619C190.031 142.619 189.21 142.414 188.471 142.003C187.744 141.592 187.169 141.012 186.746 140.261C186.336 139.499 186.131 138.619 186.131 137.622C186.131 136.637 186.342 135.769 186.764 135.018C187.198 134.255 187.785 133.675 188.524 133.276C189.263 132.865 190.089 132.66 191.004 132.66C191.919 132.66 192.746 132.865 193.485 133.276C194.224 133.675 194.805 134.25 195.227 135C195.661 135.751 195.878 136.625 195.878 137.622C195.878 138.619 195.655 139.499 195.21 140.261C194.776 141.012 194.183 141.592 193.432 142.003C192.682 142.414 191.849 142.619 190.934 142.619ZM190.934 141.211C191.509 141.211 192.048 141.076 192.553 140.807C193.057 140.537 193.462 140.132 193.767 139.593C194.083 139.053 194.242 138.396 194.242 137.622C194.242 136.848 194.089 136.191 193.784 135.651C193.479 135.112 193.081 134.713 192.588 134.455C192.095 134.185 191.562 134.05 190.987 134.05C190.4 134.05 189.861 134.185 189.368 134.455C188.887 134.713 188.5 135.112 188.207 135.651C187.914 136.191 187.767 136.848 187.767 137.622C187.767 138.408 187.908 139.071 188.189 139.61C188.482 140.15 188.87 140.554 189.35 140.824C189.831 141.082 190.359 141.211 190.934 141.211ZM206.534 132.819V142.46H204.933V141.035C204.628 141.528 204.2 141.915 203.649 142.197C203.109 142.466 202.511 142.601 201.854 142.601C201.103 142.601 200.429 142.449 199.831 142.144C199.233 141.827 198.758 141.358 198.406 140.736C198.065 140.114 197.895 139.358 197.895 138.466V132.819H199.479V138.255C199.479 139.205 199.719 139.939 200.2 140.455C200.681 140.959 201.338 141.211 202.171 141.211C203.027 141.211 203.702 140.947 204.194 140.419C204.687 139.892 204.933 139.123 204.933 138.115V132.819H206.534ZM210.839 134.384C211.12 133.833 211.519 133.405 212.035 133.1C212.563 132.795 213.202 132.643 213.953 132.643V134.296H213.531C211.736 134.296 210.839 135.27 210.839 137.217V142.46H209.238V132.819H210.839V134.384ZM228.691 133.786C228.691 134.807 228.34 135.657 227.636 136.337C226.944 137.006 225.882 137.34 224.451 137.34H222.093V142.46H220.492V130.197H224.451C225.835 130.197 226.885 130.531 227.601 131.2C228.328 131.868 228.691 132.731 228.691 133.786ZM224.451 136.021C225.343 136.021 225.999 135.827 226.422 135.44C226.844 135.053 227.055 134.502 227.055 133.786C227.055 132.273 226.187 131.517 224.451 131.517H222.093V136.021H224.451ZM235.467 132.643C236.194 132.643 236.851 132.801 237.438 133.118C238.024 133.423 238.482 133.886 238.81 134.508C239.15 135.129 239.32 135.886 239.32 136.777V142.46H237.737V137.006C237.737 136.044 237.496 135.311 237.016 134.807C236.535 134.291 235.878 134.033 235.045 134.033C234.2 134.033 233.526 134.296 233.021 134.824C232.529 135.352 232.283 136.12 232.283 137.129V142.46H230.681V129.44H232.283V134.191C232.599 133.698 233.033 133.317 233.585 133.047C234.148 132.777 234.775 132.643 235.467 132.643ZM241.338 137.604C241.338 136.619 241.537 135.757 241.936 135.018C242.335 134.267 242.88 133.687 243.572 133.276C244.276 132.865 245.056 132.66 245.912 132.66C246.757 132.66 247.49 132.842 248.112 133.206C248.733 133.569 249.197 134.027 249.502 134.578V132.819H251.12V142.46H249.502V140.666C249.185 141.229 248.71 141.698 248.076 142.073C247.455 142.437 246.727 142.619 245.895 142.619C245.038 142.619 244.264 142.408 243.572 141.985C242.88 141.563 242.335 140.971 241.936 140.208C241.537 139.446 241.338 138.578 241.338 137.604ZM249.502 137.622C249.502 136.895 249.355 136.261 249.062 135.722C248.768 135.182 248.37 134.772 247.865 134.49C247.373 134.197 246.827 134.05 246.229 134.05C245.631 134.05 245.085 134.191 244.593 134.472C244.1 134.754 243.707 135.164 243.414 135.704C243.121 136.244 242.974 136.877 242.974 137.604C242.974 138.343 243.121 138.988 243.414 139.54C243.707 140.079 244.1 140.496 244.593 140.789C245.085 141.07 245.631 141.211 246.229 141.211C246.827 141.211 247.373 141.07 247.865 140.789C248.37 140.496 248.768 140.079 249.062 139.54C249.355 138.988 249.502 138.349 249.502 137.622ZM258.524 132.643C259.697 132.643 260.647 133 261.374 133.716C262.101 134.42 262.465 135.44 262.465 136.777V142.46H260.882V137.006C260.882 136.044 260.641 135.311 260.16 134.807C259.679 134.291 259.022 134.033 258.19 134.033C257.345 134.033 256.671 134.296 256.166 134.824C255.673 135.352 255.427 136.12 255.427 137.129V142.46H253.826V132.819H255.427V134.191C255.744 133.698 256.172 133.317 256.712 133.047C257.263 132.777 257.867 132.643 258.524 132.643ZM267.034 134.138V139.821C267.034 140.29 267.133 140.625 267.333 140.824C267.532 141.012 267.878 141.106 268.371 141.106H269.55V142.46H268.107C267.215 142.46 266.547 142.255 266.101 141.845C265.655 141.434 265.432 140.76 265.432 139.821V134.138H264.183V132.819H265.432V130.39H267.034V132.819H269.55V134.138H267.034ZM275.695 142.619C274.791 142.619 273.97 142.414 273.231 142.003C272.504 141.592 271.929 141.012 271.507 140.261C271.097 139.499 270.891 138.619 270.891 137.622C270.891 136.637 271.102 135.769 271.525 135.018C271.959 134.255 272.545 133.675 273.284 133.276C274.023 132.865 274.85 132.66 275.765 132.66C276.68 132.66 277.507 132.865 278.246 133.276C278.985 133.675 279.566 134.25 279.988 135C280.422 135.751 280.639 136.625 280.639 137.622C280.639 138.619 280.416 139.499 279.97 140.261C279.536 141.012 278.944 141.592 278.193 142.003C277.442 142.414 276.61 142.619 275.695 142.619ZM275.695 141.211C276.269 141.211 276.809 141.076 277.313 140.807C277.818 140.537 278.222 140.132 278.527 139.593C278.844 139.053 279.002 138.396 279.002 137.622C279.002 136.848 278.85 136.191 278.545 135.651C278.24 135.112 277.841 134.713 277.349 134.455C276.856 134.185 276.322 134.05 275.747 134.05C275.161 134.05 274.621 134.185 274.129 134.455C273.648 134.713 273.261 135.112 272.967 135.651C272.674 136.191 272.528 136.848 272.528 137.622C272.528 138.408 272.668 139.071 272.95 139.61C273.243 140.15 273.63 140.554 274.111 140.824C274.592 141.082 275.12 141.211 275.695 141.211ZM294.339 132.643C295.09 132.643 295.758 132.801 296.345 133.118C296.931 133.423 297.395 133.886 297.735 134.508C298.075 135.129 298.245 135.886 298.245 136.777V142.46H296.661V137.006C296.661 136.044 296.421 135.311 295.94 134.807C295.471 134.291 294.832 134.033 294.022 134.033C293.189 134.033 292.527 134.302 292.034 134.842C291.541 135.37 291.295 136.138 291.295 137.147V142.46H289.712V137.006C289.712 136.044 289.471 135.311 288.99 134.807C288.521 134.291 287.882 134.033 287.072 134.033C286.239 134.033 285.577 134.302 285.084 134.842C284.591 135.37 284.345 136.138 284.345 137.147V142.46H282.744V132.819H284.345V134.209C284.662 133.704 285.084 133.317 285.612 133.047C286.152 132.777 286.744 132.643 287.389 132.643C288.198 132.643 288.914 132.824 289.536 133.188C290.157 133.552 290.621 134.085 290.926 134.789C291.195 134.109 291.641 133.581 292.263 133.206C292.884 132.83 293.576 132.643 294.339 132.643ZM125.199 158.819L122.19 168.46H120.537L118.214 160.807L115.892 168.46H114.238L111.211 158.819H112.848L115.065 166.912L117.457 158.819H119.094L121.434 166.93L123.616 158.819H125.199ZM126.19 163.604C126.19 162.619 126.389 161.757 126.788 161.018C127.187 160.267 127.732 159.687 128.425 159.276C129.128 158.865 129.908 158.66 130.765 158.66C131.609 158.66 132.342 158.842 132.964 159.206C133.586 159.569 134.049 160.027 134.354 160.578V158.819H135.973V168.46H134.354V166.666C134.037 167.229 133.562 167.698 132.929 168.073C132.307 168.437 131.58 168.619 130.747 168.619C129.891 168.619 129.117 168.408 128.425 167.985C127.732 167.563 127.187 166.971 126.788 166.208C126.389 165.446 126.19 164.578 126.19 163.604ZM134.354 163.622C134.354 162.895 134.207 162.261 133.914 161.722C133.621 161.182 133.222 160.772 132.718 160.49C132.225 160.197 131.68 160.05 131.081 160.05C130.483 160.05 129.938 160.191 129.445 160.472C128.952 160.754 128.559 161.164 128.266 161.704C127.973 162.244 127.826 162.877 127.826 163.604C127.826 164.343 127.973 164.988 128.266 165.54C128.559 166.079 128.952 166.496 129.445 166.789C129.938 167.07 130.483 167.211 131.081 167.211C131.68 167.211 132.225 167.07 132.718 166.789C133.222 166.496 133.621 166.079 133.914 165.54C134.207 164.988 134.354 164.349 134.354 163.622ZM140.28 155.44V168.46H138.678V155.44H140.28ZM144.609 155.44V168.46H143.008V155.44H144.609ZM156.136 163.27C156.136 163.575 156.118 163.898 156.083 164.238H148.376C148.435 165.188 148.758 165.933 149.344 166.472C149.942 167 150.664 167.264 151.508 167.264C152.2 167.264 152.775 167.106 153.233 166.789C153.702 166.461 154.03 166.027 154.218 165.487H155.942C155.684 166.414 155.168 167.17 154.394 167.757C153.62 168.331 152.658 168.619 151.508 168.619C150.593 168.619 149.772 168.414 149.045 168.003C148.329 167.592 147.766 167.012 147.356 166.261C146.945 165.499 146.74 164.619 146.74 163.622C146.74 162.625 146.94 161.751 147.338 161C147.737 160.25 148.294 159.675 149.01 159.276C149.737 158.865 150.57 158.66 151.508 158.66C152.423 158.66 153.233 158.86 153.936 159.258C154.64 159.657 155.18 160.209 155.555 160.912C155.942 161.604 156.136 162.39 156.136 163.27ZM154.482 162.936C154.482 162.326 154.347 161.804 154.077 161.37C153.807 160.924 153.438 160.59 152.969 160.367C152.511 160.132 152.001 160.015 151.438 160.015C150.629 160.015 149.936 160.273 149.362 160.789C148.799 161.305 148.476 162.021 148.394 162.936H154.482ZM160.202 160.138V165.821C160.202 166.29 160.302 166.625 160.501 166.824C160.701 167.012 161.047 167.106 161.539 167.106H162.718V168.46H161.275C160.384 168.46 159.715 168.255 159.27 167.845C158.824 167.434 158.601 166.76 158.601 165.821V160.138H157.352V158.819H158.601V156.39H160.202V158.819H162.718V160.138H160.202ZM168.751 163.604C168.751 162.619 168.95 161.757 169.349 161.018C169.748 160.267 170.293 159.687 170.985 159.276C171.689 158.865 172.469 158.66 173.325 158.66C174.17 158.66 174.903 158.842 175.525 159.206C176.146 159.569 176.61 160.027 176.915 160.578V158.819H178.533V168.46H176.915V166.666C176.598 167.229 176.123 167.698 175.489 168.073C174.868 168.437 174.141 168.619 173.308 168.619C172.451 168.619 171.677 168.408 170.985 167.985C170.293 167.563 169.748 166.971 169.349 166.208C168.95 165.446 168.751 164.578 168.751 163.604ZM176.915 163.622C176.915 162.895 176.768 162.261 176.475 161.722C176.182 161.182 175.783 160.772 175.278 160.49C174.786 160.197 174.24 160.05 173.642 160.05C173.044 160.05 172.498 160.191 172.006 160.472C171.513 160.754 171.12 161.164 170.827 161.704C170.534 162.244 170.387 162.877 170.387 163.604C170.387 164.343 170.534 164.988 170.827 165.54C171.12 166.079 171.513 166.496 172.006 166.789C172.498 167.07 173.044 167.211 173.642 167.211C174.24 167.211 174.786 167.07 175.278 166.789C175.783 166.496 176.182 166.079 176.475 165.54C176.768 164.988 176.915 164.349 176.915 163.622ZM180.641 163.604C180.641 162.619 180.84 161.757 181.239 161.018C181.638 160.267 182.183 159.687 182.875 159.276C183.579 158.865 184.365 158.66 185.233 158.66C185.984 158.66 186.682 158.836 187.327 159.188C187.972 159.528 188.465 159.98 188.805 160.543V155.44H190.424V168.46H188.805V166.648C188.488 167.223 188.019 167.698 187.397 168.073C186.776 168.437 186.048 168.619 185.216 168.619C184.359 168.619 183.579 168.408 182.875 167.985C182.183 167.563 181.638 166.971 181.239 166.208C180.84 165.446 180.641 164.578 180.641 163.604ZM188.805 163.622C188.805 162.895 188.658 162.261 188.365 161.722C188.072 161.182 187.673 160.772 187.169 160.49C186.676 160.197 186.13 160.05 185.532 160.05C184.934 160.05 184.389 160.191 183.896 160.472C183.403 160.754 183.01 161.164 182.717 161.704C182.424 162.244 182.277 162.877 182.277 163.604C182.277 164.343 182.424 164.988 182.717 165.54C183.01 166.079 183.403 166.496 183.896 166.789C184.389 167.07 184.934 167.211 185.532 167.211C186.13 167.211 186.676 167.07 187.169 166.789C187.673 166.496 188.072 166.079 188.365 165.54C188.658 164.988 188.805 164.349 188.805 163.622ZM192.531 163.604C192.531 162.619 192.731 161.757 193.129 161.018C193.528 160.267 194.074 159.687 194.766 159.276C195.469 158.865 196.255 158.66 197.123 158.66C197.874 158.66 198.572 158.836 199.217 159.188C199.862 159.528 200.355 159.98 200.695 160.543V155.44H202.314V168.46H200.695V166.648C200.378 167.223 199.909 167.698 199.287 168.073C198.666 168.437 197.939 168.619 197.106 168.619C196.249 168.619 195.469 168.408 194.766 167.985C194.074 167.563 193.528 166.971 193.129 166.208C192.731 165.446 192.531 164.578 192.531 163.604ZM200.695 163.622C200.695 162.895 200.548 162.261 200.255 161.722C199.962 161.182 199.563 160.772 199.059 160.49C198.566 160.197 198.021 160.05 197.422 160.05C196.824 160.05 196.279 160.191 195.786 160.472C195.293 160.754 194.901 161.164 194.607 161.704C194.314 162.244 194.167 162.877 194.167 163.604C194.167 164.343 194.314 164.988 194.607 165.54C194.901 166.079 195.293 166.496 195.786 166.789C196.279 167.07 196.824 167.211 197.422 167.211C198.021 167.211 198.566 167.07 199.059 166.789C199.563 166.496 199.962 166.079 200.255 165.54C200.548 164.988 200.695 164.349 200.695 163.622ZM206.621 160.384C206.902 159.833 207.301 159.405 207.817 159.1C208.345 158.795 208.984 158.643 209.735 158.643V160.296H209.313C207.518 160.296 206.621 161.27 206.621 163.217V168.46H205.02V158.819H206.621V160.384ZM220.381 163.27C220.381 163.575 220.363 163.898 220.328 164.238H212.621C212.68 165.188 213.002 165.933 213.589 166.472C214.187 167 214.909 167.264 215.753 167.264C216.445 167.264 217.02 167.106 217.477 166.789C217.947 166.461 218.275 166.027 218.463 165.487H220.187C219.929 166.414 219.413 167.17 218.639 167.757C217.865 168.331 216.903 168.619 215.753 168.619C214.838 168.619 214.017 168.414 213.29 168.003C212.574 167.592 212.011 167.012 211.601 166.261C211.19 165.499 210.985 164.619 210.985 163.622C210.985 162.625 211.184 161.751 211.583 161C211.982 160.25 212.539 159.675 213.255 159.276C213.982 158.865 214.815 158.66 215.753 158.66C216.668 158.66 217.477 158.86 218.181 159.258C218.885 159.657 219.425 160.209 219.8 160.912C220.187 161.604 220.381 162.39 220.381 163.27ZM218.727 162.936C218.727 162.326 218.592 161.804 218.322 161.37C218.052 160.924 217.683 160.59 217.214 160.367C216.756 160.132 216.246 160.015 215.683 160.015C214.873 160.015 214.181 160.273 213.607 160.789C213.044 161.305 212.721 162.021 212.639 162.936H218.727ZM225.907 168.619C225.168 168.619 224.506 168.496 223.919 168.249C223.333 167.991 222.869 167.639 222.529 167.194C222.189 166.736 222.001 166.214 221.966 165.628H223.62C223.667 166.109 223.89 166.502 224.289 166.807C224.699 167.112 225.233 167.264 225.89 167.264C226.5 167.264 226.981 167.129 227.333 166.859C227.684 166.59 227.86 166.249 227.86 165.839C227.86 165.417 227.673 165.106 227.297 164.906C226.922 164.695 226.341 164.49 225.555 164.29C224.84 164.103 224.253 163.915 223.796 163.727C223.35 163.528 222.963 163.241 222.635 162.865C222.318 162.478 222.16 161.974 222.16 161.352C222.16 160.86 222.306 160.408 222.6 159.997C222.893 159.587 223.309 159.264 223.849 159.03C224.388 158.783 225.004 158.66 225.696 158.66C226.764 158.66 227.626 158.93 228.283 159.47C228.94 160.009 229.291 160.748 229.338 161.686H227.737C227.702 161.182 227.497 160.777 227.121 160.472C226.758 160.167 226.265 160.015 225.643 160.015C225.069 160.015 224.611 160.138 224.271 160.384C223.931 160.631 223.761 160.953 223.761 161.352C223.761 161.669 223.861 161.933 224.06 162.144C224.271 162.343 224.529 162.508 224.834 162.637C225.151 162.754 225.585 162.889 226.136 163.041C226.828 163.229 227.391 163.417 227.825 163.604C228.259 163.78 228.629 164.05 228.934 164.414C229.25 164.777 229.415 165.252 229.426 165.839C229.426 166.367 229.28 166.842 228.986 167.264C228.693 167.686 228.277 168.021 227.737 168.267C227.209 168.502 226.599 168.619 225.907 168.619ZM235.1 168.619C234.361 168.619 233.698 168.496 233.112 168.249C232.525 167.991 232.062 167.639 231.722 167.194C231.382 166.736 231.194 166.214 231.159 165.628H232.813C232.86 166.109 233.082 166.502 233.481 166.807C233.892 167.112 234.425 167.264 235.082 167.264C235.692 167.264 236.173 167.129 236.525 166.859C236.877 166.59 237.053 166.249 237.053 165.839C237.053 165.417 236.865 165.106 236.49 164.906C236.115 164.695 235.534 164.49 234.748 164.29C234.033 164.103 233.446 163.915 232.989 163.727C232.543 163.528 232.156 163.241 231.827 162.865C231.511 162.478 231.352 161.974 231.352 161.352C231.352 160.86 231.499 160.408 231.792 159.997C232.085 159.587 232.502 159.264 233.041 159.03C233.581 158.783 234.197 158.66 234.889 158.66C235.956 158.66 236.818 158.93 237.475 159.47C238.132 160.009 238.484 160.748 238.531 161.686H236.93C236.895 161.182 236.689 160.777 236.314 160.472C235.95 160.167 235.458 160.015 234.836 160.015C234.261 160.015 233.804 160.138 233.464 160.384C233.123 160.631 232.953 160.953 232.953 161.352C232.953 161.669 233.053 161.933 233.253 162.144C233.464 162.343 233.722 162.508 234.027 162.637C234.343 162.754 234.777 162.889 235.329 163.041C236.021 163.229 236.584 163.417 237.018 163.604C237.452 163.78 237.821 164.05 238.126 164.414C238.443 164.777 238.607 165.252 238.619 165.839C238.619 166.367 238.472 166.842 238.179 167.264C237.886 167.686 237.469 168.021 236.93 168.267C236.402 168.502 235.792 168.619 235.1 168.619ZM241.389 168.566C241.084 168.566 240.826 168.46 240.615 168.249C240.404 168.038 240.299 167.78 240.299 167.475C240.299 167.17 240.404 166.912 240.615 166.701C240.826 166.49 241.084 166.384 241.389 166.384C241.683 166.384 241.929 166.49 242.128 166.701C242.34 166.912 242.445 167.17 242.445 167.475C242.445 167.78 242.34 168.038 242.128 168.249C241.929 168.46 241.683 168.566 241.389 168.566Z" fill="white"/>
</svg>
