<svg width="367" height="120" viewBox="0 0 367 120" fill="none" xmlns="http://www.w3.org/2000/svg">
<path d="M47.8407 8.90017C50.2114 8.90017 51.9801 9.40949 53.1469 10.4281C54.3137 11.4283 54.8971 12.7432 54.8971 14.3731C54.8971 15.651 54.5453 16.8548 53.8415 17.9846C53.1562 19.0959 52.0635 20.1978 50.5633 21.2906C49.0816 22.3648 47.1462 23.4945 44.757 24.6799L45.1737 24.0687C48.4149 23.9761 50.7207 24.1335 52.0912 24.541C53.4803 24.9484 54.1748 25.5874 54.1748 26.4579C54.1748 27.0505 53.9341 27.5136 53.4525 27.8469C52.9895 28.1803 52.2672 28.347 51.2856 28.347C50.6003 28.347 49.8317 28.31 48.9798 28.2359C48.1278 28.1803 47.2666 28.097 46.3961 27.9858C45.5256 27.8562 44.7107 27.708 43.9514 27.5413C43.1364 27.3561 42.5438 27.1154 42.1734 26.819C41.8029 26.5042 41.6177 26.0597 41.6177 25.4855C41.6177 25.0781 41.7659 24.6614 42.0622 24.2354C42.3586 23.8094 42.8494 23.3001 43.5346 22.7074C44.2199 22.0962 45.1552 21.3276 46.3405 20.4016C47.4518 19.5311 48.3037 18.8088 48.8964 18.2346C49.5076 17.6605 49.9336 17.1512 50.1743 16.7067C50.4151 16.2437 50.5355 15.7806 50.5355 15.3176C50.5355 14.6138 50.2855 14.0675 49.7854 13.6785C49.3039 13.2896 48.5538 13.0951 47.5351 13.0951C47.0536 13.0951 46.5721 13.1599 46.0905 13.2896C45.6275 13.4192 45.1552 13.5489 44.6737 13.6785C44.2107 13.8082 43.7384 13.873 43.2568 13.873C42.7568 13.873 42.3771 13.7619 42.1178 13.5396C41.8585 13.3174 41.7289 13.0025 41.7289 12.5951C41.7289 11.9839 41.9789 11.4005 42.479 10.8448C42.9975 10.2707 43.7106 9.80769 44.6181 9.45579C45.5441 9.08537 46.6184 8.90017 47.8407 8.90017ZM58.8232 22.0129C59.564 22.0129 60.1567 22.2722 60.6012 22.7908C61.0642 23.2908 61.2957 24.0317 61.2957 25.0133C61.2957 25.9208 61.0735 26.6894 60.629 27.3191C60.203 27.9488 59.5085 28.2637 58.5454 28.2637C57.7675 28.2637 57.1934 28.0044 56.8229 27.4858C56.471 26.9672 56.2951 26.2356 56.2951 25.2911C56.2951 24.7354 56.3692 24.2076 56.5174 23.7075C56.6655 23.2075 56.9248 22.8 57.2952 22.4852C57.6656 22.1703 58.175 22.0129 58.8232 22.0129ZM81.9871 28.2914C79.8943 28.2914 78.1533 27.9025 76.7642 27.1246C75.3752 26.3282 74.338 25.217 73.6528 23.7909C72.9675 22.3648 72.6248 20.6979 72.6248 18.7903C72.6248 16.6789 73.0045 14.8361 73.7639 13.2618C74.5417 11.669 75.6623 10.4374 77.1254 9.56692C78.5885 8.69644 80.348 8.2612 82.4038 8.2612C84.33 8.2612 85.8672 8.60383 87.0155 9.2891C88.1638 9.95585 88.7379 10.8078 88.7379 11.845C88.7379 12.4562 88.5435 12.947 88.1545 13.3174C87.7656 13.6693 87.2007 13.8452 86.4599 13.8452C85.9783 13.8452 85.5061 13.7434 85.043 13.5396C84.58 13.3359 84.08 13.1414 83.5429 12.9562C83.0243 12.7525 82.4038 12.6506 81.6815 12.6506C80.7555 12.6506 79.8943 12.8266 79.0979 13.1785C78.32 13.5304 77.6903 14.123 77.2087 14.9565C76.7457 15.7714 76.5142 16.8826 76.5142 18.2902C76.5142 20.4201 76.9772 21.9295 77.9033 22.8185C78.8478 23.7075 80.0887 24.152 81.626 24.152C82.1631 24.152 82.7279 24.1057 83.3206 24.0131C83.9133 23.902 84.4689 23.8001 84.9875 23.7075C85.5061 23.5964 85.9228 23.5409 86.2376 23.5409C86.8673 23.5409 87.3674 23.6983 87.7378 24.0131C88.1082 24.3095 88.2934 24.754 88.2934 25.3466C88.2934 26.1986 87.7563 26.9024 86.6821 27.458C85.6079 28.0136 84.0429 28.2914 81.9871 28.2914ZM90.9997 15.4565C90.9997 13.6785 91.1664 12.4006 91.4998 11.6227C91.8331 10.8263 92.3054 10.4281 92.9166 10.4281C93.3982 10.4281 93.7778 10.6319 94.0556 11.0393C94.3335 11.4283 94.5372 11.9191 94.6668 12.5117C94.7965 13.0859 94.8613 13.6693 94.8613 14.2619L94.7224 14.2064C95.0372 13.2063 95.5188 12.345 96.167 11.6227C96.8338 10.9004 97.6302 10.5393 98.5562 10.5393C99.6489 10.5393 100.455 10.993 100.973 11.9005C101.492 12.7895 101.751 13.9008 101.751 15.2343C101.751 17.0123 101.547 18.2532 101.14 18.957C100.732 19.6607 100.186 20.0126 99.5008 20.0126C99.0007 20.0126 98.6303 19.8089 98.3895 19.4015C98.1673 18.994 98.0932 18.2717 98.1673 17.2345C98.2413 16.1418 98.1765 15.3824 97.9728 14.9565C97.7691 14.5305 97.4449 14.3175 97.0004 14.3175C96.4633 14.3175 96.0188 14.6601 95.667 15.3454C95.3336 16.0122 95.1669 16.8363 95.1669 17.8179C95.1669 18.2069 95.2132 18.6977 95.3058 19.2903C95.3984 19.883 95.5003 20.5312 95.6114 21.235C95.7225 21.9203 95.8244 22.6056 95.917 23.2908C96.0096 23.9761 96.0559 24.6058 96.0559 25.1799C96.0559 26.1986 95.8985 26.9302 95.5836 27.3747C95.2688 27.8192 94.8243 28.0414 94.2501 28.0414C93.6019 28.0414 93.1018 27.8377 92.7499 27.4302C92.398 27.0042 92.1295 26.319 91.9443 25.3744C91.7961 24.5225 91.6479 23.5131 91.4998 22.3463C91.3516 21.1795 91.2312 19.9849 91.1386 18.7625C91.046 17.5401 90.9997 16.4381 90.9997 15.4565ZM111.991 28.2081C109.935 28.2081 108.296 27.9025 107.074 27.2913C105.851 26.6801 104.971 25.8004 104.434 24.6521C103.897 23.5038 103.629 22.1333 103.629 20.5405C103.629 18.5217 103.999 16.8085 104.74 15.401C105.499 13.9749 106.536 12.8821 107.851 12.1228C109.185 11.3634 110.694 10.9838 112.38 10.9838C114.361 10.9838 115.815 11.4468 116.741 12.3728C117.667 13.2803 118.13 14.4749 118.13 15.9566C118.13 17.1419 117.816 18.1698 117.186 19.0403C116.575 19.8923 115.723 20.5497 114.63 21.0128C113.537 21.4758 112.278 21.7073 110.852 21.7073C110.055 21.7073 109.287 21.6054 108.546 21.4017C107.805 21.198 107.138 20.9202 106.546 20.5683L107.212 19.3459C107.157 19.7904 107.129 20.2349 107.129 20.6794C107.129 21.9758 107.537 22.9111 108.351 23.4853C109.166 24.0409 110.324 24.3187 111.824 24.3187C112.991 24.3187 113.926 24.2169 114.63 24.0131C115.334 23.8094 115.926 23.6149 116.408 23.4297C116.89 23.226 117.362 23.1241 117.825 23.1241C118.084 23.1241 118.316 23.1982 118.519 23.3464C118.742 23.476 118.918 23.6705 119.047 23.9298C119.195 24.1891 119.269 24.5039 119.269 24.8743C119.269 25.43 118.992 25.9671 118.436 26.4857C117.88 26.9857 117.056 27.4024 115.963 27.7358C114.889 28.0507 113.565 28.2081 111.991 28.2081ZM110.379 19.1236C111.694 19.1236 112.75 18.8458 113.547 18.2902C114.343 17.7346 114.741 17.0493 114.741 16.2344C114.741 15.5862 114.519 15.0583 114.074 14.6509C113.648 14.2249 112.972 14.0119 112.046 14.0119C111.176 14.0119 110.389 14.1786 109.685 14.512C109 14.8268 108.463 15.2435 108.074 15.7621C107.685 16.2807 107.49 16.8456 107.49 17.4568C107.49 17.9939 107.74 18.4106 108.24 18.7069C108.759 18.9847 109.472 19.1236 110.379 19.1236ZM133.851 28.2637C133.222 28.2637 132.786 28.0229 132.546 27.5413C132.323 27.0413 132.194 26.2541 132.157 25.1799L132.434 25.3188C131.397 27.3376 129.434 28.347 126.545 28.347C125.23 28.347 124.137 28.1155 123.267 27.6525C122.396 27.1709 121.748 26.5412 121.322 25.7633C120.915 24.967 120.711 24.1057 120.711 23.1797C120.711 21.5869 121.266 20.3275 122.378 19.4015C123.489 18.4569 124.961 17.9846 126.795 17.9846C127.999 17.9846 129.045 18.1606 129.934 18.5125C130.823 18.8644 131.583 19.3552 132.212 19.9849L131.74 19.9293C131.61 18.0587 131.203 16.7252 130.518 15.9288C129.851 15.1139 128.897 14.7064 127.656 14.7064C126.934 14.7064 126.267 14.8176 125.656 15.0398C125.045 15.2621 124.48 15.4936 123.961 15.7343C123.461 15.9566 122.989 16.0677 122.544 16.0677C122.1 16.0677 121.748 15.9195 121.489 15.6232C121.248 15.3269 121.128 14.9472 121.128 14.4842C121.128 13.8174 121.442 13.1877 122.072 12.5951C122.72 12.0024 123.572 11.5209 124.628 11.1504C125.684 10.78 126.832 10.5948 128.073 10.5948C129.573 10.5948 130.86 10.956 131.934 11.6783C133.009 12.4006 133.824 13.4563 134.379 14.8453C134.861 16.0307 135.203 17.3549 135.407 18.818C135.611 20.2812 135.713 21.8462 135.713 23.5131C135.713 24.7725 135.648 25.7448 135.518 26.4301C135.389 27.1154 135.185 27.5969 134.907 27.8747C134.648 28.134 134.296 28.2637 133.851 28.2637ZM127.712 25.1522C128.323 25.1522 128.943 25.0688 129.573 24.9021C130.203 24.7169 130.731 24.4484 131.157 24.0965C131.583 23.7446 131.796 23.3093 131.796 22.7908C131.796 22.3463 131.61 21.9851 131.24 21.7073C130.888 21.411 130.416 21.1887 129.823 21.0405C129.249 20.8924 128.628 20.8183 127.962 20.8183C126.832 20.8183 125.971 21.0128 125.378 21.4017C124.804 21.7906 124.517 22.3092 124.517 22.9574C124.517 23.6612 124.785 24.2076 125.322 24.5965C125.878 24.967 126.675 25.1522 127.712 25.1522ZM142.955 11.2616H142.4C142.344 10.4467 142.363 9.67804 142.455 8.95573C142.548 8.2149 142.742 7.62223 143.039 7.17773C143.353 6.71471 143.798 6.4832 144.372 6.4832C144.891 6.4832 145.27 6.64989 145.511 6.98327C145.752 7.31664 145.872 7.77966 145.872 8.37232C145.872 9.53914 145.65 10.5393 145.206 11.3727L144.706 11.3171C145.706 10.9652 146.835 10.7893 148.095 10.7893C148.891 10.7893 149.521 10.9467 149.984 11.2616C150.465 11.5579 150.706 12.0672 150.706 12.7895C150.706 13.4748 150.428 13.9934 149.873 14.3453C149.317 14.6972 148.623 14.8731 147.789 14.8731C147.289 14.8731 146.752 14.8546 146.178 14.8176C145.622 14.762 145.076 14.6787 144.539 14.5675L145.011 13.9841C145.178 14.6879 145.335 15.4936 145.483 16.4011C145.65 17.2901 145.798 18.2161 145.928 19.1792C146.058 20.1423 146.159 21.0776 146.233 21.9851C146.308 22.8926 146.345 23.7075 146.345 24.4298C146.345 25.6152 146.159 26.5505 145.789 27.2357C145.419 27.921 144.872 28.2637 144.15 28.2637C143.576 28.2637 143.122 28.0877 142.789 27.7358C142.474 27.3839 142.242 26.9394 142.094 26.4023C141.964 25.8467 141.881 25.2725 141.844 24.6799C141.826 24.0872 141.816 23.5501 141.816 23.0686C141.816 22.2537 141.853 21.3369 141.927 20.3182C142.001 19.2811 142.103 18.2161 142.233 17.1234C142.381 16.0307 142.548 14.975 142.733 13.9563L143.289 14.4286C142.344 14.9102 141.177 15.1509 139.788 15.1509C138.936 15.1509 138.279 14.9935 137.816 14.6787C137.353 14.3638 137.121 13.873 137.121 13.2063C137.121 12.4839 137.381 11.9283 137.899 11.5394C138.418 11.1319 139.112 10.9282 139.983 10.9282C140.557 10.9282 141.094 10.9652 141.594 11.0393C142.113 11.0949 142.566 11.169 142.955 11.2616ZM160.472 28.2081C158.416 28.2081 156.777 27.9025 155.555 27.2913C154.333 26.6801 153.453 25.8004 152.916 24.6521C152.379 23.5038 152.11 22.1333 152.11 20.5405C152.11 18.5217 152.48 16.8085 153.221 15.401C153.981 13.9749 155.018 12.8821 156.333 12.1228C157.666 11.3634 159.176 10.9838 160.861 10.9838C162.843 10.9838 164.297 11.4468 165.223 12.3728C166.149 13.2803 166.612 14.4749 166.612 15.9566C166.612 17.1419 166.297 18.1698 165.667 19.0403C165.056 19.8923 164.204 20.5497 163.111 21.0128C162.019 21.4758 160.759 21.7073 159.333 21.7073C158.537 21.7073 157.768 21.6054 157.027 21.4017C156.287 21.198 155.62 20.9202 155.027 20.5683L155.694 19.3459C155.638 19.7904 155.61 20.2349 155.61 20.6794C155.61 21.9758 156.018 22.9111 156.833 23.4853C157.648 24.0409 158.805 24.3187 160.306 24.3187C161.472 24.3187 162.408 24.2169 163.111 24.0131C163.815 23.8094 164.408 23.6149 164.889 23.4297C165.371 23.226 165.843 23.1241 166.306 23.1241C166.566 23.1241 166.797 23.1982 167.001 23.3464C167.223 23.476 167.399 23.6705 167.529 23.9298C167.677 24.1891 167.751 24.5039 167.751 24.8743C167.751 25.43 167.473 25.9671 166.917 26.4857C166.362 26.9857 165.538 27.4024 164.445 27.7358C163.371 28.0507 162.046 28.2081 160.472 28.2081ZM158.861 19.1236C160.176 19.1236 161.232 18.8458 162.028 18.2902C162.824 17.7346 163.223 17.0493 163.223 16.2344C163.223 15.5862 163 15.0583 162.556 14.6509C162.13 14.2249 161.454 14.0119 160.528 14.0119C159.657 14.0119 158.87 14.1786 158.166 14.512C157.481 14.8268 156.944 15.2435 156.555 15.7621C156.166 16.2807 155.972 16.8456 155.972 17.4568C155.972 17.9939 156.222 18.4106 156.722 18.7069C157.24 18.9847 157.953 19.1236 158.861 19.1236ZM178.504 33.5143C177.504 33.5143 177.004 32.9772 177.004 31.903C177.004 31.3103 177.208 30.6065 177.615 29.7916C178.023 28.9767 178.615 28.097 179.393 27.1524C180.19 26.2078 181.153 25.2448 182.283 24.2632L182.255 24.4854C179.792 22.0407 177.921 19.8923 176.643 18.0402C175.384 16.1881 174.754 14.586 174.754 13.234C174.754 12.5673 174.921 12.0487 175.254 11.6783C175.606 11.3079 176.069 11.1227 176.643 11.1227C177.865 11.1227 179.079 12.0117 180.282 13.7897C181.486 15.5677 182.625 18.2717 183.699 21.9018H183.811C184.514 18.0865 185.264 15.2898 186.061 13.5118C186.857 11.7153 187.802 10.8171 188.895 10.8171C189.413 10.8171 189.793 11.0023 190.034 11.3727C190.293 11.7246 190.422 12.2246 190.422 12.8729C190.422 13.41 190.302 14.123 190.061 15.012C189.839 15.8825 189.515 16.8734 189.089 17.9846C188.682 19.0773 188.2 20.2164 187.644 21.4017C187.107 22.587 186.515 23.7538 185.866 24.9021C184.218 27.884 182.81 30.0602 181.644 31.4307C180.477 32.8198 179.43 33.5143 178.504 33.5143ZM199.57 28.0692C198.088 28.0692 196.792 27.7451 195.68 27.0968C194.588 26.4301 193.736 25.4855 193.124 24.2632C192.532 23.0408 192.235 21.5869 192.235 19.9015C192.235 18.142 192.541 16.6048 193.152 15.2898C193.763 13.9749 194.625 12.947 195.736 12.2061C196.866 11.4653 198.171 11.0949 199.653 11.0949C201.246 11.0949 202.626 11.456 203.792 12.1783C204.959 12.8821 205.867 13.873 206.515 15.1509C207.163 16.4289 207.487 17.9198 207.487 19.6237C207.487 21.3647 207.163 22.8648 206.515 24.1243C205.867 25.3837 204.95 26.356 203.765 27.0413C202.579 27.7265 201.181 28.0692 199.57 28.0692ZM199.959 24.3187C201.107 24.3187 202.014 23.865 202.681 22.9574C203.366 22.0314 203.709 20.809 203.709 19.2903C203.709 17.7531 203.366 16.5307 202.681 15.6232C202.014 14.7157 201.107 14.2619 199.959 14.2619C198.773 14.2619 197.838 14.7157 197.153 15.6232C196.467 16.5307 196.125 17.7531 196.125 19.2903C196.125 20.809 196.467 22.0314 197.153 22.9574C197.838 23.865 198.773 24.3187 199.959 24.3187ZM222.792 27.8192C222.292 27.8192 221.903 27.6525 221.625 27.3191C221.366 26.9672 221.19 26.5227 221.097 25.9856C221.005 25.43 220.959 24.8466 220.959 24.2354L221.097 24.1243C220.912 24.9206 220.551 25.6059 220.014 26.1801C219.477 26.7542 218.856 27.1987 218.153 27.5136C217.449 27.8099 216.745 27.9581 216.041 27.9581C215.097 27.9581 214.236 27.7358 213.458 27.2913C212.68 26.8468 212.078 26.1615 211.652 25.2355C211.226 24.2539 210.893 23.0223 210.652 21.5406C210.411 20.0404 210.291 18.5032 210.291 16.9289C210.291 16.077 210.328 15.2898 210.402 14.5675C210.476 13.8452 210.596 13.2526 210.763 12.7895C210.911 12.308 211.133 11.9561 211.43 11.7338C211.726 11.4931 212.106 11.3727 212.569 11.3727C213.106 11.3727 213.522 11.5857 213.819 12.0117C214.134 12.4191 214.328 12.9933 214.402 13.7341C214.476 14.3453 214.523 15.1046 214.541 16.0122C214.578 16.9011 214.606 17.7994 214.624 18.7069C214.661 19.5959 214.708 20.346 214.763 20.9572C214.874 22.0684 215.162 22.8926 215.625 23.4297C216.088 23.9483 216.652 24.2076 217.319 24.2076C218.301 24.2076 219.051 23.8372 219.569 23.0964C220.088 22.3555 220.347 21.3184 220.347 19.9849C220.347 19.3181 220.31 18.568 220.236 17.7346C220.162 16.8826 220.079 16.0585 219.986 15.2621C219.912 14.4657 219.875 13.8082 219.875 13.2896C219.875 12.4191 220.023 11.7987 220.32 11.4283C220.616 11.0393 221.023 10.8448 221.542 10.8448C221.986 10.8448 222.357 10.9652 222.653 11.206C222.968 11.4468 223.218 11.7802 223.403 12.2061C223.663 12.7618 223.885 13.5211 224.07 14.4842C224.255 15.4473 224.403 16.54 224.515 17.7624C224.626 18.9847 224.681 20.2719 224.681 21.6239C224.681 23.6983 224.542 25.254 224.265 26.2912C223.987 27.3098 223.496 27.8192 222.792 27.8192ZM232.622 16.7067C232.622 14.7805 232.845 13.3915 233.289 12.5395C233.752 11.6875 234.354 11.2616 235.095 11.2616C235.521 11.2616 235.845 11.419 236.067 11.7338C236.308 12.0302 236.475 12.4376 236.567 12.9562C236.66 13.4563 236.706 14.0212 236.706 14.6509C236.706 15.4473 236.706 16.3826 236.706 17.4568C236.725 18.5125 236.743 19.6052 236.762 20.735C236.799 21.8462 236.836 22.8834 236.873 23.8464H236.984C237.558 21.4202 238.132 19.4292 238.706 17.8735C239.299 16.3177 239.901 15.1695 240.512 14.4286C241.142 13.6693 241.772 13.2896 242.401 13.2896C243.087 13.2896 243.735 13.6693 244.346 14.4286C244.976 15.1695 245.587 16.2992 246.18 17.8179C246.791 19.3366 247.411 21.2535 248.041 23.5686H248.152C248.208 21.9758 248.245 20.2997 248.263 18.5402C248.282 16.7808 248.291 15.1695 248.291 13.7063C248.291 12.6506 248.467 11.8728 248.819 11.3727C249.171 10.8726 249.661 10.6226 250.291 10.6226C251.088 10.6226 251.662 11.0393 252.014 11.8728C252.384 12.6877 252.569 13.7897 252.569 15.1787C252.569 16.1974 252.514 17.2901 252.403 18.4569C252.31 19.6052 252.171 20.7164 251.986 21.7906C251.801 22.8648 251.578 23.8001 251.319 24.5965C250.93 25.7819 250.495 26.6801 250.013 27.2913C249.55 27.9025 248.939 28.2081 248.18 28.2081C247.495 28.2081 246.809 27.8099 246.124 27.0135C245.457 26.1986 244.828 24.9855 244.235 23.3742C243.642 21.7629 243.096 19.7533 242.596 17.3456H242.485C242.003 19.6422 241.429 21.5684 240.762 23.1241C240.114 24.6614 239.419 25.8189 238.679 26.5968C237.956 27.3747 237.234 27.7636 236.512 27.7636C235.752 27.7636 235.113 27.421 234.595 26.7357C234.095 26.0504 233.678 24.9947 233.345 23.5686C233.196 22.8463 233.067 22.0777 232.956 21.2628C232.845 20.4294 232.761 19.6144 232.706 18.818C232.65 18.0217 232.622 17.3179 232.622 16.7067ZM267.087 28.2637C266.457 28.2637 266.022 28.0229 265.781 27.5413C265.559 27.0413 265.429 26.2541 265.392 25.1799L265.67 25.3188C264.633 27.3376 262.67 28.347 259.781 28.347C258.466 28.347 257.373 28.1155 256.502 27.6525C255.632 27.1709 254.984 26.5412 254.558 25.7633C254.15 24.967 253.947 24.1057 253.947 23.1797C253.947 21.5869 254.502 20.3275 255.613 19.4015C256.725 18.4569 258.197 17.9846 260.031 17.9846C261.234 17.9846 262.281 18.1606 263.17 18.5125C264.059 18.8644 264.818 19.3552 265.448 19.9849L264.976 19.9293C264.846 18.0587 264.439 16.7252 263.753 15.9288C263.087 15.1139 262.133 14.7064 260.892 14.7064C260.17 14.7064 259.503 14.8176 258.892 15.0398C258.28 15.2621 257.716 15.4936 257.197 15.7343C256.697 15.9566 256.225 16.0677 255.78 16.0677C255.336 16.0677 254.984 15.9195 254.724 15.6232C254.484 15.3269 254.363 14.9472 254.363 14.4842C254.363 13.8174 254.678 13.1877 255.308 12.5951C255.956 12.0024 256.808 11.5209 257.864 11.1504C258.919 10.78 260.068 10.5948 261.309 10.5948C262.809 10.5948 264.096 10.956 265.17 11.6783C266.244 12.4006 267.059 13.4563 267.615 14.8453C268.096 16.0307 268.439 17.3549 268.643 18.818C268.847 20.2812 268.948 21.8462 268.948 23.5131C268.948 24.7725 268.884 25.7448 268.754 26.4301C268.624 27.1154 268.421 27.5969 268.143 27.8747C267.883 28.134 267.532 28.2637 267.087 28.2637ZM260.947 25.1522C261.559 25.1522 262.179 25.0688 262.809 24.9021C263.438 24.7169 263.966 24.4484 264.392 24.0965C264.818 23.7446 265.031 23.3093 265.031 22.7908C265.031 22.3463 264.846 21.9851 264.476 21.7073C264.124 21.411 263.651 21.1887 263.059 21.0405C262.485 20.8924 261.864 20.8183 261.197 20.8183C260.068 20.8183 259.206 21.0128 258.614 21.4017C258.04 21.7906 257.753 22.3092 257.753 22.9574C257.753 23.6612 258.021 24.2076 258.558 24.5965C259.114 24.967 259.91 25.1522 260.947 25.1522ZM275.337 28.0414C274.763 28.0414 274.309 27.9118 273.976 27.6525C273.643 27.3747 273.374 26.9209 273.17 26.2912C272.893 25.3651 272.68 24.1983 272.532 22.7908C272.402 21.3647 272.337 19.6144 272.337 17.5401C272.337 16.2622 272.383 14.9842 272.476 13.7063C272.587 12.4099 272.726 11.2338 272.893 10.1781C273.059 9.1039 273.235 8.27046 273.42 7.6778C273.624 7.04809 273.865 6.61285 274.143 6.37208C274.421 6.13131 274.735 6.01093 275.087 6.01093C275.458 6.01093 275.754 6.14057 275.976 6.39986C276.199 6.64063 276.375 7.07587 276.504 7.70558C276.615 8.31676 276.699 9.06685 276.754 9.95585C276.828 10.8449 276.865 11.7987 276.865 12.8173C276.865 14.2064 276.801 15.6695 276.671 17.2067C276.541 18.744 276.365 20.2534 276.143 21.7351C275.939 23.2167 275.689 24.578 275.393 25.8189L274.615 25.43C275.097 24.8373 275.643 24.3743 276.254 24.0409C276.884 23.7075 277.458 23.5409 277.977 23.5409C278.403 23.5409 278.727 23.6612 278.949 23.902C279.19 24.1243 279.31 24.4762 279.31 24.9577C279.31 25.4392 279.097 25.9208 278.671 26.4023C278.264 26.8839 277.754 27.282 277.143 27.5969C276.532 27.8932 275.93 28.0414 275.337 28.0414ZM284.833 28.0414C284.259 28.0414 283.805 27.9118 283.472 27.6525C283.138 27.3747 282.87 26.9209 282.666 26.2912C282.388 25.3651 282.175 24.1983 282.027 22.7908C281.897 21.3647 281.833 19.6144 281.833 17.5401C281.833 16.2622 281.879 14.9842 281.971 13.7063C282.083 12.4099 282.221 11.2338 282.388 10.1781C282.555 9.1039 282.731 8.27046 282.916 7.6778C283.12 7.04809 283.361 6.61285 283.638 6.37208C283.916 6.13131 284.231 6.01093 284.583 6.01093C284.953 6.01093 285.25 6.14057 285.472 6.39986C285.694 6.64063 285.87 7.07587 286 7.70558C286.111 8.31676 286.194 9.06685 286.25 9.95585C286.324 10.8449 286.361 11.7987 286.361 12.8173C286.361 14.2064 286.296 15.6695 286.166 17.2067C286.037 18.744 285.861 20.2534 285.639 21.7351C285.435 23.2167 285.185 24.578 284.888 25.8189L284.111 25.43C284.592 24.8373 285.139 24.3743 285.75 24.0409C286.379 23.7075 286.954 23.5409 287.472 23.5409C287.898 23.5409 288.222 23.6612 288.444 23.902C288.685 24.1243 288.806 24.4762 288.806 24.9577C288.806 25.4392 288.593 25.9208 288.167 26.4023C287.759 26.8839 287.25 27.282 286.639 27.5969C286.028 27.8932 285.426 28.0414 284.833 28.0414ZM299.107 28.2081C297.051 28.2081 295.412 27.9025 294.19 27.2913C292.967 26.6801 292.087 25.8004 291.55 24.6521C291.013 23.5038 290.745 22.1333 290.745 20.5405C290.745 18.5217 291.115 16.8085 291.856 15.401C292.615 13.9749 293.652 12.8821 294.967 12.1228C296.301 11.3634 297.81 10.9838 299.496 10.9838C301.477 10.9838 302.931 11.4468 303.857 12.3728C304.783 13.2803 305.246 14.4749 305.246 15.9566C305.246 17.1419 304.932 18.1698 304.302 19.0403C303.691 19.8923 302.839 20.5497 301.746 21.0128C300.653 21.4758 299.394 21.7073 297.968 21.7073C297.171 21.7073 296.403 21.6054 295.662 21.4017C294.921 21.198 294.254 20.9202 293.662 20.5683L294.328 19.3459C294.273 19.7904 294.245 20.2349 294.245 20.6794C294.245 21.9758 294.653 22.9111 295.467 23.4853C296.282 24.0409 297.44 24.3187 298.94 24.3187C300.107 24.3187 301.042 24.2169 301.746 24.0131C302.45 23.8094 303.042 23.6149 303.524 23.4297C304.006 23.226 304.478 23.1241 304.941 23.1241C305.2 23.1241 305.432 23.1982 305.635 23.3464C305.858 23.476 306.034 23.6705 306.163 23.9298C306.311 24.1891 306.385 24.5039 306.385 24.8743C306.385 25.43 306.108 25.9671 305.552 26.4857C304.996 26.9857 304.172 27.4024 303.08 27.7358C302.005 28.0507 300.681 28.2081 299.107 28.2081ZM297.495 19.1236C298.81 19.1236 299.866 18.8458 300.663 18.2902C301.459 17.7346 301.857 17.0493 301.857 16.2344C301.857 15.5862 301.635 15.0583 301.19 14.6509C300.764 14.2249 300.088 14.0119 299.162 14.0119C298.292 14.0119 297.505 14.1786 296.801 14.512C296.116 14.8268 295.579 15.2435 295.19 15.7621C294.801 16.2807 294.606 16.8456 294.606 17.4568C294.606 17.9939 294.856 18.4106 295.356 18.7069C295.875 18.9847 296.588 19.1236 297.495 19.1236ZM313.522 11.2616H312.966C312.911 10.4467 312.929 9.67804 313.022 8.95573C313.115 8.2149 313.309 7.62223 313.605 7.17773C313.92 6.71471 314.365 6.4832 314.939 6.4832C315.457 6.4832 315.837 6.64989 316.078 6.98327C316.319 7.31664 316.439 7.77966 316.439 8.37232C316.439 9.53914 316.217 10.5393 315.772 11.3727L315.272 11.3171C316.272 10.9652 317.402 10.7893 318.661 10.7893C319.458 10.7893 320.088 10.9467 320.551 11.2616C321.032 11.5579 321.273 12.0672 321.273 12.7895C321.273 13.4748 320.995 13.9934 320.439 14.3453C319.884 14.6972 319.189 14.8731 318.356 14.8731C317.856 14.8731 317.319 14.8546 316.745 14.8176C316.189 14.762 315.643 14.6787 315.105 14.5675L315.578 13.9841C315.744 14.6879 315.902 15.4936 316.05 16.4011C316.217 17.2901 316.365 18.2161 316.495 19.1792C316.624 20.1423 316.726 21.0776 316.8 21.9851C316.874 22.8926 316.911 23.7075 316.911 24.4298C316.911 25.6152 316.726 26.5505 316.356 27.2357C315.985 27.921 315.439 28.2637 314.717 28.2637C314.142 28.2637 313.689 28.0877 313.355 27.7358C313.04 27.3839 312.809 26.9394 312.661 26.4023C312.531 25.8467 312.448 25.2725 312.411 24.6799C312.392 24.0872 312.383 23.5501 312.383 23.0686C312.383 22.2537 312.42 21.3369 312.494 20.3182C312.568 19.2811 312.67 18.2161 312.8 17.1234C312.948 16.0307 313.115 14.975 313.3 13.9563L313.855 14.4286C312.911 14.9102 311.744 15.1509 310.355 15.1509C309.503 15.1509 308.845 14.9935 308.382 14.6787C307.919 14.3638 307.688 13.873 307.688 13.2063C307.688 12.4839 307.947 11.9283 308.466 11.5394C308.984 11.1319 309.679 10.9282 310.549 10.9282C311.124 10.9282 311.661 10.9652 312.161 11.0393C312.679 11.0949 313.133 11.169 313.522 11.2616Z" fill="white"/>
<path d="M12.6002 60.8551C11.4624 60.8551 10.4243 60.5912 9.48588 60.0633C8.5475 59.5238 7.80265 58.7789 7.25135 57.8288C6.71178 56.867 6.44199 55.7878 6.44199 54.5914C6.44199 53.3949 6.71178 52.3216 7.25135 51.3715C7.80265 50.4097 8.5475 49.6648 9.48588 49.137C10.4243 48.5974 11.4624 48.3276 12.6002 48.3276C13.7497 48.3276 14.7936 48.5974 15.732 49.137C16.6704 49.6648 17.4094 50.4038 17.949 51.3539C18.4885 52.304 18.7583 53.3832 18.7583 54.5914C18.7583 55.7995 18.4885 56.8787 17.949 57.8288C17.4094 58.7789 16.6704 59.5238 15.732 60.0633C14.7936 60.5912 13.7497 60.8551 12.6002 60.8551ZM12.6002 59.4651C13.4564 59.4651 14.2247 59.2657 14.9051 58.8669C15.5971 58.4681 16.1367 57.8992 16.5238 57.1602C16.9226 56.4212 17.122 55.5649 17.122 54.5914C17.122 53.6061 16.9226 52.7498 16.5238 52.0225C16.1367 51.2836 15.603 50.7147 14.9227 50.3158C14.2423 49.917 13.4682 49.7176 12.6002 49.7176C11.7321 49.7176 10.958 49.917 10.2776 50.3158C9.59732 50.7147 9.05774 51.2836 8.65893 52.0225C8.27184 52.7498 8.0783 53.6061 8.0783 54.5914C8.0783 55.5649 8.27184 56.4212 8.65893 57.1602C9.05774 57.8992 9.59732 58.4681 10.2776 58.8669C10.9697 59.2657 11.7439 59.4651 12.6002 59.4651ZM22.4731 52.8671C22.7898 52.3158 23.259 51.8583 23.8807 51.4947C24.5141 51.1193 25.2472 50.9317 26.0801 50.9317C26.9363 50.9317 27.7105 51.1369 28.4026 51.5475C29.1064 51.958 29.6577 52.5386 30.0565 53.2894C30.4553 54.0283 30.6547 54.8905 30.6547 55.8758C30.6547 56.8494 30.4553 57.7174 30.0565 58.4798C29.6577 59.2422 29.1064 59.8346 28.4026 60.2569C27.7105 60.6791 26.9363 60.8903 26.0801 60.8903C25.259 60.8903 24.5317 60.7085 23.8983 60.3448C23.2766 59.9695 22.8016 59.5062 22.4731 58.9549V65.3066H20.872V51.09H22.4731V52.8671ZM29.0184 55.8758C29.0184 55.1485 28.8718 54.5151 28.5785 53.9756C28.2853 53.436 27.8865 53.0254 27.3821 52.7439C26.8894 52.4624 26.344 52.3216 25.7458 52.3216C25.1593 52.3216 24.6138 52.4683 24.1095 52.7615C23.6168 53.043 23.218 53.4594 22.913 54.0107C22.6198 54.5503 22.4731 55.1779 22.4731 55.8934C22.4731 56.6206 22.6198 57.2599 22.913 57.8112C23.218 58.3508 23.6168 58.7672 24.1095 59.0604C24.6138 59.3419 25.1593 59.4827 25.7458 59.4827C26.344 59.4827 26.8894 59.3419 27.3821 59.0604C27.8865 58.7672 28.2853 58.3508 28.5785 57.8112C28.8718 57.2599 29.0184 56.6148 29.0184 55.8758ZM41.5596 55.5415C41.5596 55.8465 41.542 56.169 41.5068 56.5092H33.8003C33.859 57.4593 34.1815 58.2042 34.768 58.7437C35.3662 59.2716 36.0876 59.5355 36.9322 59.5355C37.6242 59.5355 38.199 59.3771 38.6565 59.0604C39.1257 58.732 39.4541 58.298 39.6418 57.7584H41.3661C41.108 58.6851 40.5919 59.4417 39.8177 60.0281C39.0435 60.6029 38.0817 60.8903 36.9322 60.8903C36.0172 60.8903 35.1962 60.685 34.4689 60.2745C33.7534 59.8639 33.1904 59.2833 32.7798 58.5326C32.3693 57.7702 32.164 56.8904 32.164 55.8934C32.164 54.8963 32.3634 54.0225 32.7622 53.2718C33.161 52.5211 33.7182 51.9463 34.4337 51.5475C35.161 51.1369 35.9938 50.9317 36.9322 50.9317C37.8471 50.9317 38.6565 51.1311 39.3603 51.5299C40.064 51.9287 40.6036 52.48 40.979 53.1838C41.3661 53.8758 41.5596 54.6617 41.5596 55.5415ZM39.9057 55.2072C39.9057 54.5972 39.7708 54.0753 39.501 53.6412C39.2312 53.1955 38.8617 52.8612 38.3925 52.6383C37.9351 52.4038 37.4248 52.2865 36.8618 52.2865C36.0524 52.2865 35.3604 52.5445 34.7856 53.0606C34.2226 53.5767 33.9 54.2923 33.8179 55.2072H39.9057ZM48.3708 50.9141C49.5438 50.9141 50.4939 51.2718 51.2212 51.9873C51.9484 52.6911 52.312 53.7116 52.312 55.0488V60.7319H50.7285V55.2776C50.7285 54.3157 50.4881 53.5826 50.0071 53.0782C49.5262 52.5621 48.8693 52.304 48.0365 52.304C47.192 52.304 46.5175 52.568 46.0131 53.0958C45.5205 53.6237 45.2741 54.392 45.2741 55.4007V60.7319H43.673V51.09H45.2741V52.4624C45.5909 51.9697 46.019 51.5885 46.5586 51.3187C47.1099 51.049 47.714 50.9141 48.3708 50.9141ZM67.8174 52.0577C67.8174 53.0782 67.4655 53.9286 66.7617 54.609C66.0697 55.2776 65.0081 55.6119 63.5771 55.6119H61.2194V60.7319H59.6183V48.4684H63.5771C64.9612 48.4684 66.011 48.8027 66.7265 49.4713C67.4538 50.1399 67.8174 51.002 67.8174 52.0577ZM63.5771 54.2923C64.4686 54.2923 65.1254 54.0987 65.5477 53.7116C65.97 53.3245 66.1811 52.7732 66.1811 52.0577C66.1811 50.5446 65.3131 49.788 63.5771 49.788H61.2194V54.2923H63.5771ZM74.5932 50.9141C75.3204 50.9141 75.9773 51.0724 76.5638 51.3891C77.1503 51.6941 77.6077 52.1574 77.9362 52.7791C78.2763 53.4008 78.4464 54.1574 78.4464 55.0488V60.7319H76.8629V55.2776C76.8629 54.3157 76.6224 53.5826 76.1415 53.0782C75.6606 52.5621 75.0037 52.304 74.1709 52.304C73.3264 52.304 72.6519 52.568 72.1475 53.0958C71.6549 53.6237 71.4085 54.392 71.4085 55.4007V60.7319H69.8074V47.7118H71.4085V52.4624C71.7252 51.9697 72.1592 51.5885 72.7105 51.3187C73.2736 51.049 73.9011 50.9141 74.5932 50.9141ZM80.4636 55.8758C80.4636 54.8905 80.6631 54.0283 81.0619 53.2894C81.4607 52.5386 82.0061 51.958 82.6982 51.5475C83.402 51.1369 84.182 50.9317 85.0383 50.9317C85.8828 50.9317 86.6159 51.1135 87.2376 51.4771C87.8593 51.8407 88.3226 52.2982 88.6276 52.8495V51.09H90.2463V60.7319H88.6276V58.9373C88.3109 59.5003 87.8358 59.9695 87.2024 60.3448C86.5808 60.7085 85.8535 60.8903 85.0207 60.8903C84.1644 60.8903 83.3902 60.6791 82.6982 60.2569C82.0061 59.8346 81.4607 59.2422 81.0619 58.4798C80.6631 57.7174 80.4636 56.8494 80.4636 55.8758ZM88.6276 55.8934C88.6276 55.1661 88.481 54.5327 88.1877 53.9931C87.8945 53.4536 87.4957 53.043 86.9913 52.7615C86.4986 52.4683 85.9532 52.3216 85.355 52.3216C84.7568 52.3216 84.2113 52.4624 83.7187 52.7439C83.226 53.0254 82.8331 53.436 82.5398 53.9756C82.2466 54.5151 82.1 55.1485 82.1 55.8758C82.1 56.6148 82.2466 57.2599 82.5398 57.8112C82.8331 58.3508 83.226 58.7672 83.7187 59.0604C84.2113 59.3419 84.7568 59.4827 85.355 59.4827C85.9532 59.4827 86.4986 59.3419 86.9913 59.0604C87.4957 58.7672 87.8945 58.3508 88.1877 57.8112C88.481 57.2599 88.6276 56.6206 88.6276 55.8934ZM97.6499 50.9141C98.8228 50.9141 99.773 51.2718 100.5 51.9873C101.227 52.6911 101.591 53.7116 101.591 55.0488V60.7319H100.008V55.2776C100.008 54.3157 99.7671 53.5826 99.2862 53.0782C98.8052 52.5621 98.1484 52.304 97.3156 52.304C96.471 52.304 95.7965 52.568 95.2922 53.0958C94.7995 53.6237 94.5532 54.392 94.5532 55.4007V60.7319H92.9521V51.09H94.5532V52.4624C94.8699 51.9697 95.298 51.5885 95.8376 51.3187C96.3889 51.049 96.993 50.9141 97.6499 50.9141ZM106.16 52.4096V58.0927C106.16 58.5619 106.259 58.8962 106.459 59.0956C106.658 59.2833 107.004 59.3771 107.497 59.3771H108.676V60.7319H107.233C106.341 60.7319 105.673 60.5267 105.227 60.1161C104.781 59.7056 104.558 59.0311 104.558 58.0927V52.4096H103.309V51.09H104.558V48.6619H106.16V51.09H108.676V52.4096H106.16ZM114.821 60.8903C113.917 60.8903 113.096 60.685 112.357 60.2745C111.63 59.8639 111.055 59.2833 110.633 58.5326C110.223 57.7702 110.017 56.8904 110.017 55.8934C110.017 54.9081 110.228 54.0401 110.651 53.2894C111.085 52.5269 111.671 51.9463 112.41 51.5475C113.149 51.1369 113.976 50.9317 114.891 50.9317C115.806 50.9317 116.633 51.1369 117.372 51.5475C118.111 51.9463 118.692 52.5211 119.114 53.2718C119.548 54.0225 119.765 54.8963 119.765 55.8934C119.765 56.8904 119.542 57.7702 119.096 58.5326C118.662 59.2833 118.07 59.8639 117.319 60.2745C116.568 60.685 115.736 60.8903 114.821 60.8903ZM114.821 59.4827C115.395 59.4827 115.935 59.3478 116.439 59.078C116.944 58.8082 117.348 58.4036 117.653 57.864C117.97 57.3244 118.129 56.6675 118.129 55.8934C118.129 55.1192 117.976 54.4623 117.671 53.9228C117.366 53.3832 116.967 52.9844 116.475 52.7263C115.982 52.4565 115.448 52.3216 114.873 52.3216C114.287 52.3216 113.747 52.4565 113.255 52.7263C112.774 52.9844 112.387 53.3832 112.094 53.9228C111.8 54.4623 111.654 55.1192 111.654 55.8934C111.654 56.6793 111.794 57.342 112.076 57.8816C112.369 58.4212 112.756 58.8258 113.237 59.0956C113.718 59.3537 114.246 59.4827 114.821 59.4827ZM133.465 50.9141C134.216 50.9141 134.884 51.0724 135.471 51.3891C136.057 51.6941 136.521 52.1574 136.861 52.7791C137.201 53.4008 137.371 54.1574 137.371 55.0488V60.7319H135.787V55.2776C135.787 54.3157 135.547 53.5826 135.066 53.0782C134.597 52.5621 133.958 52.304 133.148 52.304C132.315 52.304 131.653 52.5738 131.16 53.1134C130.667 53.6413 130.421 54.4096 130.421 55.4183V60.7319H128.838V55.2776C128.838 54.3157 128.597 53.5826 128.116 53.0782C127.647 52.5621 127.008 52.304 126.198 52.304C125.365 52.304 124.703 52.5738 124.21 53.1134C123.717 53.6413 123.471 54.4096 123.471 55.4183V60.7319H121.87V51.09H123.471V52.48C123.788 51.9756 124.21 51.5885 124.738 51.3187C125.278 51.049 125.87 50.9141 126.515 50.9141C127.324 50.9141 128.04 51.0959 128.662 51.4595C129.283 51.8231 129.747 52.3568 130.052 53.0606C130.321 52.3803 130.767 51.8525 131.389 51.4771C132.01 51.1017 132.702 50.9141 133.465 50.9141ZM141.651 58.515L139.681 63.248H138.607L139.892 58.515H141.651ZM147.578 55.8934C147.578 54.8963 147.777 54.0283 148.176 53.2894C148.575 52.5386 149.126 51.958 149.83 51.5475C150.546 51.1369 151.361 50.9317 152.276 50.9317C153.46 50.9317 154.434 51.219 155.197 51.7938C155.971 52.3686 156.481 53.1662 156.727 54.1867H155.003C154.839 53.6002 154.516 53.1369 154.035 52.7967C153.566 52.4565 152.98 52.2865 152.276 52.2865C151.361 52.2865 150.622 52.6032 150.059 53.2366C149.496 53.8583 149.214 54.7439 149.214 55.8934C149.214 57.0546 149.496 57.952 150.059 58.5854C150.622 59.2188 151.361 59.5355 152.276 59.5355C152.98 59.5355 153.566 59.3713 154.035 59.0428C154.504 58.7144 154.827 58.2452 155.003 57.6353H156.727C156.469 58.6206 155.953 59.4123 155.179 60.0105C154.405 60.597 153.437 60.8903 152.276 60.8903C151.361 60.8903 150.546 60.685 149.83 60.2745C149.126 59.8639 148.575 59.2833 148.176 58.5326C147.777 57.7819 147.578 56.9021 147.578 55.8934ZM160.465 47.7118V60.7319H158.864V47.7118H160.465ZM164.021 49.5241C163.716 49.5241 163.458 49.4185 163.246 49.2074C163.035 48.9962 162.93 48.7382 162.93 48.4332C162.93 48.1282 163.035 47.8702 163.246 47.659C163.458 47.4479 163.716 47.3423 164.021 47.3423C164.314 47.3423 164.56 47.4479 164.76 47.659C164.971 47.8702 165.076 48.1282 165.076 48.4332C165.076 48.7382 164.971 48.9962 164.76 49.2074C164.56 49.4185 164.314 49.5241 164.021 49.5241ZM164.795 51.09V60.7319H163.194V51.09H164.795ZM166.925 55.8934C166.925 54.8963 167.125 54.0283 167.524 53.2894C167.922 52.5386 168.474 51.958 169.177 51.5475C169.893 51.1369 170.708 50.9317 171.623 50.9317C172.808 50.9317 173.781 51.219 174.544 51.7938C175.318 52.3686 175.828 53.1662 176.075 54.1867H174.35C174.186 53.6002 173.864 53.1369 173.383 52.7967C172.913 52.4565 172.327 52.2865 171.623 52.2865C170.708 52.2865 169.969 52.6032 169.406 53.2366C168.843 53.8583 168.562 54.7439 168.562 55.8934C168.562 57.0546 168.843 57.952 169.406 58.5854C169.969 59.2188 170.708 59.5355 171.623 59.5355C172.327 59.5355 172.913 59.3713 173.383 59.0428C173.852 58.7144 174.174 58.2452 174.35 57.6353H176.075C175.817 58.6206 175.3 59.4123 174.526 60.0105C173.752 60.597 172.784 60.8903 171.623 60.8903C170.708 60.8903 169.893 60.685 169.177 60.2745C168.474 59.8639 167.922 59.2833 167.524 58.5326C167.125 57.7819 166.925 56.9021 166.925 55.8934ZM183.595 60.7319L179.812 56.474V60.7319H178.211V47.7118H179.812V55.3655L183.525 51.09H185.759L181.22 55.8934L185.777 60.7319H183.595ZM192.731 46.7265L192.538 50.2279H191.429L191.218 46.7265H192.731ZM195.106 46.7265L194.913 50.2279H193.804L193.593 46.7265H195.106ZM196.496 54.5914C196.496 53.3949 196.766 52.3216 197.306 51.3715C197.845 50.4097 198.578 49.659 199.505 49.1194C200.443 48.5798 201.481 48.31 202.619 48.31C203.956 48.31 205.123 48.6326 206.121 49.2778C207.118 49.9229 207.845 50.8378 208.302 52.0225H206.384C206.044 51.2836 205.552 50.7147 204.906 50.3158C204.273 49.917 203.511 49.7176 202.619 49.7176C201.763 49.7176 200.995 49.917 200.314 50.3158C199.634 50.7147 199.1 51.2836 198.713 52.0225C198.326 52.7498 198.133 53.6061 198.133 54.5914C198.133 55.5649 198.326 56.4212 198.713 57.1602C199.1 57.8874 199.634 58.4505 200.314 58.8493C200.995 59.2481 201.763 59.4475 202.619 59.4475C203.511 59.4475 204.273 59.254 204.906 58.8669C205.552 58.4681 206.044 57.8992 206.384 57.1602H208.302C207.845 58.3332 207.118 59.2422 206.121 59.8874C205.123 60.5208 203.956 60.8375 202.619 60.8375C201.481 60.8375 200.443 60.5736 199.505 60.0457C198.578 59.5062 197.845 58.7613 197.306 57.8112C196.766 56.8611 196.496 55.7878 196.496 54.5914ZM212.287 52.6559C212.568 52.1046 212.967 51.6765 213.483 51.3715C214.011 51.0666 214.65 50.9141 215.401 50.9141V52.568H214.979C213.184 52.568 212.287 53.5415 212.287 55.4887V60.7319H210.686V51.09H212.287V52.6559ZM226.047 55.5415C226.047 55.8465 226.029 56.169 225.994 56.5092H218.287C218.346 57.4593 218.669 58.2042 219.255 58.7437C219.853 59.2716 220.575 59.5355 221.419 59.5355C222.111 59.5355 222.686 59.3771 223.144 59.0604C223.613 58.732 223.941 58.298 224.129 57.7584H225.853C225.595 58.6851 225.079 59.4417 224.305 60.0281C223.531 60.6029 222.569 60.8903 221.419 60.8903C220.504 60.8903 219.683 60.685 218.956 60.2745C218.24 59.8639 217.677 59.2833 217.267 58.5326C216.856 57.7702 216.651 56.8904 216.651 55.8934C216.651 54.8963 216.851 54.0225 217.249 53.2718C217.648 52.5211 218.205 51.9463 218.921 51.5475C219.648 51.1369 220.481 50.9317 221.419 50.9317C222.334 50.9317 223.144 51.1311 223.847 51.5299C224.551 51.9287 225.091 52.48 225.466 53.1838C225.853 53.8758 226.047 54.6617 226.047 55.5415ZM224.393 55.2072C224.393 54.5972 224.258 54.0753 223.988 53.6412C223.718 53.1955 223.349 52.8612 222.88 52.6383C222.422 52.4038 221.912 52.2865 221.349 52.2865C220.54 52.2865 219.847 52.5445 219.273 53.0606C218.71 53.5767 218.387 54.2923 218.305 55.2072H224.393ZM227.562 55.8758C227.562 54.8905 227.761 54.0283 228.16 53.2894C228.559 52.5386 229.104 51.958 229.796 51.5475C230.5 51.1369 231.28 50.9317 232.137 50.9317C232.981 50.9317 233.714 51.1135 234.336 51.4771C234.958 51.8407 235.421 52.2982 235.726 52.8495V51.09H237.345V60.7319H235.726V58.9373C235.409 59.5003 234.934 59.9695 234.301 60.3448C233.679 60.7085 232.952 60.8903 232.119 60.8903C231.263 60.8903 230.489 60.6791 229.796 60.2569C229.104 59.8346 228.559 59.2422 228.16 58.4798C227.761 57.7174 227.562 56.8494 227.562 55.8758ZM235.726 55.8934C235.726 55.1661 235.579 54.5327 235.286 53.9931C234.993 53.4536 234.594 53.043 234.09 52.7615C233.597 52.4683 233.051 52.3216 232.453 52.3216C231.855 52.3216 231.31 52.4624 230.817 52.7439C230.324 53.0254 229.931 53.436 229.638 53.9756C229.345 54.5151 229.198 55.1485 229.198 55.8758C229.198 56.6148 229.345 57.2599 229.638 57.8112C229.931 58.3508 230.324 58.7672 230.817 59.0604C231.31 59.3419 231.855 59.4827 232.453 59.4827C233.051 59.4827 233.597 59.3419 234.09 59.0604C234.594 58.7672 234.993 58.3508 235.286 57.8112C235.579 57.2599 235.726 56.6206 235.726 55.8934ZM242.003 52.4096V58.0927C242.003 58.5619 242.103 58.8962 242.302 59.0956C242.502 59.2833 242.848 59.3771 243.341 59.3771H244.519V60.7319H243.077C242.185 60.7319 241.517 60.5267 241.071 60.1161C240.625 59.7056 240.402 59.0311 240.402 58.0927V52.4096H239.153V51.09H240.402V48.6619H242.003V51.09H244.519V52.4096H242.003ZM255.257 55.5415C255.257 55.8465 255.239 56.169 255.204 56.5092H247.497C247.556 57.4593 247.879 58.2042 248.465 58.7437C249.063 59.2716 249.785 59.5355 250.629 59.5355C251.321 59.5355 251.896 59.3771 252.354 59.0604C252.823 58.732 253.151 58.298 253.339 57.7584H255.063C254.805 58.6851 254.289 59.4417 253.515 60.0281C252.741 60.6029 251.779 60.8903 250.629 60.8903C249.714 60.8903 248.893 60.685 248.166 60.2745C247.451 59.8639 246.888 59.2833 246.477 58.5326C246.066 57.7702 245.861 56.8904 245.861 55.8934C245.861 54.8963 246.061 54.0225 246.459 53.2718C246.858 52.5211 247.415 51.9463 248.131 51.5475C248.858 51.1369 249.691 50.9317 250.629 50.9317C251.544 50.9317 252.354 51.1311 253.057 51.5299C253.761 51.9287 254.301 52.48 254.676 53.1838C255.063 53.8758 255.257 54.6617 255.257 55.5415ZM253.603 55.2072C253.603 54.5972 253.468 54.0753 253.198 53.6412C252.928 53.1955 252.559 52.8612 252.09 52.6383C251.632 52.4038 251.122 52.2865 250.559 52.2865C249.75 52.2865 249.058 52.5445 248.483 53.0606C247.92 53.5767 247.597 54.2923 247.515 55.2072H253.603ZM271.703 60.7319H270.102L263.662 50.9668V60.7319H262.061V48.4508H263.662L270.102 58.1983V48.4508H271.703V60.7319ZM283.23 55.5415C283.23 55.8465 283.212 56.169 283.177 56.5092H275.47C275.529 57.4593 275.852 58.2042 276.438 58.7437C277.036 59.2716 277.758 59.5355 278.602 59.5355C279.294 59.5355 279.869 59.3771 280.326 59.0604C280.796 58.732 281.124 58.298 281.312 57.7584H283.036C282.778 58.6851 282.262 59.4417 281.488 60.0281C280.714 60.6029 279.752 60.8903 278.602 60.8903C277.687 60.8903 276.866 60.685 276.139 60.2745C275.423 59.8639 274.86 59.2833 274.45 58.5326C274.039 57.7702 273.834 56.8904 273.834 55.8934C273.834 54.8963 274.033 54.0225 274.432 53.2718C274.831 52.5211 275.388 51.9463 276.104 51.5475C276.831 51.1369 277.664 50.9317 278.602 50.9317C279.517 50.9317 280.326 51.1311 281.03 51.5299C281.734 51.9287 282.274 52.48 282.649 53.1838C283.036 53.8758 283.23 54.6617 283.23 55.5415ZM281.576 55.2072C281.576 54.5972 281.441 54.0753 281.171 53.6412C280.901 53.1955 280.532 52.8612 280.063 52.6383C279.605 52.4038 279.095 52.2865 278.532 52.2865C277.722 52.2865 277.03 52.5445 276.456 53.0606C275.893 53.5767 275.57 54.2923 275.488 55.2072H281.576ZM298.187 51.09L295.179 60.7319H293.525L291.202 53.0782L288.88 60.7319H287.226L284.199 51.09H285.836L288.053 59.1836L290.446 51.09H292.082L294.422 59.2012L296.604 51.09H298.187ZM319.88 48.4684L316.326 60.7319H314.531L311.681 50.8613L308.725 60.7319L306.948 60.7495L303.517 48.4684H305.224L307.898 58.8669L310.854 48.4684H312.649L315.464 58.8317L318.156 48.4684H319.88ZM321.034 55.8758C321.034 54.8905 321.233 54.0283 321.632 53.2894C322.031 52.5386 322.576 51.958 323.269 51.5475C323.972 51.1369 324.752 50.9317 325.609 50.9317C326.453 50.9317 327.186 51.1135 327.808 51.4771C328.43 51.8407 328.893 52.2982 329.198 52.8495V51.09H330.817V60.7319H329.198V58.9373C328.881 59.5003 328.406 59.9695 327.773 60.3448C327.151 60.7085 326.424 60.8903 325.591 60.8903C324.735 60.8903 323.961 60.6791 323.269 60.2569C322.576 59.8346 322.031 59.2422 321.632 58.4798C321.233 57.7174 321.034 56.8494 321.034 55.8758ZM329.198 55.8934C329.198 55.1661 329.051 54.5327 328.758 53.9931C328.465 53.4536 328.066 53.043 327.562 52.7615C327.069 52.4683 326.524 52.3216 325.925 52.3216C325.327 52.3216 324.782 52.4624 324.289 52.7439C323.796 53.0254 323.403 53.436 323.11 53.9756C322.817 54.5151 322.67 55.1485 322.67 55.8758C322.67 56.6148 322.817 57.2599 323.11 57.8112C323.403 58.3508 323.796 58.7672 324.289 59.0604C324.782 59.3419 325.327 59.4827 325.925 59.4827C326.524 59.4827 327.069 59.3419 327.562 59.0604C328.066 58.7672 328.465 58.3508 328.758 57.8112C329.051 57.2599 329.198 56.6206 329.198 55.8934ZM335.124 47.7118V60.7319H333.522V47.7118H335.124ZM339.454 47.7118V60.7319H337.852V47.7118H339.454ZM350.98 55.5415C350.98 55.8465 350.962 56.169 350.927 56.5092H343.22C343.279 57.4593 343.602 58.2042 344.188 58.7437C344.786 59.2716 345.508 59.5355 346.352 59.5355C347.044 59.5355 347.619 59.3771 348.077 59.0604C348.546 58.732 348.874 58.298 349.062 57.7584H350.786C350.528 58.6851 350.012 59.4417 349.238 60.0281C348.464 60.6029 347.502 60.8903 346.352 60.8903C345.437 60.8903 344.616 60.685 343.889 60.2745C343.174 59.8639 342.61 59.2833 342.2 58.5326C341.789 57.7702 341.584 56.8904 341.584 55.8934C341.584 54.8963 341.784 54.0225 342.182 53.2718C342.581 52.5211 343.138 51.9463 343.854 51.5475C344.581 51.1369 345.414 50.9317 346.352 50.9317C347.267 50.9317 348.077 51.1311 348.78 51.5299C349.484 51.9287 350.024 52.48 350.399 53.1838C350.786 53.8758 350.98 54.6617 350.98 55.5415ZM349.326 55.2072C349.326 54.5972 349.191 54.0753 348.921 53.6412C348.651 53.1955 348.282 52.8612 347.813 52.6383C347.355 52.4038 346.845 52.2865 346.282 52.2865C345.473 52.2865 344.78 52.5445 344.206 53.0606C343.643 53.5767 343.32 54.2923 343.238 55.2072H349.326ZM355.046 52.4096V58.0927C355.046 58.5619 355.146 58.8962 355.345 59.0956C355.545 59.2833 355.891 59.3771 356.383 59.3771H357.562V60.7319H356.119C355.228 60.7319 354.559 60.5267 354.114 60.1161C353.668 59.7056 353.445 59.0311 353.445 58.0927V52.4096H352.196V51.09H353.445V48.6619H355.046V51.09H357.562V52.4096H355.046ZM361.156 58.515L359.185 63.248H358.112L359.397 58.515H361.156ZM363.764 46.7265L363.571 50.2279H362.462L362.251 46.7265H363.764ZM366.14 46.7265L365.946 50.2279H364.838L364.627 46.7265H366.14ZM23.9422 81.8758C23.9422 80.8905 24.1416 80.0283 24.5405 79.2894C24.9393 78.5386 25.4847 77.958 26.1768 77.5475C26.8806 77.1369 27.6606 76.9317 28.5169 76.9317C29.3614 76.9317 30.0945 77.1135 30.7162 77.4771C31.3379 77.8407 31.8012 78.2982 32.1062 78.8495V77.09H33.7249V86.7319H32.1062V84.9373C31.7895 85.5003 31.3144 85.9695 30.681 86.3448C30.0593 86.7085 29.3321 86.8903 28.4993 86.8903C27.643 86.8903 26.8688 86.6791 26.1768 86.2569C25.4847 85.8346 24.9393 85.2422 24.5405 84.4798C24.1416 83.7174 23.9422 82.8494 23.9422 81.8758ZM32.1062 81.8934C32.1062 81.1661 31.9596 80.5327 31.6663 79.9931C31.3731 79.4536 30.9743 79.043 30.4699 78.7615C29.9772 78.4683 29.4318 78.3216 28.8336 78.3216C28.2354 78.3216 27.6899 78.4624 27.1973 78.7439C26.7046 79.0254 26.3117 79.436 26.0184 79.9756C25.7252 80.5151 25.5785 81.1485 25.5785 81.8758C25.5785 82.6148 25.7252 83.2599 26.0184 83.8112C26.3117 84.3508 26.7046 84.7672 27.1973 85.0604C27.6899 85.3419 28.2354 85.4827 28.8336 85.4827C29.4318 85.4827 29.9772 85.3419 30.4699 85.0604C30.9743 84.7672 31.3731 84.3508 31.6663 83.8112C31.9596 83.2599 32.1062 82.6206 32.1062 81.8934ZM41.1285 76.9141C42.3014 76.9141 43.2516 77.2718 43.9788 77.9873C44.7061 78.6911 45.0697 79.7116 45.0697 81.0488V86.7319H43.4861V81.2776C43.4861 80.3157 43.2457 79.5826 42.7648 79.0782C42.2838 78.5621 41.627 78.304 40.7942 78.304C39.9496 78.304 39.2751 78.568 38.7708 79.0958C38.2781 79.6237 38.0318 80.392 38.0318 81.4007V86.7319H36.4307V77.09H38.0318V78.4624C38.3485 77.9697 38.7766 77.5885 39.3162 77.3187C39.8675 77.049 40.4716 76.9141 41.1285 76.9141ZM47.0869 81.8758C47.0869 80.8905 47.2863 80.0283 47.6851 79.2894C48.0839 78.5386 48.6294 77.958 49.3214 77.5475C50.0252 77.1369 50.8111 76.9317 51.6791 76.9317C52.4298 76.9317 53.1278 77.1076 53.7729 77.4595C54.418 77.7997 54.9107 78.2513 55.2509 78.8143V73.7118H56.8696V86.7319H55.2509V84.9197C54.9341 85.4944 54.465 85.9695 53.8433 86.3448C53.2216 86.7085 52.4943 86.8903 51.6615 86.8903C50.8052 86.8903 50.0252 86.6791 49.3214 86.2569C48.6294 85.8346 48.0839 85.2422 47.6851 84.4798C47.2863 83.7174 47.0869 82.8494 47.0869 81.8758ZM55.2509 81.8934C55.2509 81.1661 55.1042 80.5327 54.811 79.9931C54.5177 79.4536 54.1189 79.043 53.6145 78.7615C53.1219 78.4683 52.5765 78.3216 51.9782 78.3216C51.38 78.3216 50.8346 78.4624 50.3419 78.7439C49.8493 79.0254 49.4563 79.436 49.1631 79.9756C48.8698 80.5151 48.7232 81.1485 48.7232 81.8758C48.7232 82.6148 48.8698 83.2599 49.1631 83.8112C49.4563 84.3508 49.8493 84.7672 50.3419 85.0604C50.8346 85.3419 51.38 85.4827 51.9782 85.4827C52.5765 85.4827 53.1219 85.3419 53.6145 85.0604C54.1189 84.7672 54.5177 84.3508 54.811 83.8112C55.1042 83.2599 55.2509 82.6206 55.2509 81.8934ZM67.6795 86.8903C66.9405 86.8903 66.2778 86.7671 65.6913 86.5208C65.1048 86.2627 64.6415 85.9108 64.3013 85.4651C63.9611 85.0076 63.7734 84.4857 63.7383 83.8992H65.3922C65.4391 84.3801 65.6619 84.7731 66.0608 85.078C66.4713 85.383 67.005 85.5355 67.6619 85.5355C68.2718 85.5355 68.7528 85.4006 69.1047 85.1308C69.4565 84.861 69.6325 84.5209 69.6325 84.1103C69.6325 83.688 69.4448 83.3772 69.0695 83.1778C68.6941 82.9667 68.1135 82.7614 67.3276 82.562C66.6121 82.3743 66.0256 82.1866 65.5681 81.9989C65.1224 81.7995 64.7353 81.5122 64.4069 81.1368C64.0901 80.7497 63.9318 80.2453 63.9318 79.6237C63.9318 79.131 64.0784 78.6794 64.3717 78.2689C64.6649 77.8583 65.0813 77.5357 65.6209 77.3011C66.1605 77.0548 66.7763 76.9317 67.4683 76.9317C68.5358 76.9317 69.3979 77.2014 70.0548 77.741C70.7116 78.2806 71.0635 79.0196 71.1105 79.958H69.5093C69.4741 79.4536 69.2689 79.0489 68.8935 78.7439C68.5299 78.4389 68.0372 78.2865 67.4156 78.2865C66.8408 78.2865 66.3833 78.4096 66.0432 78.6559C65.703 78.9023 65.5329 79.2248 65.5329 79.6237C65.5329 79.9404 65.6326 80.2043 65.832 80.4154C66.0432 80.6148 66.3012 80.779 66.6062 80.9081C66.9229 81.0254 67.3569 81.1603 67.9082 81.3128C68.6003 81.5004 69.1633 81.6881 69.5973 81.8758C70.0313 82.0517 70.4008 82.3215 70.7058 82.6851C71.0225 83.0488 71.1867 83.5238 71.1984 84.1103C71.1984 84.6382 71.0518 85.1132 70.7586 85.5355C70.4653 85.9578 70.0489 86.2921 69.5093 86.5384C68.9815 86.773 68.3715 86.8903 67.6795 86.8903ZM82.256 81.5415C82.256 81.8465 82.2384 82.169 82.2033 82.5092H74.4968C74.5554 83.4593 74.878 84.2042 75.4645 84.7437C76.0627 85.2716 76.7841 85.5355 77.6286 85.5355C78.3207 85.5355 78.8954 85.3771 79.3529 85.0604C79.8221 84.732 80.1505 84.298 80.3382 83.7584H82.0625C81.8044 84.6851 81.2883 85.4417 80.5142 86.0281C79.74 86.6029 78.7781 86.8903 77.6286 86.8903C76.7137 86.8903 75.8926 86.685 75.1654 86.2745C74.4498 85.8639 73.8868 85.2833 73.4763 84.5326C73.0657 83.7702 72.8604 82.8904 72.8604 81.8934C72.8604 80.8963 73.0598 80.0225 73.4587 79.2718C73.8575 78.5211 74.4146 77.9463 75.1302 77.5475C75.8574 77.1369 76.6902 76.9317 77.6286 76.9317C78.5435 76.9317 79.3529 77.1311 80.0567 77.5299C80.7605 77.9287 81.3001 78.48 81.6754 79.1838C82.0625 79.8758 82.256 80.6617 82.256 81.5415ZM80.6021 81.2072C80.6021 80.5972 80.4672 80.0753 80.1975 79.6412C79.9277 79.1955 79.5582 78.8612 79.089 78.6383C78.6315 78.4038 78.1213 78.2865 77.5582 78.2865C76.7489 78.2865 76.0568 78.5445 75.4821 79.0606C74.919 79.5767 74.5965 80.2923 74.5143 81.2072H80.6021ZM83.7713 81.8934C83.7713 80.8963 83.9707 80.0283 84.3695 79.2894C84.7683 78.5386 85.3196 77.958 86.0234 77.5475C86.7389 77.1369 87.5541 76.9317 88.4691 76.9317C89.6538 76.9317 90.6273 77.219 91.3898 77.7938C92.1639 78.3686 92.6742 79.1662 92.9205 80.1867H91.1962C91.032 79.6002 90.7094 79.1369 90.2285 78.7967C89.7593 78.4565 89.1728 78.2865 88.4691 78.2865C87.5541 78.2865 86.8151 78.6032 86.2521 79.2366C85.6891 79.8583 85.4076 80.7439 85.4076 81.8934C85.4076 83.0546 85.6891 83.952 86.2521 84.5854C86.8151 85.2188 87.5541 85.5355 88.4691 85.5355C89.1728 85.5355 89.7593 85.3713 90.2285 85.0428C90.6977 84.7144 91.0203 84.2452 91.1962 83.6353H92.9205C92.6625 84.6206 92.1464 85.4123 91.3722 86.0105C90.598 86.597 89.6303 86.8903 88.4691 86.8903C87.5541 86.8903 86.7389 86.685 86.0234 86.2745C85.3196 85.8639 84.7683 85.2833 84.3695 84.5326C83.9707 83.7819 83.7713 82.9021 83.7713 81.8934ZM103.608 77.09V86.7319H102.007V85.3068C101.702 85.7994 101.274 86.1865 100.722 86.468C100.183 86.7378 99.5846 86.8727 98.9278 86.8727C98.177 86.8727 97.5026 86.7202 96.9044 86.4152C96.3061 86.0985 95.8311 85.6293 95.4792 85.0076C95.139 84.386 94.9689 83.6294 94.9689 82.7379V77.09H96.5525V82.5268C96.5525 83.4769 96.7929 84.21 97.2738 84.7261C97.7548 85.2305 98.4116 85.4827 99.2445 85.4827C100.101 85.4827 100.775 85.2188 101.268 84.6909C101.761 84.1631 102.007 83.3948 102.007 82.386V77.09H103.608ZM107.912 78.6559C108.194 78.1046 108.593 77.6765 109.109 77.3715C109.637 77.0666 110.276 76.9141 111.027 76.9141V78.568H110.604C108.81 78.568 107.912 79.5415 107.912 81.4887V86.7319H106.311V77.09H107.912V78.6559ZM121.672 81.5415C121.672 81.8465 121.655 82.169 121.62 82.5092H113.913C113.972 83.4593 114.294 84.2042 114.881 84.7437C115.479 85.2716 116.2 85.5355 117.045 85.5355C117.737 85.5355 118.312 85.3771 118.769 85.0604C119.238 84.732 119.567 84.298 119.755 83.7584H121.479C121.221 84.6851 120.705 85.4417 119.931 86.0281C119.156 86.6029 118.195 86.8903 117.045 86.8903C116.13 86.8903 115.309 86.685 114.582 86.2745C113.866 85.8639 113.303 85.2833 112.893 84.5326C112.482 83.7702 112.277 82.8904 112.277 81.8934C112.277 80.8963 112.476 80.0225 112.875 79.2718C113.274 78.5211 113.831 77.9463 114.547 77.5475C115.274 77.1369 116.107 76.9317 117.045 76.9317C117.96 76.9317 118.769 77.1311 119.473 77.5299C120.177 77.9287 120.716 78.48 121.092 79.1838C121.479 79.8758 121.672 80.6617 121.672 81.5415ZM120.018 81.2072C120.018 80.5972 119.884 80.0753 119.614 79.6412C119.344 79.1955 118.975 78.8612 118.505 78.6383C118.048 78.4038 117.538 78.2865 116.975 78.2865C116.165 78.2865 115.473 78.5445 114.898 79.0606C114.335 79.5767 114.013 80.2923 113.931 81.2072H120.018ZM125.387 73.7118V86.7319H123.786V73.7118H125.387ZM136.421 77.09L130.614 91.2714H128.96L130.861 86.6264L126.972 77.09H128.749L131.775 84.9021L134.767 77.09H136.421ZM146.134 86.8903C145.395 86.8903 144.732 86.7671 144.146 86.5208C143.559 86.2627 143.096 85.9108 142.756 85.4651C142.416 85.0076 142.228 84.4857 142.193 83.8992H143.847C143.894 84.3801 144.117 84.7731 144.515 85.078C144.926 85.383 145.46 85.5355 146.117 85.5355C146.727 85.5355 147.207 85.4006 147.559 85.1308C147.911 84.861 148.087 84.5209 148.087 84.1103C148.087 83.688 147.9 83.3772 147.524 83.1778C147.149 82.9667 146.568 82.7614 145.782 82.562C145.067 82.3743 144.48 82.1866 144.023 81.9989C143.577 81.7995 143.19 81.5122 142.862 81.1368C142.545 80.7497 142.386 80.2453 142.386 79.6237C142.386 79.131 142.533 78.6794 142.826 78.2689C143.12 77.8583 143.536 77.5357 144.076 77.3011C144.615 77.0548 145.231 76.9317 145.923 76.9317C146.99 76.9317 147.853 77.2014 148.509 77.741C149.166 78.2806 149.518 79.0196 149.565 79.958H147.964C147.929 79.4536 147.724 79.0489 147.348 78.7439C146.985 78.4389 146.492 78.2865 145.87 78.2865C145.295 78.2865 144.838 78.4096 144.498 78.6559C144.158 78.9023 143.988 79.2248 143.988 79.6237C143.988 79.9404 144.087 80.2043 144.287 80.4154C144.498 80.6148 144.756 80.779 145.061 80.9081C145.378 81.0254 145.812 81.1603 146.363 81.3128C147.055 81.5004 147.618 81.6881 148.052 81.8758C148.486 82.0517 148.855 82.3215 149.16 82.6851C149.477 83.0488 149.641 83.5238 149.653 84.1103C149.653 84.6382 149.507 85.1132 149.213 85.5355C148.92 85.9578 148.504 86.2921 147.964 86.5384C147.436 86.773 146.826 86.8903 146.134 86.8903ZM151.315 81.8758C151.315 80.8905 151.515 80.0283 151.913 79.2894C152.312 78.5386 152.858 77.958 153.55 77.5475C154.253 77.1369 155.034 76.9317 155.89 76.9317C156.734 76.9317 157.467 77.1135 158.089 77.4771C158.711 77.8407 159.174 78.2982 159.479 78.8495V77.09H161.098V86.7319H159.479V84.9373C159.162 85.5003 158.687 85.9695 158.054 86.3448C157.432 86.7085 156.705 86.8903 155.872 86.8903C155.016 86.8903 154.242 86.6791 153.55 86.2569C152.858 85.8346 152.312 85.2422 151.913 84.4798C151.515 83.7174 151.315 82.8494 151.315 81.8758ZM159.479 81.8934C159.479 81.1661 159.332 80.5327 159.039 79.9931C158.746 79.4536 158.347 79.043 157.843 78.7615C157.35 78.4683 156.805 78.3216 156.206 78.3216C155.608 78.3216 155.063 78.4624 154.57 78.7439C154.078 79.0254 153.685 79.436 153.391 79.9756C153.098 80.5151 152.951 81.1485 152.951 81.8758C152.951 82.6148 153.098 83.2599 153.391 83.8112C153.685 84.3508 154.078 84.7672 154.57 85.0604C155.063 85.3419 155.608 85.4827 156.206 85.4827C156.805 85.4827 157.35 85.3419 157.843 85.0604C158.347 84.7672 158.746 84.3508 159.039 83.8112C159.332 83.2599 159.479 82.6206 159.479 81.8934ZM167.393 85.254L170.384 77.09H172.091L168.308 86.7319H166.443L162.66 77.09H164.384L167.393 85.254ZM182.464 81.5415C182.464 81.8465 182.446 82.169 182.411 82.5092H174.704C174.763 83.4593 175.086 84.2042 175.672 84.7437C176.27 85.2716 176.992 85.5355 177.836 85.5355C178.528 85.5355 179.103 85.3771 179.56 85.0604C180.03 84.732 180.358 84.298 180.546 83.7584H182.27C182.012 84.6851 181.496 85.4417 180.722 86.0281C179.948 86.6029 178.986 86.8903 177.836 86.8903C176.921 86.8903 176.1 86.685 175.373 86.2745C174.657 85.8639 174.094 85.2833 173.684 84.5326C173.273 83.7702 173.068 82.8904 173.068 81.8934C173.068 80.8963 173.267 80.0225 173.666 79.2718C174.065 78.5211 174.622 77.9463 175.338 77.5475C176.065 77.1369 176.898 76.9317 177.836 76.9317C178.751 76.9317 179.56 77.1311 180.264 77.5299C180.968 77.9287 181.508 78.48 181.883 79.1838C182.27 79.8758 182.464 80.6617 182.464 81.5415ZM180.81 81.2072C180.81 80.5972 180.675 80.0753 180.405 79.6412C180.135 79.1955 179.766 78.8612 179.297 78.6383C178.839 78.4038 178.329 78.2865 177.766 78.2865C176.956 78.2865 176.264 78.5445 175.69 79.0606C175.127 79.5767 174.804 80.2923 174.722 81.2072H180.81ZM197.573 77.09L191.766 91.2714H190.112L192.013 86.6264L188.124 77.09H189.901L192.928 84.9021L195.919 77.09H197.573ZM203.387 86.8903C202.484 86.8903 201.663 86.685 200.924 86.2745C200.197 85.8639 199.622 85.2833 199.2 84.5326C198.789 83.7702 198.584 82.8904 198.584 81.8934C198.584 80.9081 198.795 80.0401 199.217 79.2894C199.651 78.5269 200.238 77.9463 200.977 77.5475C201.716 77.1369 202.543 76.9317 203.458 76.9317C204.373 76.9317 205.199 77.1369 205.938 77.5475C206.677 77.9463 207.258 78.5211 207.68 79.2718C208.114 80.0225 208.331 80.8963 208.331 81.8934C208.331 82.8904 208.108 83.7702 207.663 84.5326C207.229 85.2833 206.636 85.8639 205.886 86.2745C205.135 86.685 204.302 86.8903 203.387 86.8903ZM203.387 85.4827C203.962 85.4827 204.502 85.3478 205.006 85.078C205.51 84.8082 205.915 84.4036 206.22 83.864C206.537 83.3244 206.695 82.6675 206.695 81.8934C206.695 81.1192 206.543 80.4623 206.238 79.9228C205.933 79.3832 205.534 78.9844 205.041 78.7263C204.548 78.4565 204.015 78.3216 203.44 78.3216C202.854 78.3216 202.314 78.4565 201.821 78.7263C201.34 78.9844 200.953 79.3832 200.66 79.9228C200.367 80.4623 200.22 81.1192 200.22 81.8934C200.22 82.6793 200.361 83.342 200.642 83.8816C200.936 84.4212 201.323 84.8258 201.804 85.0956C202.285 85.3537 202.812 85.4827 203.387 85.4827ZM218.988 77.09V86.7319H217.386V85.3068C217.081 85.7994 216.653 86.1865 216.102 86.468C215.562 86.7378 214.964 86.8727 214.307 86.8727C213.557 86.8727 212.882 86.7202 212.284 86.4152C211.686 86.0985 211.211 85.6293 210.859 85.0076C210.519 84.386 210.349 83.6294 210.349 82.7379V77.09H211.932V82.5268C211.932 83.4769 212.173 84.21 212.653 84.7261C213.134 85.2305 213.791 85.4827 214.624 85.4827C215.48 85.4827 216.155 85.2188 216.647 84.6909C217.14 84.1631 217.386 83.3948 217.386 82.386V77.09H218.988ZM223.292 78.6559C223.574 78.1046 223.972 77.6765 224.489 77.3715C225.016 77.0666 225.656 76.9141 226.406 76.9141V78.568H225.984C224.189 78.568 223.292 79.5415 223.292 81.4887V86.7319H221.691V77.09H223.292V78.6559ZM236.359 86.8903C235.62 86.8903 234.957 86.7671 234.371 86.5208C233.784 86.2627 233.321 85.9108 232.981 85.4651C232.64 85.0076 232.453 84.4857 232.418 83.8992H234.071C234.118 84.3801 234.341 84.7731 234.74 85.078C235.151 85.383 235.684 85.5355 236.341 85.5355C236.951 85.5355 237.432 85.4006 237.784 85.1308C238.136 84.861 238.312 84.5209 238.312 84.1103C238.312 83.688 238.124 83.3772 237.749 83.1778C237.373 82.9667 236.793 82.7614 236.007 82.562C235.291 82.3743 234.705 82.1866 234.247 81.9989C233.802 81.7995 233.415 81.5122 233.086 81.1368C232.769 80.7497 232.611 80.2453 232.611 79.6237C232.611 79.131 232.758 78.6794 233.051 78.2689C233.344 77.8583 233.761 77.5357 234.3 77.3011C234.84 77.0548 235.456 76.9317 236.148 76.9317C237.215 76.9317 238.077 77.2014 238.734 77.741C239.391 78.2806 239.743 79.0196 239.79 79.958H238.189C238.153 79.4536 237.948 79.0489 237.573 78.7439C237.209 78.4389 236.717 78.2865 236.095 78.2865C235.52 78.2865 235.063 78.4096 234.723 78.6559C234.382 78.9023 234.212 79.2248 234.212 79.6237C234.212 79.9404 234.312 80.2043 234.511 80.4154C234.723 80.6148 234.981 80.779 235.286 80.9081C235.602 81.0254 236.036 81.1603 236.588 81.3128C237.28 81.5004 237.843 81.6881 238.277 81.8758C238.711 82.0517 239.08 82.3215 239.385 82.6851C239.702 83.0488 239.866 83.5238 239.878 84.1103C239.878 84.6382 239.731 85.1132 239.438 85.5355C239.145 85.9578 238.728 86.2921 238.189 86.5384C237.661 86.773 237.051 86.8903 236.359 86.8903ZM250.935 81.5415C250.935 81.8465 250.918 82.169 250.883 82.5092H243.176C243.235 83.4593 243.557 84.2042 244.144 84.7437C244.742 85.2716 245.463 85.5355 246.308 85.5355C247 85.5355 247.575 85.3771 248.032 85.0604C248.501 84.732 248.83 84.298 249.018 83.7584H250.742C250.484 84.6851 249.968 85.4417 249.193 86.0281C248.419 86.6029 247.457 86.8903 246.308 86.8903C245.393 86.8903 244.572 86.685 243.845 86.2745C243.129 85.8639 242.566 85.2833 242.156 84.5326C241.745 83.7702 241.54 82.8904 241.54 81.8934C241.54 80.8963 241.739 80.0225 242.138 79.2718C242.537 78.5211 243.094 77.9463 243.809 77.5475C244.537 77.1369 245.37 76.9317 246.308 76.9317C247.223 76.9317 248.032 77.1311 248.736 77.5299C249.44 77.9287 249.979 78.48 250.355 79.1838C250.742 79.8758 250.935 80.6617 250.935 81.5415ZM249.281 81.2072C249.281 80.5972 249.147 80.0753 248.877 79.6412C248.607 79.1955 248.238 78.8612 247.768 78.6383C247.311 78.4038 246.801 78.2865 246.238 78.2865C245.428 78.2865 244.736 78.5445 244.161 79.0606C243.598 79.5767 243.276 80.2923 243.194 81.2072H249.281ZM261.846 81.5415C261.846 81.8465 261.829 82.169 261.793 82.5092H254.087C254.146 83.4593 254.468 84.2042 255.055 84.7437C255.653 85.2716 256.374 85.5355 257.219 85.5355C257.911 85.5355 258.486 85.3771 258.943 85.0604C259.412 84.732 259.741 84.298 259.928 83.7584H261.653C261.395 84.6851 260.878 85.4417 260.104 86.0281C259.33 86.6029 258.368 86.8903 257.219 86.8903C256.304 86.8903 255.483 86.685 254.755 86.2745C254.04 85.8639 253.477 85.2833 253.066 84.5326C252.656 83.7702 252.451 82.8904 252.451 81.8934C252.451 80.8963 252.65 80.0225 253.049 79.2718C253.448 78.5211 254.005 77.9463 254.72 77.5475C255.448 77.1369 256.28 76.9317 257.219 76.9317C258.134 76.9317 258.943 77.1311 259.647 77.5299C260.351 77.9287 260.89 78.48 261.266 79.1838C261.653 79.8758 261.846 80.6617 261.846 81.5415ZM260.192 81.2072C260.192 80.5972 260.057 80.0753 259.788 79.6412C259.518 79.1955 259.148 78.8612 258.679 78.6383C258.222 78.4038 257.711 78.2865 257.148 78.2865C256.339 78.2865 255.647 78.5445 255.072 79.0606C254.509 79.5767 254.187 80.2923 254.104 81.2072H260.192ZM263.361 81.8758C263.361 80.8905 263.561 80.0283 263.96 79.2894C264.358 78.5386 264.904 77.958 265.596 77.5475C266.3 77.1369 267.086 76.9317 267.954 76.9317C268.704 76.9317 269.402 77.1076 270.047 77.4595C270.693 77.7997 271.185 78.2513 271.525 78.8143V73.7118H273.144V86.7319H271.525V84.9197C271.209 85.4944 270.739 85.9695 270.118 86.3448C269.496 86.7085 268.769 86.8903 267.936 86.8903C267.08 86.8903 266.3 86.6791 265.596 86.2569C264.904 85.8346 264.358 85.2422 263.96 84.4798C263.561 83.7174 263.361 82.8494 263.361 81.8758ZM271.525 81.8934C271.525 81.1661 271.379 80.5327 271.085 79.9931C270.792 79.4536 270.393 79.043 269.889 78.7615C269.396 78.4683 268.851 78.3216 268.253 78.3216C267.654 78.3216 267.109 78.4624 266.616 78.7439C266.124 79.0254 265.731 79.436 265.438 79.9756C265.144 80.5151 264.998 81.1485 264.998 81.8758C264.998 82.6148 265.144 83.2599 265.438 83.8112C265.731 84.3508 266.124 84.7672 266.616 85.0604C267.109 85.3419 267.654 85.4827 268.253 85.4827C268.851 85.4827 269.396 85.3419 269.889 85.0604C270.393 84.7672 270.792 84.3508 271.085 83.8112C271.379 83.2599 271.525 82.6206 271.525 81.8934ZM282.142 78.8671C282.458 78.3158 282.928 77.8583 283.549 77.4947C284.183 77.1193 284.916 76.9317 285.749 76.9317C286.605 76.9317 287.379 77.1369 288.071 77.5475C288.775 77.958 289.326 78.5386 289.725 79.2894C290.124 80.0283 290.323 80.8905 290.323 81.8758C290.323 82.8494 290.124 83.7174 289.725 84.4798C289.326 85.2422 288.775 85.8346 288.071 86.2569C287.379 86.6791 286.605 86.8903 285.749 86.8903C284.928 86.8903 284.2 86.7085 283.567 86.3448C282.945 85.9695 282.47 85.5062 282.142 84.9549V91.3066H280.541V77.09H282.142V78.8671ZM288.687 81.8758C288.687 81.1485 288.54 80.5151 288.247 79.9756C287.954 79.436 287.555 79.0254 287.051 78.7439C286.558 78.4624 286.013 78.3216 285.414 78.3216C284.828 78.3216 284.282 78.4683 283.778 78.7615C283.285 79.043 282.887 79.4594 282.582 80.0107C282.288 80.5503 282.142 81.1779 282.142 81.8934C282.142 82.6206 282.288 83.2599 282.582 83.8112C282.887 84.3508 283.285 84.7672 283.778 85.0604C284.282 85.3419 284.828 85.4827 285.414 85.4827C286.013 85.4827 286.558 85.3419 287.051 85.0604C287.555 84.7672 287.954 84.3508 288.247 83.8112C288.54 83.2599 288.687 82.6148 288.687 81.8758ZM297.217 76.9141C297.944 76.9141 298.601 77.0724 299.187 77.3891C299.774 77.6941 300.231 78.1574 300.56 78.7791C300.9 79.4008 301.07 80.1574 301.07 81.0488V86.7319H299.486V81.2776C299.486 80.3157 299.246 79.5826 298.765 79.0782C298.284 78.5621 297.627 78.304 296.794 78.304C295.95 78.304 295.275 78.568 294.771 79.0958C294.278 79.6237 294.032 80.392 294.032 81.4007V86.7319H292.431V73.7118H294.032V78.4624C294.349 77.9697 294.783 77.5885 295.334 77.3187C295.897 77.049 296.524 76.9141 297.217 76.9141ZM305.286 78.6559C305.568 78.1046 305.967 77.6765 306.483 77.3715C307.011 77.0666 307.65 76.9141 308.401 76.9141V78.568H307.978C306.184 78.568 305.286 79.5415 305.286 81.4887V86.7319H303.685V77.09H305.286V78.6559ZM309.651 81.8758C309.651 80.8905 309.85 80.0283 310.249 79.2894C310.648 78.5386 311.193 77.958 311.885 77.5475C312.589 77.1369 313.369 76.9317 314.225 76.9317C315.07 76.9317 315.803 77.1135 316.425 77.4771C317.046 77.8407 317.51 78.2982 317.815 78.8495V77.09H319.433V86.7319H317.815V84.9373C317.498 85.5003 317.023 85.9695 316.389 86.3448C315.768 86.7085 315.041 86.8903 314.208 86.8903C313.351 86.8903 312.577 86.6791 311.885 86.2569C311.193 85.8346 310.648 85.2422 310.249 84.4798C309.85 83.7174 309.651 82.8494 309.651 81.8758ZM317.815 81.8934C317.815 81.1661 317.668 80.5327 317.375 79.9931C317.082 79.4536 316.683 79.043 316.178 78.7615C315.686 78.4683 315.14 78.3216 314.542 78.3216C313.944 78.3216 313.398 78.4624 312.906 78.7439C312.413 79.0254 312.02 79.436 311.727 79.9756C311.434 80.5151 311.287 81.1485 311.287 81.8758C311.287 82.6148 311.434 83.2599 311.727 83.8112C312.02 84.3508 312.413 84.7672 312.906 85.0604C313.398 85.3419 313.944 85.4827 314.542 85.4827C315.14 85.4827 315.686 85.3419 316.178 85.0604C316.683 84.7672 317.082 84.3508 317.375 83.8112C317.668 83.2599 317.815 82.6206 317.815 81.8934ZM325.553 86.8903C324.814 86.8903 324.151 86.7671 323.564 86.5208C322.978 86.2627 322.514 85.9108 322.174 85.4651C321.834 85.0076 321.646 84.4857 321.611 83.8992H323.265C323.312 84.3801 323.535 84.7731 323.934 85.078C324.344 85.383 324.878 85.5355 325.535 85.5355C326.145 85.5355 326.626 85.4006 326.978 85.1308C327.33 84.861 327.506 84.5209 327.506 84.1103C327.506 83.688 327.318 83.3772 326.942 83.1778C326.567 82.9667 325.987 82.7614 325.201 82.562C324.485 82.3743 323.899 82.1866 323.441 81.9989C322.995 81.7995 322.608 81.5122 322.28 81.1368C321.963 80.7497 321.805 80.2453 321.805 79.6237C321.805 79.131 321.951 78.6794 322.245 78.2689C322.538 77.8583 322.954 77.5357 323.494 77.3011C324.033 77.0548 324.649 76.9317 325.341 76.9317C326.409 76.9317 327.271 77.2014 327.928 77.741C328.585 78.2806 328.937 79.0196 328.983 79.958H327.382C327.347 79.4536 327.142 79.0489 326.767 78.7439C326.403 78.4389 325.91 78.2865 325.289 78.2865C324.714 78.2865 324.256 78.4096 323.916 78.6559C323.576 78.9023 323.406 79.2248 323.406 79.6237C323.406 79.9404 323.506 80.2043 323.705 80.4154C323.916 80.6148 324.174 80.779 324.479 80.9081C324.796 81.0254 325.23 81.1603 325.781 81.3128C326.473 81.5004 327.036 81.6881 327.47 81.8758C327.904 82.0517 328.274 82.3215 328.579 82.6851C328.896 83.0488 329.06 83.5238 329.071 84.1103C329.071 84.6382 328.925 85.1132 328.632 85.5355C328.338 85.9578 327.922 86.2921 327.382 86.5384C326.855 86.773 326.245 86.8903 325.553 86.8903ZM340.129 81.5415C340.129 81.8465 340.111 82.169 340.076 82.5092H332.37C332.428 83.4593 332.751 84.2042 333.337 84.7437C333.936 85.2716 334.657 85.5355 335.502 85.5355C336.194 85.5355 336.768 85.3771 337.226 85.0604C337.695 84.732 338.024 84.298 338.211 83.7584H339.936C339.677 84.6851 339.161 85.4417 338.387 86.0281C337.613 86.6029 336.651 86.8903 335.502 86.8903C334.587 86.8903 333.766 86.685 333.038 86.2745C332.323 85.8639 331.76 85.2833 331.349 84.5326C330.939 83.7702 330.733 82.8904 330.733 81.8934C330.733 80.8963 330.933 80.0225 331.332 79.2718C331.731 78.5211 332.288 77.9463 333.003 77.5475C333.73 77.1369 334.563 76.9317 335.502 76.9317C336.417 76.9317 337.226 77.1311 337.93 77.5299C338.634 77.9287 339.173 78.48 339.548 79.1838C339.936 79.8758 340.129 80.6617 340.129 81.5415ZM338.475 81.2072C338.475 80.5972 338.34 80.0753 338.07 79.6412C337.801 79.1955 337.431 78.8612 336.962 78.6383C336.505 78.4038 335.994 78.2865 335.431 78.2865C334.622 78.2865 333.93 78.5445 333.355 79.0606C332.792 79.5767 332.469 80.2923 332.387 81.2072H338.475ZM342.753 86.8375C342.448 86.8375 342.19 86.7319 341.979 86.5208C341.767 86.3097 341.662 86.0516 341.662 85.7466C341.662 85.4417 341.767 85.1836 341.979 84.9725C342.19 84.7613 342.448 84.6558 342.753 84.6558C343.046 84.6558 343.292 84.7613 343.492 84.9725C343.703 85.1836 343.808 85.4417 343.808 85.7466C343.808 86.0516 343.703 86.3097 343.492 86.5208C343.292 86.7319 343.046 86.8375 342.753 86.8375ZM66.3907 112.732H64.7896L58.3499 102.967V112.732H56.7488V100.451H58.3499L64.7896 110.198V100.451H66.3907V112.732ZM77.9175 107.541C77.9175 107.846 77.8999 108.169 77.8647 108.509H70.1582C70.2169 109.459 70.5394 110.204 71.1259 110.744C71.7242 111.272 72.4455 111.535 73.2901 111.535C73.9821 111.535 74.5569 111.377 75.0144 111.06C75.4836 110.732 75.812 110.298 75.9997 109.758H77.724C77.4659 110.685 76.9498 111.442 76.1756 112.028C75.4015 112.603 74.4396 112.89 73.2901 112.89C72.3752 112.89 71.5541 112.685 70.8268 112.274C70.1113 111.864 69.5483 111.283 69.1377 110.533C68.7272 109.77 68.5219 108.89 68.5219 107.893C68.5219 106.896 68.7213 106.022 69.1201 105.272C69.5189 104.521 70.0761 103.946 70.7916 103.547C71.5189 103.137 72.3517 102.932 73.2901 102.932C74.205 102.932 75.0144 103.131 75.7182 103.53C76.422 103.929 76.9615 104.48 77.3369 105.184C77.724 105.876 77.9175 106.662 77.9175 107.541ZM76.2636 107.207C76.2636 106.597 76.1287 106.075 75.8589 105.641C75.5891 105.196 75.2196 104.861 74.7505 104.638C74.293 104.404 73.7827 104.286 73.2197 104.286C72.4103 104.286 71.7183 104.545 71.1435 105.061C70.5805 105.577 70.2579 106.292 70.1758 107.207H76.2636ZM83.6203 111.254L86.6114 103.09H88.3181L84.5352 112.732H82.6701L78.8873 103.09H80.6116L83.6203 111.254ZM98.691 107.541C98.691 107.846 98.6734 108.169 98.6382 108.509H90.9317C90.9904 109.459 91.3129 110.204 91.8994 110.744C92.4976 111.272 93.219 111.535 94.0636 111.535C94.7556 111.535 95.3304 111.377 95.7879 111.06C96.257 110.732 96.5855 110.298 96.7732 109.758H98.4974C98.2394 110.685 97.7233 111.442 96.9491 112.028C96.1749 112.603 95.2131 112.89 94.0636 112.89C93.1486 112.89 92.3276 112.685 91.6003 112.274C90.8848 111.864 90.3218 111.283 89.9112 110.533C89.5007 109.77 89.2954 108.89 89.2954 107.893C89.2954 106.896 89.4948 106.022 89.8936 105.272C90.2924 104.521 90.8496 103.946 91.5651 103.547C92.2924 103.137 93.1252 102.932 94.0636 102.932C94.9785 102.932 95.7879 103.131 96.4916 103.53C97.1954 103.929 97.735 104.48 98.1104 105.184C98.4974 105.876 98.691 106.662 98.691 107.541ZM97.0371 107.207C97.0371 106.597 96.9022 106.075 96.6324 105.641C96.3626 105.196 95.9931 104.861 95.5239 104.638C95.0665 104.404 94.5562 104.286 93.9932 104.286C93.1838 104.286 92.4918 104.545 91.917 105.061C91.354 105.577 91.0314 106.292 90.9493 107.207H97.0371ZM102.406 104.656C102.687 104.105 103.086 103.677 103.602 103.372C104.13 103.067 104.769 102.914 105.52 102.914V104.568H105.098C103.303 104.568 102.406 105.542 102.406 107.489V112.732H100.804V103.09H102.406V104.656ZM115.472 112.89C114.733 112.89 114.071 112.767 113.484 112.521C112.898 112.263 112.434 111.911 112.094 111.465C111.754 111.008 111.566 110.486 111.531 109.899H113.185C113.232 110.38 113.455 110.773 113.854 111.078C114.264 111.383 114.798 111.535 115.455 111.535C116.065 111.535 116.546 111.401 116.897 111.131C117.249 110.861 117.425 110.521 117.425 110.11C117.425 109.688 117.238 109.377 116.862 109.178C116.487 108.967 115.906 108.761 115.12 108.562C114.405 108.374 113.818 108.187 113.361 107.999C112.915 107.8 112.528 107.512 112.2 107.137C111.883 106.75 111.725 106.245 111.725 105.624C111.725 105.131 111.871 104.679 112.164 104.269C112.458 103.858 112.874 103.536 113.414 103.301C113.953 103.055 114.569 102.932 115.261 102.932C116.329 102.932 117.191 103.201 117.848 103.741C118.504 104.281 118.856 105.02 118.903 105.958H117.302C117.267 105.454 117.062 105.049 116.686 104.744C116.323 104.439 115.83 104.286 115.208 104.286C114.634 104.286 114.176 104.41 113.836 104.656C113.496 104.902 113.326 105.225 113.326 105.624C113.326 105.94 113.425 106.204 113.625 106.415C113.836 106.615 114.094 106.779 114.399 106.908C114.716 107.025 115.15 107.16 115.701 107.313C116.393 107.5 116.956 107.688 117.39 107.876C117.824 108.052 118.194 108.322 118.499 108.685C118.815 109.049 118.979 109.524 118.991 110.11C118.991 110.638 118.845 111.113 118.551 111.535C118.258 111.958 117.842 112.292 117.302 112.538C116.774 112.773 116.164 112.89 115.472 112.89ZM126.037 102.914C126.764 102.914 127.421 103.072 128.008 103.389C128.594 103.694 129.052 104.157 129.38 104.779C129.72 105.401 129.89 106.157 129.89 107.049V112.732H128.307V107.278C128.307 106.316 128.066 105.583 127.586 105.078C127.105 104.562 126.448 104.304 125.615 104.304C124.77 104.304 124.096 104.568 123.592 105.096C123.099 105.624 122.853 106.392 122.853 107.401V112.732H121.251V99.7118H122.853V104.462C123.169 103.97 123.603 103.589 124.155 103.319C124.718 103.049 125.345 102.914 126.037 102.914ZM131.908 107.876C131.908 106.89 132.107 106.028 132.506 105.289C132.905 104.539 133.45 103.958 134.142 103.547C134.846 103.137 135.626 102.932 136.482 102.932C137.327 102.932 138.06 103.113 138.682 103.477C139.303 103.841 139.767 104.298 140.072 104.849V103.09H141.69V112.732H140.072V110.937C139.755 111.5 139.28 111.969 138.646 112.345C138.025 112.708 137.298 112.89 136.465 112.89C135.608 112.89 134.834 112.679 134.142 112.257C133.45 111.835 132.905 111.242 132.506 110.48C132.107 109.717 131.908 108.849 131.908 107.876ZM140.072 107.893C140.072 107.166 139.925 106.533 139.632 105.993C139.339 105.454 138.94 105.043 138.435 104.762C137.943 104.468 137.397 104.322 136.799 104.322C136.201 104.322 135.655 104.462 135.163 104.744C134.67 105.025 134.277 105.436 133.984 105.976C133.691 106.515 133.544 107.149 133.544 107.876C133.544 108.615 133.691 109.26 133.984 109.811C134.277 110.351 134.67 110.767 135.163 111.06C135.655 111.342 136.201 111.483 136.799 111.483C137.397 111.483 137.943 111.342 138.435 111.06C138.94 110.767 139.339 110.351 139.632 109.811C139.925 109.26 140.072 108.621 140.072 107.893ZM145.997 104.656C146.279 104.105 146.678 103.677 147.194 103.372C147.721 103.067 148.361 102.914 149.111 102.914V104.568H148.689C146.895 104.568 145.997 105.542 145.997 107.489V112.732H144.396V103.09H145.997V104.656ZM159.757 107.541C159.757 107.846 159.74 108.169 159.704 108.509H151.998C152.057 109.459 152.379 110.204 152.966 110.744C153.564 111.272 154.285 111.535 155.13 111.535C155.822 111.535 156.397 111.377 156.854 111.06C157.323 110.732 157.652 110.298 157.839 109.758H159.564C159.306 110.685 158.789 111.442 158.015 112.028C157.241 112.603 156.279 112.89 155.13 112.89C154.215 112.89 153.394 112.685 152.666 112.274C151.951 111.864 151.388 111.283 150.977 110.533C150.567 109.77 150.362 108.89 150.362 107.893C150.362 106.896 150.561 106.022 150.96 105.272C151.359 104.521 151.916 103.946 152.631 103.547C153.359 103.137 154.191 102.932 155.13 102.932C156.045 102.932 156.854 103.131 157.558 103.53C158.262 103.929 158.801 104.48 159.177 105.184C159.564 105.876 159.757 106.662 159.757 107.541ZM158.103 107.207C158.103 106.597 157.968 106.075 157.699 105.641C157.429 105.196 157.059 104.861 156.59 104.638C156.133 104.404 155.622 104.286 155.059 104.286C154.25 104.286 153.558 104.545 152.983 105.061C152.42 105.577 152.098 106.292 152.015 107.207H158.103ZM168.514 104.41V110.093C168.514 110.562 168.614 110.896 168.813 111.096C169.013 111.283 169.359 111.377 169.852 111.377H171.03V112.732H169.588C168.696 112.732 168.028 112.527 167.582 112.116C167.136 111.706 166.913 111.031 166.913 110.093V104.41H165.664V103.09H166.913V100.662H168.514V103.09H171.03V104.41H168.514ZM177.756 102.914C178.483 102.914 179.14 103.072 179.727 103.389C180.313 103.694 180.771 104.157 181.099 104.779C181.439 105.401 181.609 106.157 181.609 107.049V112.732H180.026V107.278C180.026 106.316 179.785 105.583 179.304 105.078C178.824 104.562 178.167 104.304 177.334 104.304C176.489 104.304 175.815 104.568 175.31 105.096C174.818 105.624 174.572 106.392 174.572 107.401V112.732H172.97V99.7118H174.572V104.462C174.888 103.97 175.322 103.589 175.874 103.319C176.437 103.049 177.064 102.914 177.756 102.914ZM185.052 101.524C184.747 101.524 184.489 101.419 184.278 101.207C184.066 100.996 183.961 100.738 183.961 100.433C183.961 100.128 184.066 99.8702 184.278 99.659C184.489 99.4479 184.747 99.3423 185.052 99.3423C185.345 99.3423 185.591 99.4479 185.791 99.659C186.002 99.8702 186.107 100.128 186.107 100.433C186.107 100.738 186.002 100.996 185.791 101.207C185.591 101.419 185.345 101.524 185.052 101.524ZM185.826 103.09V112.732H184.225V103.09H185.826ZM191.968 112.89C191.229 112.89 190.566 112.767 189.98 112.521C189.393 112.263 188.93 111.911 188.59 111.465C188.25 111.008 188.062 110.486 188.027 109.899H189.681C189.728 110.38 189.951 110.773 190.349 111.078C190.76 111.383 191.294 111.535 191.951 111.535C192.561 111.535 193.041 111.401 193.393 111.131C193.745 110.861 193.921 110.521 193.921 110.11C193.921 109.688 193.734 109.377 193.358 109.178C192.983 108.967 192.402 108.761 191.616 108.562C190.901 108.374 190.314 108.187 189.857 107.999C189.411 107.8 189.024 107.512 188.696 107.137C188.379 106.75 188.22 106.245 188.22 105.624C188.22 105.131 188.367 104.679 188.66 104.269C188.954 103.858 189.37 103.536 189.91 103.301C190.449 103.055 191.065 102.932 191.757 102.932C192.824 102.932 193.687 103.201 194.343 103.741C195 104.281 195.352 105.02 195.399 105.958H193.798C193.763 105.454 193.558 105.049 193.182 104.744C192.819 104.439 192.326 104.286 191.704 104.286C191.129 104.286 190.672 104.41 190.332 104.656C189.992 104.902 189.822 105.225 189.822 105.624C189.822 105.94 189.921 106.204 190.121 106.415C190.332 106.615 190.59 106.779 190.895 106.908C191.212 107.025 191.646 107.16 192.197 107.313C192.889 107.5 193.452 107.688 193.886 107.876C194.32 108.052 194.689 108.322 194.994 108.685C195.311 109.049 195.475 109.524 195.487 110.11C195.487 110.638 195.341 111.113 195.047 111.535C194.754 111.958 194.338 112.292 193.798 112.538C193.27 112.773 192.66 112.89 191.968 112.89ZM215.282 103.09L212.274 112.732H210.62L208.297 105.078L205.975 112.732H204.321L201.294 103.09H202.931L205.148 111.184L207.541 103.09H209.177L211.517 111.201L213.699 103.09H215.282ZM217.698 101.524C217.393 101.524 217.135 101.419 216.924 101.207C216.713 100.996 216.607 100.738 216.607 100.433C216.607 100.128 216.713 99.8702 216.924 99.659C217.135 99.4479 217.393 99.3423 217.698 99.3423C217.992 99.3423 218.238 99.4479 218.437 99.659C218.648 99.8702 218.754 100.128 218.754 100.433C218.754 100.738 218.648 100.996 218.437 101.207C218.238 101.419 217.992 101.524 217.698 101.524ZM218.472 103.09V112.732H216.871V103.09H218.472ZM223.154 104.41V110.093C223.154 110.562 223.254 110.896 223.453 111.096C223.653 111.283 223.999 111.377 224.492 111.377H225.67V112.732H224.228C223.336 112.732 222.668 112.527 222.222 112.116C221.776 111.706 221.553 111.031 221.553 110.093V104.41H220.304V103.09H221.553V100.662H223.154V103.09H225.67V104.41H223.154ZM232.396 102.914C233.123 102.914 233.78 103.072 234.367 103.389C234.953 103.694 235.411 104.157 235.739 104.779C236.079 105.401 236.249 106.157 236.249 107.049V112.732H234.666V107.278C234.666 106.316 234.425 105.583 233.944 105.078C233.464 104.562 232.807 104.304 231.974 104.304C231.129 104.304 230.455 104.568 229.95 105.096C229.458 105.624 229.211 106.392 229.211 107.401V112.732H227.61V99.7118H229.211V104.462C229.528 103.97 229.962 103.589 230.513 103.319C231.076 103.049 231.704 102.914 232.396 102.914ZM242.957 107.876C242.957 106.89 243.157 106.028 243.556 105.289C243.954 104.539 244.5 103.958 245.192 103.547C245.896 103.137 246.676 102.932 247.532 102.932C248.377 102.932 249.11 103.113 249.731 103.477C250.353 103.841 250.816 104.298 251.121 104.849V103.09H252.74V112.732H251.121V110.937C250.805 111.5 250.33 111.969 249.696 112.345C249.074 112.708 248.347 112.89 247.514 112.89C246.658 112.89 245.884 112.679 245.192 112.257C244.5 111.835 243.954 111.242 243.556 110.48C243.157 109.717 242.957 108.849 242.957 107.876ZM251.121 107.893C251.121 107.166 250.975 106.533 250.681 105.993C250.388 105.454 249.989 105.043 249.485 104.762C248.992 104.468 248.447 104.322 247.849 104.322C247.25 104.322 246.705 104.462 246.212 104.744C245.72 105.025 245.327 105.436 245.034 105.976C244.74 106.515 244.594 107.149 244.594 107.876C244.594 108.615 244.74 109.26 245.034 109.811C245.327 110.351 245.72 110.767 246.212 111.06C246.705 111.342 247.25 111.483 247.849 111.483C248.447 111.483 248.992 111.342 249.485 111.06C249.989 110.767 250.388 110.351 250.681 109.811C250.975 109.26 251.121 108.621 251.121 107.893ZM260.144 102.914C261.317 102.914 262.267 103.272 262.994 103.987C263.721 104.691 264.085 105.712 264.085 107.049V112.732H262.501V107.278C262.501 106.316 262.261 105.583 261.78 105.078C261.299 104.562 260.642 104.304 259.809 104.304C258.965 104.304 258.29 104.568 257.786 105.096C257.293 105.624 257.047 106.392 257.047 107.401V112.732H255.446V103.09H257.047V104.462C257.364 103.97 257.792 103.589 258.331 103.319C258.883 103.049 259.487 102.914 260.144 102.914ZM275.005 103.09L269.199 117.271H267.545L269.445 112.626L265.557 103.09H267.334L270.36 110.902L273.351 103.09H275.005ZM280.82 112.89C279.916 112.89 279.095 112.685 278.356 112.274C277.629 111.864 277.054 111.283 276.632 110.533C276.221 109.77 276.016 108.89 276.016 107.893C276.016 106.908 276.227 106.04 276.65 105.289C277.084 104.527 277.67 103.946 278.409 103.547C279.148 103.137 279.975 102.932 280.89 102.932C281.805 102.932 282.632 103.137 283.371 103.547C284.11 103.946 284.69 104.521 285.113 105.272C285.547 106.022 285.764 106.896 285.764 107.893C285.764 108.89 285.541 109.77 285.095 110.533C284.661 111.283 284.069 111.864 283.318 112.274C282.567 112.685 281.735 112.89 280.82 112.89ZM280.82 111.483C281.394 111.483 281.934 111.348 282.438 111.078C282.943 110.808 283.347 110.404 283.652 109.864C283.969 109.324 284.127 108.668 284.127 107.893C284.127 107.119 283.975 106.462 283.67 105.923C283.365 105.383 282.966 104.984 282.473 104.726C281.981 104.457 281.447 104.322 280.872 104.322C280.286 104.322 279.746 104.457 279.254 104.726C278.773 104.984 278.386 105.383 278.092 105.923C277.799 106.462 277.653 107.119 277.653 107.893C277.653 108.679 277.793 109.342 278.075 109.882C278.368 110.421 278.755 110.826 279.236 111.096C279.717 111.354 280.245 111.483 280.82 111.483ZM292.567 102.914C293.74 102.914 294.69 103.272 295.417 103.987C296.144 104.691 296.508 105.712 296.508 107.049V112.732H294.924V107.278C294.924 106.316 294.684 105.583 294.203 105.078C293.722 104.562 293.065 104.304 292.232 104.304C291.388 104.304 290.713 104.568 290.209 105.096C289.716 105.624 289.47 106.392 289.47 107.401V112.732H287.869V103.09H289.47V104.462C289.787 103.97 290.215 103.589 290.754 103.319C291.306 103.049 291.91 102.914 292.567 102.914ZM307.921 107.541C307.921 107.846 307.903 108.169 307.868 108.509H300.161C300.22 109.459 300.543 110.204 301.129 110.744C301.727 111.272 302.449 111.535 303.293 111.535C303.985 111.535 304.56 111.377 305.018 111.06C305.487 110.732 305.815 110.298 306.003 109.758H307.727C307.469 110.685 306.953 111.442 306.179 112.028C305.405 112.603 304.443 112.89 303.293 112.89C302.378 112.89 301.557 112.685 300.83 112.274C300.115 111.864 299.551 111.283 299.141 110.533C298.73 109.77 298.525 108.89 298.525 107.893C298.525 106.896 298.725 106.022 299.123 105.272C299.522 104.521 300.079 103.946 300.795 103.547C301.522 103.137 302.355 102.932 303.293 102.932C304.208 102.932 305.018 103.131 305.721 103.53C306.425 103.929 306.965 104.48 307.34 105.184C307.727 105.876 307.921 106.662 307.921 107.541ZM306.267 107.207C306.267 106.597 306.132 106.075 305.862 105.641C305.592 105.196 305.223 104.861 304.754 104.638C304.296 104.404 303.786 104.286 303.223 104.286C302.414 104.286 301.722 104.545 301.147 105.061C300.584 105.577 300.261 106.292 300.179 107.207H306.267ZM310.544 112.838C310.239 112.838 309.981 112.732 309.77 112.521C309.559 112.31 309.454 112.052 309.454 111.747C309.454 111.442 309.559 111.184 309.77 110.972C309.981 110.761 310.239 110.656 310.544 110.656C310.838 110.656 311.084 110.761 311.283 110.972C311.495 111.184 311.6 111.442 311.6 111.747C311.6 112.052 311.495 112.31 311.283 112.521C311.084 112.732 310.838 112.838 310.544 112.838Z" fill="white"/>
</svg>
