<svg width="885" height="75" viewBox="0 0 885 75" fill="none" xmlns="http://www.w3.org/2000/svg">
<g filter="url(#filter0_d_160_6078)">
<path d="M38.5317 39.5873C36.9451 39.7988 35.4644 39.9311 34.0894 39.9839C32.7673 40.0368 31.498 40.0633 30.2817 40.0633C26.7384 40.0633 24.3586 39.7988 23.1423 39.27C21.9259 38.6883 21.3178 37.7099 21.3178 36.3349C21.3178 35.4359 21.6086 34.6162 22.1904 33.8758C22.825 33.1354 23.724 32.5008 24.8875 31.9719C26.2625 31.3902 28.2721 30.8614 30.9163 30.3854C33.6134 29.8566 36.3898 29.5921 39.2456 29.5921C42.9475 29.5921 45.8033 29.9094 47.8129 30.5441C49.8754 31.1258 50.9066 32.2628 50.9066 33.9551C50.9066 35.2772 50.3778 36.4142 49.3201 37.3662C48.2624 38.2652 46.5172 38.8469 44.0845 39.1113L38.5317 39.5873ZM44.4018 38.0008C45.7768 39.746 46.7552 41.5176 47.3369 43.3157C47.9187 45.1137 48.2095 46.7267 48.2095 48.1546C48.2095 50.5344 47.4956 52.8349 46.0677 55.056C44.6927 57.2243 42.5244 59.0224 39.5629 60.4502C36.6014 61.8252 32.7144 62.5127 27.9019 62.5127C21.7144 62.5127 16.5582 61.3757 12.4332 59.1017C8.36107 56.7748 5.32021 53.5224 3.3106 49.3445C1.30099 45.1137 0.296189 40.1955 0.296189 34.5897C0.296189 28.5609 1.56542 23.2196 4.10387 18.5657C6.64233 13.9119 10.2385 10.2893 14.8923 7.69797C19.5461 5.05374 24.9932 3.73163 31.2336 3.73163C36.4163 3.73163 40.3826 4.65711 43.1326 6.50806C45.9355 8.30614 47.3369 10.4215 47.3369 12.8542C47.3369 14.335 46.8345 15.4984 45.8297 16.3446C44.8778 17.1378 43.4764 17.5345 41.6254 17.5345C40.5148 17.5345 39.3514 17.3494 38.135 16.9792C36.9716 16.609 35.6495 16.2652 34.1687 15.9479C32.7408 15.5778 31.1014 15.3927 29.2504 15.3927C25.8658 15.3927 22.7457 16.0273 19.8899 17.2965C17.0341 18.5128 14.7337 20.5489 12.9885 23.4047C11.2962 26.2075 10.45 29.9888 10.45 34.7484C10.45 38.8205 11.2168 42.1522 12.7505 44.7435C14.337 47.282 16.5317 49.1594 19.3346 50.3757C22.1375 51.5392 25.337 52.1209 28.9331 52.1209C31.3658 52.1209 33.2697 51.8565 34.6447 51.3277C36.0725 50.7988 37.0773 50.0056 37.6591 48.9479C38.2937 47.8902 38.611 46.5416 38.611 44.9022C38.611 44.0032 38.4788 42.8926 38.2144 41.5705C38.0028 40.2484 37.6591 38.9263 37.1831 37.6041L44.4018 38.0008ZM82.1694 6.42874C86.4002 6.42874 89.3353 6.93114 90.9747 7.93594C92.6141 8.94075 93.4338 10.3951 93.4338 12.2989C93.4338 14.3085 92.4555 15.8422 90.4987 16.8999C88.5949 17.9047 85.6069 18.4071 81.5348 18.4071C79.3665 18.4071 76.9074 18.3806 74.1574 18.3277C71.4603 18.222 68.6574 18.0633 65.7488 17.8518L67.018 16.8999C67.494 19.1739 67.6262 21.6595 67.4147 24.3566C67.2031 27.0008 66.6214 29.5393 65.6695 31.9719L65.2728 31.4167C66.8065 30.8349 68.631 30.3061 70.7464 29.8301C72.8618 29.3542 75.0565 28.9575 77.3305 28.6402C79.6045 28.3229 81.6935 28.1643 83.5973 28.1643C87.0348 28.1643 89.4675 28.6138 90.8954 29.5128C92.3232 30.4118 93.0372 31.496 93.0372 32.7652C93.0372 34.1931 92.2175 35.4094 90.5781 36.4142C88.9386 37.419 86.1622 37.9214 82.2488 37.9214C79.1815 37.9214 76.1406 37.8421 73.1262 37.6835C70.1118 37.5248 67.2296 37.3397 64.4796 37.1282L65.4315 36.5729C66.0132 38.1594 66.4363 40.0368 66.7007 42.2051C67.018 44.3734 67.1767 46.5416 67.1767 48.7099C67.1767 50.8253 66.9651 52.7027 66.5421 54.3421L65.6695 53.8661C67.4147 53.0729 69.4243 52.3854 71.6983 51.8036C73.9723 51.169 76.2728 50.693 78.5997 50.3757C80.9795 50.0584 83.2007 49.8998 85.2632 49.8998C88.2247 49.8998 90.4194 50.2171 91.8473 50.8517C93.328 51.4863 94.0684 52.5704 94.0684 54.1041C94.0684 55.532 93.3545 56.8541 91.9266 58.0704C90.4987 59.2868 88.6213 60.2651 86.2944 61.0055C84.0204 61.7459 81.5613 62.1161 78.917 62.1161C73.893 62.1161 69.7416 61.4022 66.4627 59.9743C63.1839 58.5464 60.7777 56.4046 59.244 53.5488C58.6094 52.3325 58.0541 50.9575 57.5781 49.4238C57.1022 47.8373 56.732 46.0657 56.4676 44.1089C56.256 42.1522 56.1503 39.9839 56.1503 37.6041C56.1503 32.3157 56.5998 27.9263 57.4988 24.4359C58.4507 20.8926 59.72 18.0633 61.3065 15.9479C63.6863 12.722 66.7007 10.3422 70.3497 8.80854C74.0517 7.222 77.9915 6.42874 82.1694 6.42874ZM120.78 0.161925C122.631 0.161925 124.667 0.267694 126.889 0.479232C129.11 0.637887 131.225 1.00808 133.235 1.58981C135.244 2.17153 136.884 3.01769 138.153 4.12826C139.475 5.18595 140.136 6.64027 140.136 8.49123C140.136 10.448 139.211 11.823 137.36 12.6162C135.562 13.4095 132.812 13.8061 129.11 13.8061C127.893 13.8061 126.571 13.7532 125.143 13.6475C123.768 13.5417 122.367 13.383 120.939 13.1715L122.764 10.871C123.24 13.5681 123.663 16.5561 124.033 19.835C124.403 23.0609 124.72 26.3397 124.985 29.6715C125.302 33.0032 125.514 36.1498 125.619 39.1113C125.778 42.0729 125.857 44.5849 125.857 46.6474C125.857 51.3012 125.355 54.7916 124.35 57.1185C123.398 59.4454 121.759 60.6089 119.432 60.6089C116.999 60.6089 115.254 59.419 114.196 57.0392C113.139 54.6594 112.61 50.9839 112.61 46.0128C112.61 43.633 112.716 40.9094 112.927 37.8421C113.192 34.7219 113.535 31.5489 113.958 28.3229C114.381 25.097 114.831 21.9768 115.307 18.9624C115.836 15.9479 116.365 13.3302 116.893 11.109L119.115 13.1715C117.898 13.383 116.338 13.5946 114.434 13.8061C112.53 14.0177 110.785 14.1234 109.199 14.1234C105.18 14.1234 102.271 13.8326 100.473 13.2508C98.7276 12.6691 97.855 11.4792 97.855 9.68113C97.855 7.77729 98.569 6.2172 99.9969 5.00085C101.478 3.78451 103.355 2.83259 105.629 2.14509C107.956 1.40471 110.442 0.902306 113.086 0.637884C115.783 0.320578 118.348 0.161925 120.78 0.161925ZM180.62 62.3541C178.716 62.3541 177.156 61.6666 175.94 60.2916C174.776 58.8637 174.195 56.3252 174.195 52.6762C174.195 50.0849 174.38 47.4142 174.75 44.6642C175.12 41.9142 175.596 39.2964 176.178 36.8109C176.76 34.3253 177.394 32.2364 178.082 30.5441L178.558 32.7652C173.586 29.1691 169.726 25.9696 166.976 23.1667C164.226 20.3638 162.296 17.9047 161.185 15.7893C160.074 13.621 159.519 11.7436 159.519 10.1571C159.519 8.83498 159.784 7.72441 160.312 6.82537C160.894 5.92633 161.635 5.23884 162.534 4.76288C163.433 4.23403 164.437 3.96961 165.548 3.96961C168.086 3.96961 170.651 5.89989 173.243 9.76046C175.887 13.621 178.637 19.359 181.493 26.9744H181.81C184.19 21.5273 186.596 17.0585 189.029 13.5681C191.514 10.0249 193.894 7.4071 196.168 5.71479C198.442 3.96961 200.425 3.09701 202.118 3.09701C203.651 3.09701 204.841 3.62586 205.687 4.68355C206.533 5.68835 206.957 7.01046 206.957 8.64988C206.957 11.0297 206.031 13.6475 204.18 16.5032C202.329 19.3061 199.685 22.1354 196.247 24.9912C192.81 27.847 188.685 30.4647 183.872 32.8445L184.586 31.3373C185.274 33.4527 185.882 35.7532 186.411 38.2388C186.993 40.6714 187.442 43.1041 187.759 45.5368C188.077 47.9166 188.235 50.0584 188.235 51.9623C188.235 55.3469 187.522 57.9382 186.094 59.7363C184.719 61.4815 182.894 62.3541 180.62 62.3541ZM234.607 58.7844C229.53 58.7844 225.088 57.8853 221.28 56.0873C217.525 54.2363 214.59 51.4863 212.475 47.8373C210.412 44.1883 209.381 39.5873 209.381 34.0344C209.381 29.4864 210.042 25.3614 211.364 21.6595C212.686 17.9576 214.511 14.7845 216.838 12.1403C219.217 9.49604 221.941 7.48643 225.008 6.11143C228.076 4.68355 231.354 3.96961 234.845 3.96961C238.282 3.96961 241.535 4.6571 244.602 6.0321C247.669 7.35421 250.366 9.25806 252.693 11.7436C255.073 14.2292 256.924 17.2172 258.246 20.7075C259.568 24.1979 260.229 28.0849 260.229 32.3686C260.229 38.2388 259.172 43.1306 257.056 47.044C254.941 50.9575 251.953 53.8926 248.092 55.8493C244.285 57.806 239.79 58.7844 234.607 58.7844ZM234.686 47.3613C238.917 47.3613 242.302 46.0657 244.84 43.4743C247.378 40.8301 248.648 36.9431 248.648 31.8133C248.648 28.27 247.96 25.1763 246.585 22.5321C245.21 19.835 243.439 17.746 241.27 16.2653C239.155 14.7845 236.96 14.0441 234.686 14.0441C232.412 14.0441 230.191 14.7845 228.023 16.2653C225.907 17.746 224.162 19.835 222.787 22.5321C221.412 25.1763 220.725 28.27 220.725 31.8133C220.725 36.9431 221.994 40.8301 224.532 43.4743C227.124 46.0657 230.508 47.3613 234.686 47.3613ZM288.252 59.1017C284.603 59.1017 281.562 58.3613 279.13 56.8805C276.75 55.3998 274.899 53.2051 273.577 50.2964C272.255 47.3878 271.356 43.7916 270.88 39.508C270.562 36.3349 270.271 33.0825 270.007 29.7508C269.796 26.4191 269.637 23.2724 269.531 20.3109C269.425 17.3494 269.372 14.8638 269.372 12.8542C269.372 9.04652 270.033 6.37585 271.356 4.8422C272.678 3.25567 274.317 2.4624 276.274 2.4624C277.966 2.4624 279.209 2.93836 280.002 3.89028C280.848 4.8422 281.271 6.29652 281.271 8.25325C281.271 9.57536 281.271 11.2677 281.271 13.3302C281.271 15.3398 281.245 17.5609 281.192 19.9936C281.192 22.4263 281.192 24.8854 281.192 27.371C281.192 29.8566 281.192 32.2099 281.192 34.4311C281.192 39.4022 281.932 42.8661 283.413 44.8229C284.894 46.7267 286.983 47.6786 289.68 47.6786C292.113 47.6786 294.017 46.6738 295.392 44.6642C296.767 42.6546 297.666 39.508 298.089 35.2243C298.247 33.5849 298.353 31.6017 298.406 29.2748C298.512 26.895 298.565 24.4359 298.565 21.8974C298.618 19.359 298.644 17.0321 298.644 14.9167C298.644 12.7484 298.644 11.0297 298.644 9.76046C298.644 5.15951 300.31 2.85903 303.642 2.85903C305.44 2.85903 306.92 3.49365 308.084 4.76288C309.3 6.0321 309.908 8.20037 309.908 11.2677C309.908 13.1715 309.829 15.5249 309.67 18.3277C309.565 21.1306 309.406 24.1715 309.194 27.4503C308.983 30.6763 308.718 33.8758 308.401 37.0489C307.925 41.9142 306.894 45.9863 305.307 49.2652C303.774 52.544 301.606 55.0031 298.803 56.6426C296 58.282 292.483 59.1017 288.252 59.1017ZM327.009 62.1954C325.264 62.1954 323.916 61.6666 322.964 60.6089C322.012 59.4983 321.324 57.7267 320.901 55.294C320.531 52.8084 320.346 49.5031 320.346 45.3782C320.346 37.3926 320.796 30.5441 321.695 24.8325C322.594 19.0681 324.127 14.5994 326.296 11.4263C328.411 8.35902 331.082 6.19076 334.308 4.92153C337.586 3.6523 341.13 3.01769 344.937 3.01769C351.389 3.01769 356.149 4.5249 359.216 7.53931C362.283 10.5537 363.817 14.4936 363.817 19.359C363.817 23.6955 362.68 27.2388 360.406 29.9888C358.132 32.7388 355.065 34.6691 351.204 35.7796C347.396 36.8373 343.139 37.1017 338.433 36.5729V36.8902C347.317 40.6979 353.69 44.294 357.55 47.6786C361.464 51.0104 363.42 53.8926 363.42 56.3252C363.42 57.806 362.918 58.9959 361.913 59.8949C360.961 60.794 359.613 61.2435 357.868 61.2435C355.752 61.2435 353.372 60.5296 350.728 59.1017C348.084 57.6738 345.149 55.294 341.923 51.9623C338.75 48.6306 335.233 44.1354 331.372 38.4767H331.055C331.32 39.6402 331.531 41.0945 331.69 42.8397C331.901 44.532 332.06 46.2772 332.166 48.0753C332.324 49.8733 332.404 51.5656 332.404 53.1522C332.404 56.0608 331.981 58.3084 331.134 59.8949C330.341 61.4286 328.966 62.1954 327.009 62.1954ZM340.812 29.3542C343.086 29.3542 345.149 28.984 347 28.2436C348.851 27.4503 350.332 26.3662 351.442 24.9912C352.553 23.5633 353.108 21.8974 353.108 19.9936C353.108 17.508 352.262 15.5249 350.57 14.0441C348.877 12.5633 346.339 11.823 342.954 11.823C340.68 11.823 338.75 12.3254 337.163 13.3302C335.577 14.2821 334.36 15.5513 333.514 17.1378C332.721 18.7244 332.324 20.4431 332.324 22.2941C332.324 24.3566 333.012 26.0489 334.387 27.371C335.762 28.6931 337.904 29.3542 340.812 29.3542ZM403.215 58.705C401.47 58.705 399.513 58.5993 397.345 58.3877C395.23 58.1762 393.167 57.7796 391.158 57.1978C389.201 56.5632 387.561 55.7171 386.239 54.6594C384.97 53.5488 384.335 52.1209 384.335 50.3757C384.335 48.5777 384.891 47.2291 386.001 46.3301C387.165 45.431 389.042 44.9815 391.633 44.9815C393.643 44.9815 395.917 45.2195 398.456 45.6955C400.994 46.1714 403.427 46.4094 405.754 46.4094C410.672 46.4094 413.131 45.431 413.131 43.4743C413.131 42.681 412.84 42.02 412.258 41.4911C411.677 40.9094 410.566 40.3541 408.927 39.8253C407.287 39.2436 404.855 38.5561 401.629 37.7628C397.927 36.8109 394.912 35.8854 392.585 34.9864C390.258 34.0344 388.54 32.8445 387.429 31.4167C386.371 29.9888 385.843 28.0849 385.843 25.7051C385.843 23.3253 386.345 21.2364 387.35 19.4383C388.355 17.6402 389.703 16.133 391.396 14.9167C393.088 13.6475 394.965 12.6427 397.028 11.9023C399.143 11.109 401.285 10.5273 403.453 10.1571C405.674 9.7869 407.763 9.60181 409.72 9.60181C414.48 9.60181 418.367 10.3157 421.381 11.7436C424.448 13.1715 425.982 15.0753 425.982 17.4551C425.982 19.1475 425.427 20.5225 424.316 21.5801C423.258 22.6378 421.619 23.1667 419.398 23.1667C418.287 23.1667 416.992 23.0345 415.511 22.77C414.083 22.5056 412.47 22.2412 410.672 21.9768C408.874 21.7124 406.917 21.5801 404.802 21.5801C402.105 21.5801 400.016 21.8974 398.535 22.5321C397.054 23.1667 396.314 24.1715 396.314 25.5465C396.314 26.3397 396.578 27.0537 397.107 27.6883C397.636 28.27 398.72 28.8518 400.359 29.4335C401.999 30.0152 404.484 30.7292 407.816 31.5753C411.941 32.5801 415.194 33.6907 417.573 34.907C420.006 36.0705 421.725 37.419 422.73 38.9527C423.734 40.4863 424.237 42.3373 424.237 44.5056C424.237 47.3084 423.338 49.794 421.54 51.9623C419.794 54.0777 417.335 55.7435 414.162 56.9599C411.042 58.1233 407.393 58.705 403.215 58.705ZM405.04 67.8276C403.453 67.8276 402.263 67.431 401.47 66.6377C400.677 65.8445 400.28 64.7603 400.28 63.3853C400.28 62.0632 400.439 60.8998 400.756 59.8949C401.126 58.8901 401.576 58.0175 402.105 57.2772L408.292 57.1185C408.715 57.9647 409.059 58.9695 409.323 60.1329C409.641 61.2964 409.799 62.2483 409.799 62.9887C409.799 64.3637 409.456 65.5007 408.768 66.3997C408.081 67.3517 406.838 67.8276 405.04 67.8276ZM405.754 11.5056C405.331 10.6066 404.96 9.52248 404.643 8.25325C404.379 6.98402 404.246 5.97922 404.246 5.23884C404.246 3.86384 404.59 2.72682 405.278 1.82779C405.965 0.875867 407.208 0.399907 409.006 0.399907C410.593 0.399907 411.782 0.79654 412.576 1.58981C413.369 2.38307 413.766 3.46721 413.766 4.8422C413.766 6.16431 413.581 7.32777 413.21 8.33258C412.893 9.33738 412.47 10.21 411.941 10.9504L405.754 11.5056ZM448.844 61.8781C447.098 61.8781 445.142 61.7723 442.973 61.5608C440.858 61.3493 438.795 60.9526 436.786 60.3709C434.829 59.7363 433.19 58.8901 431.868 57.8325C430.598 56.7219 429.964 55.294 429.964 53.5488C429.964 51.7507 430.519 50.4022 431.63 49.5031C432.793 48.6041 434.671 48.1546 437.262 48.1546C439.06 48.1546 441.07 48.3926 443.291 48.8685C445.565 49.3445 447.733 49.5825 449.795 49.5825C452.863 49.5825 455.11 49.1065 456.538 48.1546C458.019 47.2027 458.759 45.907 458.759 44.2676C458.759 43.2628 458.469 42.3637 457.887 41.5705C457.358 40.7772 456.274 39.9839 454.634 39.1907C452.995 38.3974 450.536 37.5248 447.257 36.5729C443.502 35.5681 440.461 34.4575 438.134 33.2412C435.808 31.9719 434.115 30.4647 433.058 28.7195C432 26.9744 431.471 24.9119 431.471 22.5321C431.471 19.6234 431.973 17.1114 432.978 14.996C434.036 12.8278 435.437 11.0032 437.183 9.52248C438.928 7.98883 440.884 6.77249 443.053 5.87345C445.221 4.97441 447.416 4.31336 449.637 3.89028C451.911 3.4672 454.079 3.25567 456.142 3.25567C460.69 3.25567 464.392 3.96961 467.247 5.39749C470.156 6.82537 471.61 8.72921 471.61 11.109C471.61 12.8013 471.055 14.1763 469.944 15.234C468.887 16.2917 467.247 16.8205 465.026 16.8205C464.074 16.8205 462.937 16.6883 461.615 16.4239C460.293 16.1595 458.839 15.8951 457.252 15.6306C455.666 15.3662 453.92 15.234 452.017 15.234C448.791 15.234 446.305 15.7364 444.56 16.7412C442.815 17.746 441.942 19.359 441.942 21.5801C441.942 22.5321 442.18 23.4047 442.656 24.1979C443.185 24.9912 444.269 25.8109 445.908 26.6571C447.548 27.5032 450.06 28.4816 453.444 29.5921C457.622 30.8614 460.901 32.2628 463.281 33.7965C465.661 35.2772 467.353 36.9695 468.358 38.8734C469.363 40.7772 469.865 42.919 469.865 45.2988C469.865 48.5777 468.966 51.4863 467.168 54.0248C465.423 56.5103 462.964 58.4406 459.791 59.8156C456.67 61.1906 453.021 61.8781 448.844 61.8781ZM501.947 58.7844C496.87 58.7844 492.428 57.8853 488.62 56.0873C484.866 54.2363 481.93 51.4863 479.815 47.8373C477.753 44.1883 476.721 39.5873 476.721 34.0344C476.721 29.4864 477.382 25.3614 478.704 21.6595C480.027 17.9576 481.851 14.7845 484.178 12.1403C486.558 9.49604 489.281 7.48643 492.349 6.11143C495.416 4.68355 498.695 3.96961 502.185 3.96961C505.623 3.96961 508.875 4.6571 511.942 6.0321C515.01 7.35421 517.707 9.25806 520.034 11.7436C522.414 14.2292 524.264 17.2172 525.587 20.7075C526.909 24.1979 527.57 28.0849 527.57 32.3686C527.57 38.2388 526.512 43.1306 524.397 47.044C522.281 50.9575 519.293 53.8926 515.433 55.8493C511.625 57.806 507.13 58.7844 501.947 58.7844ZM502.027 47.3613C506.257 47.3613 509.642 46.0657 512.18 43.4743C514.719 40.8301 515.988 36.9431 515.988 31.8133C515.988 28.27 515.301 25.1763 513.926 22.5321C512.551 19.835 510.779 17.746 508.611 16.2653C506.495 14.7845 504.301 14.0441 502.027 14.0441C499.753 14.0441 497.531 14.7845 495.363 16.2653C493.248 17.746 491.503 19.835 490.128 22.5321C488.753 25.1763 488.065 28.27 488.065 31.8133C488.065 36.9431 489.334 40.8301 491.873 43.4743C494.464 46.0657 497.849 47.3613 502.027 47.3613ZM553.689 64.4959C549.511 64.4959 546.179 63.4647 543.694 61.4022C541.208 59.3397 539.41 56.1137 538.299 51.7243C537.242 47.3349 536.713 41.6234 536.713 34.5897C536.713 31.734 536.739 28.9575 536.792 26.2604C536.898 23.5104 537.03 21.0249 537.189 18.8037C537.347 16.5297 537.559 14.6787 537.823 13.2508C538.246 10.5537 538.934 8.62344 539.886 7.45998C540.891 6.29652 542.133 5.71479 543.614 5.71479C544.936 5.71479 545.968 6.29652 546.708 7.45998C547.501 8.62344 548.057 10.21 548.374 12.2196C548.691 14.1763 548.85 16.3446 548.85 18.7244C548.85 23.008 548.744 27.4239 548.532 31.9719C548.321 36.52 548.03 40.9623 547.66 45.2988C547.29 49.6354 546.84 53.6546 546.311 57.3565L545.28 56.7219C547.607 54.818 550.066 53.2315 552.657 51.9623C555.302 50.693 557.867 49.7411 560.352 49.1065C562.891 48.419 565.112 48.0753 567.016 48.0753C569.237 48.0753 570.876 48.4719 571.934 49.2652C572.992 50.0584 573.52 51.1955 573.52 52.6762C573.52 54.5801 572.859 56.2724 571.537 57.7531C570.215 59.2339 568.523 60.4767 566.46 61.4815C564.398 62.4863 562.23 63.2267 559.956 63.7026C557.681 64.2315 555.593 64.4959 553.689 64.4959ZM596.109 61.8781C594.364 61.8781 592.407 61.7723 590.239 61.5608C588.124 61.3493 586.061 60.9526 584.052 60.3709C582.095 59.7363 580.455 58.8901 579.133 57.8325C577.864 56.7219 577.23 55.294 577.23 53.5488C577.23 51.7507 577.785 50.4022 578.895 49.5031C580.059 48.6041 581.936 48.1546 584.528 48.1546C586.326 48.1546 588.335 48.3926 590.556 48.8685C592.83 49.3445 594.999 49.5825 597.061 49.5825C600.128 49.5825 602.376 49.1065 603.804 48.1546C605.285 47.2027 606.025 45.907 606.025 44.2676C606.025 43.2628 605.734 42.3637 605.153 41.5705C604.624 40.7772 603.54 39.9839 601.9 39.1907C600.261 38.3974 597.802 37.5248 594.523 36.5729C590.768 35.5681 587.727 34.4575 585.4 33.2412C583.073 31.9719 581.381 30.4647 580.323 28.7195C579.266 26.9744 578.737 24.9119 578.737 22.5321C578.737 19.6234 579.239 17.1114 580.244 14.996C581.302 12.8278 582.703 11.0032 584.448 9.52248C586.193 7.98883 588.15 6.77249 590.318 5.87345C592.487 4.97441 594.681 4.31336 596.903 3.89028C599.177 3.4672 601.345 3.25567 603.407 3.25567C607.955 3.25567 611.657 3.96961 614.513 5.39749C617.422 6.82537 618.876 8.72921 618.876 11.109C618.876 12.8013 618.321 14.1763 617.21 15.234C616.152 16.2917 614.513 16.8205 612.292 16.8205C611.34 16.8205 610.203 16.6883 608.881 16.4239C607.559 16.1595 606.104 15.8951 604.518 15.6306C602.931 15.3662 601.186 15.234 599.282 15.234C596.056 15.234 593.571 15.7364 591.826 16.7412C590.08 17.746 589.208 19.359 589.208 21.5801C589.208 22.5321 589.446 23.4047 589.922 24.1979C590.451 24.9912 591.535 25.8109 593.174 26.6571C594.814 27.5032 597.326 28.4816 600.71 29.5921C604.888 30.8614 608.167 32.2628 610.547 33.7965C612.927 35.2772 614.619 36.9695 615.624 38.8734C616.628 40.7772 617.131 42.919 617.131 45.2988C617.131 48.5777 616.232 51.4863 614.434 54.0248C612.689 56.5103 610.229 58.4406 607.056 59.8156C603.936 61.1906 600.287 61.8781 596.109 61.8781ZM648.655 62.1954C646.909 62.1954 645.561 61.6666 644.609 60.6089C643.657 59.4983 642.969 57.7267 642.546 55.294C642.176 52.8084 641.991 49.5031 641.991 45.3782C641.991 37.3926 642.441 30.5441 643.34 24.8325C644.239 19.0681 645.772 14.5994 647.941 11.4263C650.056 8.35902 652.727 6.19076 655.953 4.92153C659.231 3.6523 662.775 3.01769 666.582 3.01769C673.034 3.01769 677.794 4.5249 680.861 7.53931C683.929 10.5537 685.462 14.4936 685.462 19.359C685.462 23.6955 684.325 27.2388 682.051 29.9888C679.777 32.7388 676.71 34.6691 672.849 35.7796C669.042 36.8373 664.784 37.1017 660.078 36.5729V36.8902C668.962 40.6979 675.335 44.294 679.195 47.6786C683.109 51.0104 685.066 53.8926 685.066 56.3252C685.066 57.806 684.563 58.9959 683.558 59.8949C682.606 60.794 681.258 61.2435 679.513 61.2435C677.397 61.2435 675.017 60.5296 672.373 59.1017C669.729 57.6738 666.794 55.294 663.568 51.9623C660.395 48.6306 656.878 44.1354 653.018 38.4767H652.7C652.965 39.6402 653.176 41.0945 653.335 42.8397C653.546 44.532 653.705 46.2772 653.811 48.0753C653.969 49.8733 654.049 51.5656 654.049 53.1522C654.049 56.0608 653.626 58.3084 652.78 59.8949C651.986 61.4286 650.611 62.1954 648.655 62.1954ZM662.457 29.3542C664.731 29.3542 666.794 28.984 668.645 28.2436C670.496 27.4503 671.977 26.3662 673.087 24.9912C674.198 23.5633 674.753 21.8974 674.753 19.9936C674.753 17.508 673.907 15.5249 672.215 14.0441C670.522 12.5633 667.984 11.823 664.599 11.823C662.325 11.823 660.395 12.3254 658.808 13.3302C657.222 14.2821 656.006 15.5513 655.159 17.1378C654.366 18.7244 653.969 20.4431 653.969 22.2941C653.969 24.3566 654.657 26.0489 656.032 27.371C657.407 28.6931 659.549 29.3542 662.457 29.3542ZM718.023 6.42874C722.253 6.42874 725.189 6.93114 726.828 7.93594C728.467 8.94075 729.287 10.3951 729.287 12.2989C729.287 14.3085 728.309 15.8422 726.352 16.8999C724.448 17.9047 721.46 18.4071 717.388 18.4071C715.22 18.4071 712.761 18.3806 710.011 18.3277C707.314 18.222 704.511 18.0633 701.602 17.8518L702.871 16.8999C703.347 19.1739 703.479 21.6595 703.268 24.3566C703.056 27.0008 702.475 29.5393 701.523 31.9719L701.126 31.4167C702.66 30.8349 704.484 30.3061 706.6 29.8301C708.715 29.3542 710.91 28.9575 713.184 28.6402C715.458 28.3229 717.547 28.1643 719.451 28.1643C722.888 28.1643 725.321 28.6138 726.749 29.5128C728.177 30.4118 728.89 31.496 728.89 32.7652C728.89 34.1931 728.071 35.4094 726.431 36.4142C724.792 37.419 722.015 37.9214 718.102 37.9214C715.035 37.9214 711.994 37.8421 708.979 37.6835C705.965 37.5248 703.083 37.3397 700.333 37.1282L701.285 36.5729C701.866 38.1594 702.29 40.0368 702.554 42.2051C702.871 44.3734 703.03 46.5416 703.03 48.7099C703.03 50.8253 702.818 52.7027 702.395 54.3421L701.523 53.8661C703.268 53.0729 705.278 52.3854 707.552 51.8036C709.826 51.169 712.126 50.693 714.453 50.3757C716.833 50.0584 719.054 49.8998 721.116 49.8998C724.078 49.8998 726.273 50.2171 727.701 50.8517C729.181 51.4863 729.922 52.5704 729.922 54.1041C729.922 55.532 729.208 56.8541 727.78 58.0704C726.352 59.2868 724.475 60.2651 722.148 61.0055C719.874 61.7459 717.415 62.1161 714.77 62.1161C709.746 62.1161 705.595 61.4022 702.316 59.9743C699.037 58.5464 696.631 56.4046 695.097 53.5488C694.463 52.3325 693.907 50.9575 693.431 49.4238C692.955 47.8373 692.585 46.0657 692.321 44.1089C692.109 42.1522 692.004 39.9839 692.004 37.6041C692.004 32.3157 692.453 27.9263 693.352 24.4359C694.304 20.8926 695.573 18.0633 697.16 15.9479C699.54 12.722 702.554 10.3422 706.203 8.80854C709.905 7.222 713.845 6.42874 718.023 6.42874ZM740.768 62.1954C739.499 62.1954 738.362 61.6137 737.357 60.4502C736.405 59.2868 735.665 57.5151 735.136 55.1353C734.607 52.7555 734.343 49.7676 734.343 46.1714C734.343 42.7339 734.554 39.3493 734.978 36.0176C735.401 32.6859 736.062 29.407 736.961 26.1811C737.913 22.9023 739.129 19.6499 740.61 16.4239C742.831 11.6114 745.396 8.17392 748.304 6.11143C751.213 4.04893 754.545 3.01769 758.3 3.01769C761.631 3.01769 764.566 4.02249 767.105 6.0321C769.643 8.04171 771.891 11.3734 773.848 16.0273C775.487 19.8878 776.756 24.3301 777.655 29.3542C778.607 34.3782 779.083 39.5609 779.083 44.9022C779.083 49.3974 778.713 53.0464 777.973 55.8493C777.285 58.5993 776.36 60.6089 775.196 61.8781C774.033 63.1473 772.764 63.782 771.389 63.782C770.014 63.782 768.877 63.1473 767.977 61.8781C767.131 60.6089 766.708 58.4935 766.708 55.532C766.708 53.2051 766.761 50.7988 766.867 48.3132C766.973 45.7748 767.131 43.3685 767.343 41.0945L767.898 43.2363C766.047 43.871 763.72 44.294 760.917 44.5056C758.167 44.6642 755.285 44.6113 752.271 44.3469C749.309 44.0296 746.533 43.4743 743.941 42.681L747.353 39.6666C747.511 42.2051 747.564 44.6907 747.511 47.1233C747.458 49.556 747.273 51.7507 746.956 53.7075C746.427 56.8276 745.634 59.0224 744.576 60.2916C743.518 61.5608 742.249 62.1954 740.768 62.1954ZM757.427 35.145C760.759 35.145 763.191 34.1666 764.725 32.2099C766.259 30.2003 767.026 27.7147 767.026 24.7532C767.026 22.5849 766.602 20.6282 765.756 18.883C764.91 17.1378 763.773 15.7364 762.345 14.6787C760.917 13.621 759.331 13.0922 757.586 13.0922C755.946 13.0922 754.386 13.6475 752.905 14.758C751.478 15.8686 750.314 17.3494 749.415 19.2003C748.569 20.9984 748.146 23.0345 748.146 25.3085C748.146 28.0585 748.913 30.3854 750.446 32.2892C751.98 34.1931 754.307 35.145 757.427 35.145ZM797.41 63.4647C794.078 63.4647 791.486 63.2531 789.635 62.83C787.837 62.407 786.595 61.8252 785.907 61.0848C785.22 60.2916 784.849 59.419 784.797 58.4671C784.797 56.9863 785.669 55.7435 787.414 54.7387C789.212 53.7339 792.491 53.0993 797.251 52.8349L795.982 54.3421C795.4 51.645 794.977 48.4983 794.712 44.9022C794.448 41.3061 794.342 37.5777 794.395 33.7171C794.448 29.8566 794.633 26.1811 794.95 22.6907C795.268 19.1475 795.717 16.133 796.299 13.6475L803.2 13.1715C802.037 13.6475 800.583 14.0705 798.837 14.4407C797.092 14.758 795.294 14.9167 793.443 14.9167C790.059 14.9167 787.547 14.5465 785.907 13.8061C784.321 13.0657 783.527 12.0345 783.527 10.7124C783.527 8.38546 784.929 6.58739 787.732 5.31816C790.587 3.99605 794.95 3.335 800.821 3.335C807.801 3.335 813.671 4.49845 818.431 6.82537C823.244 9.0994 826.893 12.2989 829.378 16.4239C831.864 20.496 833.107 25.2556 833.107 30.7027C833.107 35.4623 832.26 39.8517 830.568 43.871C828.876 47.8373 826.443 51.3012 823.27 54.2628C820.15 57.1714 816.395 59.4454 812.006 61.0848C807.669 62.6714 802.804 63.4647 797.41 63.4647ZM808.674 51.2483C810.472 51.2483 812.376 50.5344 814.385 49.1065C816.448 47.6257 818.193 45.4839 819.621 42.681C821.049 39.8253 821.763 36.3085 821.763 32.1306C821.763 29.0633 821.313 26.3926 820.414 24.1186C819.568 21.7917 818.458 19.8614 817.083 18.3277C815.708 16.7941 814.253 15.6571 812.72 14.9167C811.186 14.1234 809.732 13.7268 808.357 13.7268C807.246 13.7268 806.373 14.4143 805.739 15.7893C805.157 17.1643 804.734 19.2268 804.47 21.9768C804.205 24.6739 804.073 28.032 804.073 32.0513C804.073 38.2916 804.39 43.0512 805.025 46.3301C805.659 49.6089 806.876 51.2483 808.674 51.2483ZM858.306 62.3541C856.402 62.3541 854.842 61.7195 853.626 60.4502C852.462 59.1281 851.88 56.8012 851.88 53.4695C851.88 51.1426 852.171 48.7628 852.753 46.3301C853.335 43.8445 854.101 41.5176 855.053 39.3493C856.005 37.1282 857.037 35.2508 858.147 33.7171L857.83 35.9383C852.436 32.3421 848.231 29.1426 845.217 26.3397C842.255 23.5369 840.166 21.0777 838.95 18.9624C837.787 16.7941 837.205 14.9167 837.205 13.3302C837.205 12.0081 837.443 10.8975 837.919 9.99844C838.395 9.0994 839.029 8.4119 839.823 7.93594C840.616 7.4071 841.489 7.14268 842.44 7.14268C844.291 7.14268 846.169 8.01527 848.073 9.76046C849.977 11.4528 851.907 14.0177 853.864 17.4551C855.873 20.8398 857.909 25.0705 859.972 30.1474H860.289C862.563 24.4888 864.863 19.6499 867.19 15.6306C869.57 11.6114 871.844 8.51767 874.013 6.34941C876.234 4.18115 878.164 3.09701 879.803 3.09701C880.544 3.09701 881.284 3.36144 882.025 3.89028C882.765 4.41912 883.373 5.21239 883.849 6.27008C884.378 7.27489 884.642 8.597 884.642 10.2364C884.642 12.4047 883.77 14.996 882.025 18.0104C880.332 20.972 877.873 24.0393 874.647 27.2123C871.474 30.3854 867.64 33.3205 863.145 36.0176L863.065 34.5104C863.594 36.3085 864.07 38.2652 864.493 40.3806C864.916 42.4431 865.26 44.4791 865.525 46.4887C865.789 48.4983 865.921 50.3229 865.921 51.9623C865.921 55.3469 865.207 57.9382 863.779 59.7363C862.404 61.4815 860.58 62.3541 858.306 62.3541Z" fill="white"/>
</g>
<defs>
<filter id="filter0_d_160_6078" x="0.295898" y="0.162109" width="884.347" height="74.2308" filterUnits="userSpaceOnUse" color-interpolation-filters="sRGB">
<feFlood flood-opacity="0" result="BackgroundImageFix"/>
<feColorMatrix in="SourceAlpha" type="matrix" values="0 0 0 0 0 0 0 0 0 0 0 0 0 0 0 0 0 0 127 0" result="hardAlpha"/>
<feOffset dy="6.56528"/>
<feComposite in2="hardAlpha" operator="out"/>
<feColorMatrix type="matrix" values="0 0 0 0 0 0 0 0 0 0 0 0 0 0 0 0 0 0 1 0"/>
<feBlend mode="normal" in2="BackgroundImageFix" result="effect1_dropShadow_160_6078"/>
<feBlend mode="normal" in="SourceGraphic" in2="effect1_dropShadow_160_6078" result="shape"/>
</filter>
</defs>
</svg>
