<svg width="367" height="121" viewBox="0 0 367 121" fill="none" xmlns="http://www.w3.org/2000/svg">
<path d="M83.1203 27.919C82.4721 27.919 81.9813 27.706 81.6479 27.28C81.3331 26.8541 81.1756 26.2429 81.1756 25.4465C81.1756 24.8909 81.2312 24.2982 81.3423 23.6685C81.472 23.0388 81.6479 22.4183 81.8702 21.8071L82.0369 22.1961C81.4257 22.3998 80.6756 22.5665 79.7866 22.6961C78.8976 22.8258 78.0086 22.8906 77.1196 22.8906C76.2676 22.8906 75.6379 22.7517 75.2305 22.4739C74.8415 22.1776 74.6471 21.7701 74.6471 21.2515C74.6471 20.4551 74.8045 19.5291 75.1194 18.4734C75.4342 17.4177 75.8324 16.3343 76.3139 15.223C76.814 14.1118 77.3233 13.1024 77.8419 12.1949C78.6568 10.7688 79.5458 9.65751 80.5089 8.86112C81.472 8.0462 82.574 7.63874 83.8149 7.63874C85.0187 7.63874 85.8707 7.93508 86.3707 8.52774C86.8893 9.12041 87.1486 9.98162 87.1486 11.1114C87.1486 12.2041 87.0467 13.4728 86.843 14.9174C86.6393 16.3435 86.3429 17.7974 85.954 19.2791L85.5929 18.9735C85.8521 18.8809 86.13 18.816 86.4263 18.779C86.7226 18.7234 86.9912 18.6957 87.2319 18.6957C88.7507 18.6957 89.51 19.3068 89.51 20.5292C89.51 21.1589 89.2692 21.6405 88.7877 21.9738C88.3247 22.3072 87.7135 22.4739 86.9541 22.4739C86.6208 22.4739 86.2966 22.4554 85.9818 22.4183C85.6855 22.3628 85.4262 22.2979 85.2039 22.2239L85.4262 22.085C85.4632 22.4369 85.5003 22.8814 85.5373 23.4185C85.5743 23.937 85.5929 24.4371 85.5929 24.9186C85.5929 25.9002 85.3706 26.6503 84.9261 27.1689C84.5001 27.669 83.8982 27.919 83.1203 27.919ZM79.6477 19.1679C80.2403 19.1679 80.7682 19.0475 81.2312 18.8068C81.6942 18.5475 82.0832 18.1863 82.398 17.7233C82.7314 17.2418 82.9814 16.6769 83.1481 16.0287C83.3333 15.3619 83.4259 14.6211 83.4259 13.8062C83.4259 13.1394 83.3055 12.6486 83.0648 12.3338C82.8425 12.0004 82.5462 11.8337 82.1758 11.8337C81.6757 11.8337 81.1942 12.0096 80.7312 12.3615C80.2681 12.6949 79.8422 13.1394 79.4532 13.695C79.0828 14.2321 78.7865 14.8341 78.5642 15.5008C78.342 16.149 78.2308 16.788 78.2308 17.4177C78.2308 18.0474 78.3605 18.5012 78.6198 18.779C78.8791 19.0383 79.2217 19.1679 79.6477 19.1679ZM93.3466 21.446C94.0875 21.446 94.6801 21.7053 95.1246 22.2239C95.5876 22.7239 95.8192 23.4648 95.8192 24.4464C95.8192 25.3539 95.5969 26.1225 95.1524 26.7522C94.7264 27.3819 94.0319 27.6968 93.0688 27.6968C92.2909 27.6968 91.7168 27.4375 91.3464 26.9189C90.9945 26.4003 90.8185 25.6687 90.8185 24.7242C90.8185 24.1685 90.8926 23.6407 91.0408 23.1406C91.189 22.6406 91.4482 22.2331 91.8187 21.9183C92.1891 21.6034 92.6984 21.446 93.3466 21.446ZM113.093 27.5023C112.482 27.5023 111.797 27.4652 111.038 27.3912C110.297 27.3171 109.575 27.1782 108.871 26.9744C108.185 26.7522 107.611 26.4559 107.148 26.0854C106.704 25.6965 106.482 25.1965 106.482 24.5853C106.482 23.9556 106.676 23.4833 107.065 23.1684C107.472 22.8536 108.13 22.6961 109.037 22.6961C109.667 22.6961 110.371 22.7795 111.149 22.9462C111.945 23.1129 112.705 23.1962 113.427 23.1962C114.501 23.1962 115.288 23.0295 115.788 22.6961C116.307 22.3628 116.566 21.909 116.566 21.3349C116.566 20.983 116.464 20.6681 116.261 20.3903C116.075 20.1125 115.696 19.8347 115.121 19.5569C114.547 19.2791 113.686 18.9735 112.538 18.6401C111.223 18.2882 110.158 17.8993 109.343 17.4733C108.528 17.0288 107.935 16.5009 107.565 15.8898C107.195 15.2786 107.009 14.5563 107.009 13.7228C107.009 12.7042 107.185 11.8244 107.537 11.0836C107.908 10.3243 108.398 9.68529 109.01 9.16671C109.621 8.62961 110.306 8.20363 111.065 7.88877C111.825 7.57392 112.593 7.34241 113.371 7.19424C114.168 7.04608 114.927 6.97199 115.649 6.97199C117.242 6.97199 118.539 7.22202 119.539 7.72209C120.557 8.22215 121.067 8.8889 121.067 9.72233C121.067 10.315 120.872 10.7965 120.483 11.167C120.113 11.5374 119.539 11.7226 118.761 11.7226C118.427 11.7226 118.029 11.6763 117.566 11.5837C117.103 11.4911 116.594 11.3985 116.038 11.3059C115.483 11.2133 114.871 11.167 114.205 11.167C113.075 11.167 112.204 11.3429 111.593 11.6948C110.982 12.0467 110.676 12.6116 110.676 13.3894C110.676 13.7228 110.76 14.0284 110.927 14.3062C111.112 14.584 111.491 14.8711 112.066 15.1674C112.64 15.4638 113.519 15.8064 114.705 16.1953C116.168 16.6398 117.316 17.1306 118.15 17.6678C118.983 18.1863 119.576 18.779 119.928 19.4457C120.28 20.1125 120.455 20.8626 120.455 21.696C120.455 22.8443 120.141 23.863 119.511 24.752C118.9 25.6224 118.039 26.2984 116.927 26.78C115.835 27.2615 114.557 27.5023 113.093 27.5023ZM122.461 16.1398C122.461 14.2136 122.683 12.8246 123.128 11.9726C123.591 11.1207 124.193 10.6947 124.934 10.6947C125.36 10.6947 125.684 10.8521 125.906 11.167C126.147 11.4633 126.313 11.8707 126.406 12.3893C126.499 12.8894 126.545 13.4543 126.545 14.084C126.545 14.8804 126.545 15.8157 126.545 16.8899C126.563 17.9456 126.582 19.0383 126.601 20.1681C126.638 21.2793 126.675 22.3165 126.712 23.2795H126.823C127.397 20.8533 127.971 18.8623 128.545 17.3066C129.138 15.7508 129.74 14.6026 130.351 13.8617C130.981 13.1024 131.61 12.7227 132.24 12.7227C132.925 12.7227 133.574 13.1024 134.185 13.8617C134.815 14.6026 135.426 15.7323 136.018 17.251C136.63 18.7697 137.25 20.6866 137.88 23.0017H137.991C138.046 21.4089 138.083 19.7328 138.102 17.9733C138.12 16.2139 138.13 14.6026 138.13 13.1394C138.13 12.0837 138.306 11.3059 138.658 10.8058C139.009 10.3057 139.5 10.0557 140.13 10.0557C140.926 10.0557 141.501 10.4724 141.852 11.3059C142.223 12.1208 142.408 13.2228 142.408 14.6118C142.408 15.6305 142.352 16.7232 142.241 17.89C142.149 19.0383 142.01 20.1495 141.825 21.2237C141.639 22.2979 141.417 23.2332 141.158 24.0296C140.769 25.215 140.334 26.1132 139.852 26.7244C139.389 27.3356 138.778 27.6412 138.019 27.6412C137.333 27.6412 136.648 27.243 135.963 26.4466C135.296 25.6317 134.666 24.4186 134.074 22.8073C133.481 21.196 132.935 19.1865 132.435 16.7788H132.323C131.842 19.0753 131.268 21.0015 130.601 22.5572C129.953 24.0945 129.258 25.252 128.517 26.0299C127.795 26.8078 127.073 27.1967 126.351 27.1967C125.591 27.1967 124.952 26.8541 124.434 26.1688C123.934 25.4835 123.517 24.4278 123.183 23.0017C123.035 22.2794 122.906 21.5108 122.795 20.6959C122.683 19.8625 122.6 19.0475 122.544 18.2512C122.489 17.4548 122.461 16.751 122.461 16.1398ZM156.926 27.6968C156.296 27.6968 155.861 27.456 155.62 26.9744C155.398 26.4744 155.268 25.6873 155.231 24.613L155.509 24.752C154.472 26.7707 152.509 27.7801 149.619 27.7801C148.304 27.7801 147.212 27.5486 146.341 27.0856C145.471 26.604 144.823 25.9743 144.397 25.1965C143.989 24.4001 143.785 23.5388 143.785 22.6128C143.785 21.02 144.341 19.7606 145.452 18.8346C146.563 17.89 148.036 17.4177 149.869 17.4177C151.073 17.4177 152.12 17.5937 153.009 17.9456C153.898 18.2975 154.657 18.7883 155.287 19.418L154.814 19.3624C154.685 17.4918 154.277 16.1583 153.592 15.3619C152.925 14.547 151.972 14.1395 150.731 14.1395C150.008 14.1395 149.342 14.2507 148.73 14.4729C148.119 14.6952 147.554 14.9267 147.036 15.1674C146.536 15.3897 146.063 15.5008 145.619 15.5008C145.174 15.5008 144.823 15.3527 144.563 15.0563C144.322 14.76 144.202 14.3803 144.202 13.9173C144.202 13.2505 144.517 12.6208 145.147 12.0282C145.795 11.4355 146.647 10.954 147.703 10.5835C148.758 10.2131 149.906 10.0279 151.147 10.0279C152.648 10.0279 153.935 10.3891 155.009 11.1114C156.083 11.8337 156.898 12.8894 157.454 14.2784C157.935 15.4638 158.278 16.788 158.482 18.2512C158.685 19.7143 158.787 21.2793 158.787 22.9462C158.787 24.2056 158.722 25.1779 158.593 25.8632C158.463 26.5485 158.259 27.03 157.982 27.3078C157.722 27.5671 157.37 27.6968 156.926 27.6968ZM150.786 24.5853C151.397 24.5853 152.018 24.5019 152.648 24.3352C153.277 24.15 153.805 23.8815 154.231 23.5296C154.657 23.1777 154.87 22.7424 154.87 22.2239C154.87 21.7794 154.685 21.4182 154.314 21.1404C153.963 20.8441 153.49 20.6218 152.898 20.4736C152.323 20.3255 151.703 20.2514 151.036 20.2514C149.906 20.2514 149.045 20.4459 148.453 20.8348C147.878 21.2237 147.591 21.7423 147.591 22.3906C147.591 23.0943 147.86 23.6407 148.397 24.0296C148.953 24.4001 149.749 24.5853 150.786 24.5853ZM164.065 10.1946C164.565 10.1946 164.982 10.4909 165.315 11.0836C165.649 11.6578 165.88 12.5745 166.01 13.8339L165.426 14.3618C165.76 13.0653 166.38 12.0745 167.288 11.3892C168.195 10.7039 169.269 10.3613 170.51 10.3613C171.659 10.3613 172.677 10.6576 173.566 11.2503C174.455 11.843 175.15 12.7412 175.65 13.9451C176.168 15.1304 176.428 16.6213 176.428 18.4178C176.428 21.3256 175.9 23.474 174.844 24.8631C173.807 26.2336 172.39 26.9189 170.594 26.9189C169.297 26.9189 168.278 26.6411 167.538 26.0854C166.797 25.5298 166.278 24.8538 165.982 24.0574L166.315 23.8907C166.463 25.002 166.584 26.104 166.676 27.1967C166.788 28.2709 166.843 29.2155 166.843 30.0304C166.843 30.8638 166.695 31.5676 166.399 32.1417C166.102 32.7159 165.63 33.003 164.982 33.003C164.352 33.003 163.88 32.7622 163.565 32.2807C163.25 31.7991 163.019 31.1601 162.87 30.3638C162.759 29.5488 162.648 28.5024 162.537 27.2245C162.426 25.9465 162.333 24.5667 162.259 23.0851C162.204 21.6034 162.176 20.1588 162.176 18.7512C162.176 17.3066 162.222 15.9546 162.315 14.6952C162.426 13.4172 162.556 12.3801 162.704 11.5837C162.833 11.1207 163 10.778 163.204 10.5558C163.426 10.315 163.713 10.1946 164.065 10.1946ZM169.371 13.5561C168.371 13.5561 167.565 14.0562 166.954 15.0563C166.362 16.0379 166.065 17.2973 166.065 18.8346C166.065 20.4088 166.362 21.5849 166.954 22.3628C167.565 23.1406 168.353 23.5296 169.316 23.5296C170.427 23.5296 171.223 23.0943 171.705 22.2239C172.205 21.3349 172.455 20.1866 172.455 18.779C172.455 16.9825 172.149 15.6675 171.538 14.8341C170.927 13.9821 170.205 13.5561 169.371 13.5561ZM189.608 11.8059H189.303C189.136 10.991 189.053 10.2039 189.053 9.44452C189.053 8.0925 189.405 7.02756 190.109 6.24968C190.831 5.47181 192.044 5.08287 193.748 5.08287C194.785 5.08287 195.526 5.24956 195.97 5.58294C196.433 5.89779 196.665 6.37933 196.665 7.02756C196.665 8.21289 195.989 8.86112 194.637 8.97224C193.952 9.04632 193.414 9.17597 193.026 9.36118C192.655 9.54638 192.377 9.84272 192.192 10.2502C192.025 10.6391 191.914 11.1947 191.859 11.917L191.359 11.8615C191.822 11.6948 192.35 11.5652 192.942 11.4725C193.535 11.3799 194.118 11.3336 194.692 11.3336C195.489 11.3336 196.128 11.4818 196.609 11.7781C197.109 12.0745 197.359 12.5745 197.359 13.2783C197.359 13.9636 197.1 14.4822 196.582 14.8341C196.063 15.186 195.424 15.3619 194.665 15.3619C194.202 15.3619 193.711 15.3249 193.192 15.2508C192.692 15.1767 192.192 15.0748 191.692 14.9452L191.831 14.5285C192.016 15.473 192.174 16.5102 192.303 17.64C192.433 18.7512 192.535 19.8717 192.609 21.0015C192.683 22.1127 192.72 23.1592 192.72 24.1408C192.72 24.7705 192.637 25.3631 192.47 25.9188C192.303 26.4559 192.044 26.8911 191.692 27.2245C191.359 27.5393 190.933 27.6968 190.414 27.6968C189.636 27.6968 189.081 27.3912 188.747 26.78C188.414 26.1503 188.247 25.3724 188.247 24.4464C188.247 23.5574 188.284 22.5572 188.358 21.446C188.451 20.3162 188.581 19.1587 188.747 17.9733C188.932 16.7695 189.145 15.6119 189.386 14.5007L189.72 14.7507C188.775 15.1582 187.571 15.3619 186.108 15.3619C185.33 15.3619 184.728 15.2137 184.302 14.9174C183.876 14.6211 183.663 14.1673 183.663 13.5561C183.663 12.8894 183.923 12.3801 184.441 12.0282C184.96 11.6578 185.654 11.4725 186.525 11.4725C187.117 11.4725 187.673 11.5096 188.192 11.5837C188.729 11.6392 189.201 11.7133 189.608 11.8059ZM206.095 27.5023C204.613 27.5023 203.317 27.1782 202.205 26.5299C201.113 25.8632 200.261 24.9186 199.65 23.6963C199.057 22.4739 198.761 21.02 198.761 19.3346C198.761 17.5751 199.066 16.0379 199.677 14.7229C200.289 13.408 201.15 12.3801 202.261 11.6392C203.391 10.8984 204.697 10.528 206.178 10.528C207.771 10.528 209.151 10.8891 210.318 11.6115C211.484 12.3152 212.392 13.3061 213.04 14.584C213.688 15.862 214.013 17.3529 214.013 19.0568C214.013 20.7978 213.688 22.2979 213.04 23.5574C212.392 24.8168 211.475 25.7891 210.29 26.4744C209.104 27.1597 207.706 27.5023 206.095 27.5023ZM206.484 23.7518C207.632 23.7518 208.54 23.2981 209.206 22.3906C209.892 21.4645 210.234 20.2421 210.234 18.7234C210.234 17.1862 209.892 15.9638 209.206 15.0563C208.54 14.1488 207.632 13.695 206.484 13.695C205.298 13.695 204.363 14.1488 203.678 15.0563C202.993 15.9638 202.65 17.1862 202.65 18.7234C202.65 20.2421 202.993 21.4645 203.678 22.3906C204.363 23.2981 205.298 23.7518 206.484 23.7518ZM216.816 14.8896C216.816 13.1116 216.982 11.8337 217.316 11.0558C217.649 10.2594 218.122 9.86124 218.733 9.86124C219.214 9.86124 219.594 10.065 219.872 10.4724C220.15 10.8614 220.353 11.3522 220.483 11.9448C220.613 12.519 220.677 13.1024 220.677 13.695L220.538 13.6395C220.853 12.6394 221.335 11.7781 221.983 11.0558C222.65 10.3335 223.446 9.97236 224.372 9.97236C225.465 9.97236 226.271 10.4261 226.789 11.3336C227.308 12.2226 227.567 13.3339 227.567 14.6674C227.567 16.4454 227.363 17.6863 226.956 18.3901C226.548 19.0939 226.002 19.4457 225.317 19.4457C224.817 19.4457 224.446 19.242 224.206 18.8346C223.983 18.4271 223.909 17.7048 223.983 16.6676C224.057 15.5749 223.993 14.8155 223.789 14.3896C223.585 13.9636 223.261 13.7506 222.817 13.7506C222.279 13.7506 221.835 14.0932 221.483 14.7785C221.15 15.4453 220.983 16.2694 220.983 17.251C220.983 17.64 221.029 18.1308 221.122 18.7234C221.214 19.3161 221.316 19.9643 221.427 20.6681C221.539 21.3534 221.64 22.0387 221.733 22.7239C221.826 23.4092 221.872 24.0389 221.872 24.613C221.872 25.6317 221.715 26.3633 221.4 26.8078C221.085 27.2523 220.64 27.4745 220.066 27.4745C219.418 27.4745 218.918 27.2708 218.566 26.8633C218.214 26.4373 217.946 25.7521 217.76 24.8075C217.612 23.9556 217.464 22.9462 217.316 21.7794C217.168 20.6126 217.047 19.418 216.955 18.1956C216.862 16.9732 216.816 15.8712 216.816 14.8896ZM238.729 6.99978C239.266 6.99978 239.674 7.18498 239.951 7.5554C240.229 7.90729 240.368 8.4907 240.368 9.30561C240.368 10.3243 240.248 11.4725 240.007 12.7505C239.766 14.0284 239.424 15.2415 238.979 16.3898L238.535 15.8342C240.016 15.5193 241.553 15.3712 243.146 15.3897C244.739 15.4082 246.184 15.5934 247.48 15.9453L246.98 16.1953C246.739 14.9545 246.554 13.7228 246.424 12.5005C246.313 11.2781 246.258 10.1946 246.258 9.25005C246.258 8.37957 246.387 7.75913 246.647 7.38871C246.906 7.0183 247.323 6.83309 247.897 6.83309C248.49 6.83309 248.953 7.04608 249.286 7.47206C249.619 7.87951 249.879 8.52774 250.064 9.41674C250.268 10.3428 250.425 11.4633 250.536 12.7783C250.666 14.0747 250.731 15.4082 250.731 16.7788C250.731 18.1308 250.693 19.5106 250.619 20.9181C250.545 22.3257 250.406 23.6314 250.203 24.8353C250.036 25.7984 249.767 26.4929 249.397 26.9189C249.027 27.3449 248.517 27.5579 247.869 27.5579C247.202 27.5579 246.721 27.3449 246.424 26.9189C246.147 26.4929 246.008 25.6965 246.008 24.5297C246.008 23.3999 246.091 22.2239 246.258 21.0015C246.443 19.7791 246.693 18.5753 247.008 17.3899L247.591 18.2512C246.184 18.5475 244.711 18.6957 243.174 18.6957C241.655 18.6771 240.174 18.529 238.729 18.2512L238.785 17.3066C239.155 18.5104 239.498 19.7513 239.813 21.0293C240.146 22.3072 240.313 23.5851 240.313 24.8631C240.313 25.8817 240.137 26.604 239.785 27.03C239.433 27.4375 238.933 27.6412 238.285 27.6412C237.729 27.6412 237.284 27.4838 236.951 27.1689C236.618 26.8541 236.377 26.2707 236.229 25.4187C236.081 24.5853 235.96 23.5481 235.868 22.3072C235.775 21.0478 235.729 19.7236 235.729 18.3345C235.729 16.6861 235.803 15.0841 235.951 13.5284C236.099 11.9726 236.294 10.6391 236.534 9.52786C236.72 8.65739 236.988 8.01842 237.34 7.61096C237.692 7.2035 238.155 6.99978 238.729 6.99978ZM261.006 27.5023C259.524 27.5023 258.228 27.1782 257.117 26.5299C256.024 25.8632 255.172 24.9186 254.561 23.6963C253.968 22.4739 253.672 21.02 253.672 19.3346C253.672 17.5751 253.977 16.0379 254.589 14.7229C255.2 13.408 256.061 12.3801 257.172 11.6392C258.302 10.8984 259.608 10.528 261.089 10.528C262.682 10.528 264.062 10.8891 265.229 11.6115C266.396 12.3152 267.303 13.3061 267.951 14.584C268.6 15.862 268.924 17.3529 268.924 19.0568C268.924 20.7978 268.6 22.2979 267.951 23.5574C267.303 24.8168 266.386 25.7891 265.201 26.4744C264.016 27.1597 262.617 27.5023 261.006 27.5023ZM261.395 23.7518C262.543 23.7518 263.451 23.2981 264.118 22.3906C264.803 21.4645 265.145 20.2421 265.145 18.7234C265.145 17.1862 264.803 15.9638 264.118 15.0563C263.451 14.1488 262.543 13.695 261.395 13.695C260.21 13.695 259.274 14.1488 258.589 15.0563C257.904 15.9638 257.561 17.1862 257.561 18.7234C257.561 20.2421 257.904 21.4645 258.589 22.3906C259.274 23.2981 260.21 23.7518 261.395 23.7518ZM278.478 27.5023C276.996 27.5023 275.7 27.1782 274.588 26.5299C273.496 25.8632 272.644 24.9186 272.033 23.6963C271.44 22.4739 271.144 21.02 271.144 19.3346C271.144 17.5751 271.449 16.0379 272.06 14.7229C272.672 13.408 273.533 12.3801 274.644 11.6392C275.774 10.8984 277.08 10.528 278.561 10.528C280.154 10.528 281.534 10.8891 282.701 11.6115C283.867 12.3152 284.775 13.3061 285.423 14.584C286.071 15.862 286.395 17.3529 286.395 19.0568C286.395 20.7978 286.071 22.2979 285.423 23.5574C284.775 24.8168 283.858 25.7891 282.673 26.4744C281.487 27.1597 280.089 27.5023 278.478 27.5023ZM278.867 23.7518C280.015 23.7518 280.923 23.2981 281.589 22.3906C282.275 21.4645 282.617 20.2421 282.617 18.7234C282.617 17.1862 282.275 15.9638 281.589 15.0563C280.923 14.1488 280.015 13.695 278.867 13.695C277.681 13.695 276.746 14.1488 276.061 15.0563C275.376 15.9638 275.033 17.1862 275.033 18.7234C275.033 20.2421 275.376 21.4645 276.061 22.3906C276.746 23.2981 277.681 23.7518 278.867 23.7518ZM293.623 10.6947H293.067C293.011 9.87976 293.03 9.11115 293.122 8.38883C293.215 7.648 293.41 7.05534 293.706 6.61084C294.021 6.14782 294.465 5.91631 295.039 5.91631C295.558 5.91631 295.938 6.083 296.178 6.41637C296.419 6.74975 296.54 7.21277 296.54 7.80543C296.54 8.97224 296.317 9.97236 295.873 10.8058L295.373 10.7502C296.373 10.3983 297.503 10.2224 298.762 10.2224C299.558 10.2224 300.188 10.3798 300.651 10.6947C301.133 10.991 301.373 11.5003 301.373 12.2226C301.373 12.9079 301.096 13.4265 300.54 13.7784C299.984 14.1303 299.29 14.3062 298.456 14.3062C297.956 14.3062 297.419 14.2877 296.845 14.2507C296.29 14.1951 295.743 14.1118 295.206 14.0006L295.678 13.4172C295.845 14.121 296.002 14.9267 296.151 15.8342C296.317 16.7232 296.465 17.6492 296.595 18.6123C296.725 19.5754 296.827 20.5107 296.901 21.4182C296.975 22.3257 297.012 23.1406 297.012 23.863C297.012 25.0483 296.827 25.9836 296.456 26.6689C296.086 27.3541 295.539 27.6968 294.817 27.6968C294.243 27.6968 293.789 27.5208 293.456 27.1689C293.141 26.817 292.909 26.3725 292.761 25.8354C292.632 25.2798 292.548 24.7056 292.511 24.113C292.493 23.5203 292.483 22.9832 292.483 22.5017C292.483 21.6868 292.521 20.77 292.595 19.7513C292.669 18.7142 292.771 17.6492 292.9 16.5565C293.048 15.4638 293.215 14.4081 293.4 13.3894L293.956 13.8617C293.011 14.3433 291.845 14.584 290.455 14.584C289.604 14.584 288.946 14.4266 288.483 14.1118C288.02 13.7969 287.788 13.3061 287.788 12.6394C287.788 11.917 288.048 11.3614 288.566 10.9725C289.085 10.565 289.779 10.3613 290.65 10.3613C291.224 10.3613 291.761 10.3983 292.261 10.4724C292.78 10.528 293.234 10.6021 293.623 10.6947Z" fill="white"/>
<path d="M6.12061 54.9503C6.12061 53.7538 6.3904 52.6805 6.92997 51.7304C7.46954 50.7686 8.20266 50.0179 9.12931 49.4783C10.0677 48.9387 11.1058 48.6689 12.2436 48.6689C13.5808 48.6689 14.7479 48.9915 15.7449 49.6366C16.742 50.2818 17.4692 51.1967 17.9267 52.3814H16.0089C15.6687 51.6424 15.176 51.0735 14.5309 50.6747C13.8975 50.2759 13.135 50.0765 12.2436 50.0765C11.3873 50.0765 10.619 50.2759 9.93867 50.6747C9.25834 51.0735 8.72463 51.6424 8.33755 52.3814C7.95046 53.1087 7.75692 53.9649 7.75692 54.9503C7.75692 55.9238 7.95046 56.7801 8.33755 57.5191C8.72463 58.2463 9.25834 58.8094 9.93867 59.2082C10.619 59.607 11.3873 59.8064 12.2436 59.8064C13.135 59.8064 13.8975 59.6129 14.5309 59.2258C15.176 58.827 15.6687 58.2581 16.0089 57.5191H17.9267C17.4692 58.6921 16.742 59.6011 15.7449 60.2463C14.7479 60.8797 13.5808 61.1964 12.2436 61.1964C11.1058 61.1964 10.0677 60.9325 9.12931 60.4046C8.20266 59.8651 7.46954 59.1202 6.92997 58.1701C6.3904 57.22 6.12061 56.1467 6.12061 54.9503ZM25.0959 51.273C25.8231 51.273 26.48 51.4313 27.0665 51.748C27.653 52.053 28.1104 52.5163 28.4389 53.138C28.779 53.7597 28.9491 54.5162 28.9491 55.4077V61.0908H27.3656V55.6364C27.3656 54.6746 27.1251 53.9415 26.6442 53.4371C26.1633 52.921 25.5064 52.6629 24.6736 52.6629C23.829 52.6629 23.1546 52.9269 22.6502 53.4547C22.1575 53.9825 21.9112 54.7508 21.9112 55.7596V61.0908H20.3101V48.0707H21.9112V52.8213C22.2279 52.3286 22.6619 51.9474 23.2132 51.6776C23.7763 51.4078 24.4038 51.273 25.0959 51.273ZM35.7697 61.2492C34.8665 61.2492 34.0454 61.0439 33.3064 60.6334C32.5792 60.2228 32.0044 59.6422 31.5821 58.8915C31.1716 58.129 30.9663 57.2493 30.9663 56.2523C30.9663 55.267 31.1775 54.399 31.5997 53.6482C32.0337 52.8858 32.6202 52.3052 33.3592 51.9064C34.0982 51.4958 34.9251 51.2905 35.8401 51.2905C36.755 51.2905 37.5819 51.4958 38.3209 51.9064C39.0599 52.3052 39.6405 52.8799 40.0628 53.6306C40.4968 54.3814 40.7138 55.2552 40.7138 56.2523C40.7138 57.2493 40.4909 58.129 40.0452 58.8915C39.6112 59.6422 39.0188 60.2228 38.2681 60.6334C37.5174 61.0439 36.6846 61.2492 35.7697 61.2492ZM35.7697 59.8416C36.3444 59.8416 36.884 59.7067 37.3884 59.4369C37.8928 59.1671 38.2975 58.7624 38.6024 58.2229C38.9191 57.6833 39.0775 57.0264 39.0775 56.2523C39.0775 55.4781 38.925 54.8212 38.62 54.2817C38.3151 53.7421 37.9162 53.3433 37.4236 53.0852C36.9309 52.8154 36.3972 52.6805 35.8225 52.6805C35.236 52.6805 34.6964 52.8154 34.2038 53.0852C33.7228 53.3433 33.3357 53.7421 33.0425 54.2817C32.7493 54.8212 32.6026 55.4781 32.6026 56.2523C32.6026 57.0382 32.7434 57.7009 33.0249 58.2405C33.3181 58.78 33.7052 59.1847 34.1862 59.4545C34.6671 59.7126 35.1949 59.8416 35.7697 59.8416ZM47.0241 61.2492C46.1209 61.2492 45.2999 61.0439 44.5609 60.6334C43.8336 60.2228 43.2589 59.6422 42.8366 58.8915C42.426 58.129 42.2208 57.2493 42.2208 56.2523C42.2208 55.267 42.4319 54.399 42.8542 53.6482C43.2882 52.8858 43.8747 52.3052 44.6137 51.9064C45.3526 51.4958 46.1796 51.2905 47.0945 51.2905C48.0094 51.2905 48.8364 51.4958 49.5754 51.9064C50.3144 52.3052 50.895 52.8799 51.3173 53.6306C51.7513 54.3814 51.9683 55.2552 51.9683 56.2523C51.9683 57.2493 51.7454 58.129 51.2997 58.8915C50.8657 59.6422 50.2733 60.2228 49.5226 60.6334C48.7719 61.0439 47.9391 61.2492 47.0241 61.2492ZM47.0241 59.8416C47.5989 59.8416 48.1385 59.7067 48.6429 59.4369C49.1472 59.1671 49.5519 58.7624 49.8569 58.2229C50.1736 57.6833 50.3319 57.0264 50.3319 56.2523C50.3319 55.4781 50.1795 54.8212 49.8745 54.2817C49.5695 53.7421 49.1707 53.3433 48.678 53.0852C48.1854 52.8154 47.6517 52.6805 47.0769 52.6805C46.4904 52.6805 45.9509 52.8154 45.4582 53.0852C44.9773 53.3433 44.5902 53.7421 44.2969 54.2817C44.0037 54.8212 43.8571 55.4781 43.8571 56.2523C43.8571 57.0382 43.9978 57.7009 44.2794 58.2405C44.5726 58.78 44.9597 59.1847 45.4406 59.4545C45.9215 59.7126 46.4494 59.8416 47.0241 59.8416ZM57.4868 61.2492C56.7478 61.2492 56.0851 61.126 55.4986 60.8797C54.9121 60.6216 54.4488 60.2697 54.1086 59.824C53.7685 59.3665 53.5808 58.8446 53.5456 58.2581H55.1995C55.2464 58.739 55.4693 59.1319 55.8681 59.4369C56.2787 59.7419 56.8124 59.8944 57.4692 59.8944C58.0792 59.8944 58.5601 59.7595 58.912 59.4897C59.2639 59.2199 59.4398 58.8797 59.4398 58.4692C59.4398 58.0469 59.2522 57.7361 58.8768 57.5367C58.5015 57.3255 57.9208 57.1203 57.1349 56.9209C56.4194 56.7332 55.8329 56.5455 55.3755 56.3578C54.9297 56.1584 54.5426 55.871 54.2142 55.4957C53.8975 55.1086 53.7391 54.6042 53.7391 53.9825C53.7391 53.4899 53.8858 53.0383 54.179 52.6277C54.4723 52.2172 54.8887 51.8946 55.4282 51.66C55.9678 51.4137 56.5836 51.2905 57.2757 51.2905C58.3431 51.2905 59.2052 51.5603 59.8621 52.0999C60.519 52.6395 60.8709 53.3785 60.9178 54.3168H59.3167C59.2815 53.8125 59.0762 53.4078 58.7009 53.1028C58.3372 52.7978 57.8446 52.6453 57.2229 52.6453C56.6481 52.6453 56.1907 52.7685 55.8505 53.0148C55.5104 53.2612 55.3403 53.5837 55.3403 53.9825C55.3403 54.2992 55.44 54.5632 55.6394 54.7743C55.8505 54.9737 56.1086 55.1379 56.4135 55.267C56.7303 55.3843 57.1643 55.5191 57.7156 55.6716C58.4076 55.8593 58.9707 56.047 59.4047 56.2347C59.8387 56.4106 60.2081 56.6804 60.5131 57.044C60.8298 57.4077 60.994 57.8827 61.0058 58.4692C61.0058 58.997 60.8592 59.4721 60.5659 59.8944C60.2727 60.3167 59.8563 60.651 59.3167 60.8973C58.7888 61.1319 58.1789 61.2492 57.4868 61.2492ZM72.0634 55.9004C72.0634 56.2053 72.0458 56.5279 72.0106 56.8681H64.3041C64.3628 57.8182 64.6853 58.563 65.2718 59.1026C65.87 59.6305 66.5914 59.8944 67.436 59.8944C68.128 59.8944 68.7028 59.736 69.1603 59.4193C69.6294 59.0909 69.9579 58.6569 70.1456 58.1173H71.8698C71.6118 59.044 71.0957 59.8005 70.3215 60.387C69.5473 60.9618 68.5855 61.2492 67.436 61.2492C66.521 61.2492 65.7 61.0439 64.9727 60.6334C64.2572 60.2228 63.6942 59.6422 63.2836 58.8915C62.8731 58.129 62.6678 57.2493 62.6678 56.2523C62.6678 55.2552 62.8672 54.3814 63.266 53.6306C63.6648 52.8799 64.222 52.3052 64.9375 51.9064C65.6648 51.4958 66.4976 51.2905 67.436 51.2905C68.3509 51.2905 69.1603 51.49 69.864 51.8888C70.5678 52.2876 71.1074 52.8389 71.4828 53.5427C71.8698 54.2347 72.0634 55.0206 72.0634 55.9004ZM70.4095 55.5661C70.4095 54.9561 70.2746 54.4341 70.0048 54.0001C69.735 53.5544 69.3655 53.2201 68.8963 52.9972C68.4389 52.7626 67.9286 52.6453 67.3656 52.6453C66.5562 52.6453 65.8642 52.9034 65.2894 53.4195C64.7264 53.9356 64.4038 54.6511 64.3217 55.5661H70.4095ZM87.1723 51.4489L81.3661 65.6303H79.7122L81.6124 60.9853L77.7239 51.4489H79.501L82.5273 59.261L85.5184 51.4489H87.1723ZM92.987 61.2492C92.0838 61.2492 91.2627 61.0439 90.5237 60.6334C89.7965 60.2228 89.2217 59.6422 88.7994 58.8915C88.3889 58.129 88.1836 57.2493 88.1836 56.2523C88.1836 55.267 88.3948 54.399 88.817 53.6482C89.251 52.8858 89.8375 52.3052 90.5765 51.9064C91.3155 51.4958 92.1424 51.2905 93.0574 51.2905C93.9723 51.2905 94.7992 51.4958 95.5382 51.9064C96.2772 52.3052 96.8578 52.8799 97.2801 53.6306C97.7141 54.3814 97.9311 55.2552 97.9311 56.2523C97.9311 57.2493 97.7082 58.129 97.2625 58.8915C96.8285 59.6422 96.2361 60.2228 95.4854 60.6334C94.7347 61.0439 93.9019 61.2492 92.987 61.2492ZM92.987 59.8416C93.5617 59.8416 94.1013 59.7067 94.6057 59.4369C95.1101 59.1671 95.5148 58.7624 95.8197 58.2229C96.1364 57.6833 96.2948 57.0264 96.2948 56.2523C96.2948 55.4781 96.1423 54.8212 95.8373 54.2817C95.5324 53.7421 95.1335 53.3433 94.6409 53.0852C94.1482 52.8154 93.6145 52.6805 93.0398 52.6805C92.4533 52.6805 91.9137 52.8154 91.421 53.0852C90.9401 53.3433 90.553 53.7421 90.2598 54.2817C89.9665 54.8212 89.8199 55.4781 89.8199 56.2523C89.8199 57.0382 89.9607 57.7009 90.2422 58.2405C90.5354 58.78 90.9225 59.1847 91.4035 59.4545C91.8844 59.7126 92.4122 59.8416 92.987 59.8416ZM108.587 51.4489V61.0908H106.986V59.6656C106.681 60.1583 106.253 60.5454 105.702 60.8269C105.162 61.0967 104.564 61.2316 103.907 61.2316C103.156 61.2316 102.482 61.0791 101.884 60.7741C101.286 60.4574 100.81 59.9882 100.459 59.3665C100.118 58.7449 99.9483 57.9883 99.9483 57.0968V51.4489H101.532V56.8857C101.532 57.8358 101.772 58.5689 102.253 59.085C102.734 59.5894 103.391 59.8416 104.224 59.8416C105.08 59.8416 105.755 59.5777 106.247 59.0498C106.74 58.522 106.986 57.7537 106.986 56.7449V51.4489H108.587ZM112.892 53.0148C113.173 52.4635 113.572 52.0354 114.088 51.7304C114.616 51.4254 115.255 51.273 116.006 51.273V52.9269H115.584C113.789 52.9269 112.892 53.9004 112.892 55.8476V61.0908H111.291V51.4489H112.892V53.0148ZM125.959 61.2492C125.22 61.2492 124.557 61.126 123.97 60.8797C123.384 60.6216 122.921 60.2697 122.58 59.824C122.24 59.3665 122.053 58.8446 122.017 58.2581H123.671C123.718 58.739 123.941 59.1319 124.34 59.4369C124.75 59.7419 125.284 59.8944 125.941 59.8944C126.551 59.8944 127.032 59.7595 127.384 59.4897C127.736 59.2199 127.912 58.8797 127.912 58.4692C127.912 58.0469 127.724 57.7361 127.349 57.5367C126.973 57.3255 126.393 57.1203 125.607 56.9209C124.891 56.7332 124.305 56.5455 123.847 56.3578C123.401 56.1584 123.014 55.871 122.686 55.4957C122.369 55.1086 122.211 54.6042 122.211 53.9825C122.211 53.4899 122.358 53.0383 122.651 52.6277C122.944 52.2172 123.36 51.8946 123.9 51.66C124.44 51.4137 125.055 51.2905 125.747 51.2905C126.815 51.2905 127.677 51.5603 128.334 52.0999C128.991 52.6395 129.343 53.3785 129.39 54.3168H127.788C127.753 53.8125 127.548 53.4078 127.173 53.1028C126.809 52.7978 126.316 52.6453 125.695 52.6453C125.12 52.6453 124.662 52.7685 124.322 53.0148C123.982 53.2612 123.812 53.5837 123.812 53.9825C123.812 54.2992 123.912 54.5632 124.111 54.7743C124.322 54.9737 124.58 55.1379 124.885 55.267C125.202 55.3843 125.636 55.5191 126.187 55.6716C126.879 55.8593 127.442 56.047 127.876 56.2347C128.31 56.4106 128.68 56.6804 128.985 57.044C129.302 57.4077 129.466 57.8827 129.478 58.4692C129.478 58.997 129.331 59.4721 129.038 59.8944C128.744 60.3167 128.328 60.651 127.788 60.8973C127.261 61.1319 126.651 61.2492 125.959 61.2492ZM144.582 51.4489L141.573 61.0908H139.919L137.597 53.4371L135.274 61.0908H133.62L130.594 51.4489H132.23L134.447 59.5425L136.84 51.4489H138.477L140.817 59.5601L142.998 51.4489H144.582ZM145.573 56.2347C145.573 55.2494 145.772 54.3872 146.171 53.6482C146.57 52.8975 147.115 52.3169 147.807 51.9064C148.511 51.4958 149.291 51.2905 150.147 51.2905C150.992 51.2905 151.725 51.4724 152.347 51.836C152.968 52.1996 153.432 52.6571 153.737 53.2084V51.4489H155.355V61.0908H153.737V59.2962C153.42 59.8592 152.945 60.3284 152.312 60.7037C151.69 61.0674 150.963 61.2492 150.13 61.2492C149.273 61.2492 148.499 61.038 147.807 60.6158C147.115 60.1935 146.57 59.6011 146.171 58.8387C145.772 58.0763 145.573 57.2082 145.573 56.2347ZM153.737 56.2523C153.737 55.525 153.59 54.8916 153.297 54.352C153.004 53.8125 152.605 53.4019 152.1 53.1204C151.608 52.8272 151.062 52.6805 150.464 52.6805C149.866 52.6805 149.32 52.8213 148.828 53.1028C148.335 53.3843 147.942 53.7949 147.649 54.3344C147.356 54.874 147.209 55.5074 147.209 56.2347C147.209 56.9736 147.356 57.6188 147.649 58.1701C147.942 58.7097 148.335 59.1261 148.828 59.4193C149.32 59.7008 149.866 59.8416 150.464 59.8416C151.062 59.8416 151.608 59.7008 152.1 59.4193C152.605 59.1261 153.004 58.7097 153.297 58.1701C153.59 57.6188 153.737 56.9795 153.737 56.2523ZM159.662 53.226C159.979 52.6747 160.448 52.2172 161.07 51.8536C161.703 51.4782 162.436 51.2905 163.269 51.2905C164.125 51.2905 164.9 51.4958 165.592 51.9064C166.295 52.3169 166.847 52.8975 167.246 53.6482C167.644 54.3872 167.844 55.2494 167.844 56.2347C167.844 57.2082 167.644 58.0763 167.246 58.8387C166.847 59.6011 166.295 60.1935 165.592 60.6158C164.9 61.038 164.125 61.2492 163.269 61.2492C162.448 61.2492 161.721 61.0674 161.087 60.7037C160.466 60.3284 159.991 59.8651 159.662 59.3138V65.6655H158.061V51.4489H159.662V53.226ZM166.208 56.2347C166.208 55.5074 166.061 54.874 165.768 54.3344C165.474 53.7949 165.076 53.3843 164.571 53.1028C164.079 52.8213 163.533 52.6805 162.935 52.6805C162.348 52.6805 161.803 52.8272 161.299 53.1204C160.806 53.4019 160.407 53.8183 160.102 54.3696C159.809 54.9092 159.662 55.5367 159.662 56.2523C159.662 56.9795 159.809 57.6188 160.102 58.1701C160.407 58.7097 160.806 59.1261 161.299 59.4193C161.803 59.7008 162.348 59.8416 162.935 59.8416C163.533 59.8416 164.079 59.7008 164.571 59.4193C165.076 59.1261 165.474 58.7097 165.768 58.1701C166.061 57.6188 166.208 56.9736 166.208 56.2347ZM176.243 53.226C176.56 52.6747 177.029 52.2172 177.651 51.8536C178.284 51.4782 179.017 51.2905 179.85 51.2905C180.706 51.2905 181.481 51.4958 182.173 51.9064C182.876 52.3169 183.428 52.8975 183.827 53.6482C184.225 54.3872 184.425 55.2494 184.425 56.2347C184.425 57.2082 184.225 58.0763 183.827 58.8387C183.428 59.6011 182.876 60.1935 182.173 60.6158C181.481 61.038 180.706 61.2492 179.85 61.2492C179.029 61.2492 178.302 61.0674 177.668 60.7037C177.047 60.3284 176.572 59.8651 176.243 59.3138V65.6655H174.642V51.4489H176.243V53.226ZM182.789 56.2347C182.789 55.5074 182.642 54.874 182.349 54.3344C182.055 53.7949 181.657 53.3843 181.152 53.1028C180.66 52.8213 180.114 52.6805 179.516 52.6805C178.929 52.6805 178.384 52.8272 177.88 53.1204C177.387 53.4019 176.988 53.8183 176.683 54.3696C176.39 54.9092 176.243 55.5367 176.243 56.2523C176.243 56.9795 176.39 57.6188 176.683 58.1701C176.988 58.7097 177.387 59.1261 177.88 59.4193C178.384 59.7008 178.929 59.8416 179.516 59.8416C180.114 59.8416 180.66 59.7008 181.152 59.4193C181.657 59.1261 182.055 58.7097 182.349 58.1701C182.642 57.6188 182.789 56.9736 182.789 56.2347ZM188.133 53.0148C188.415 52.4635 188.814 52.0354 189.33 51.7304C189.858 51.4254 190.497 51.273 191.248 51.273V52.9269H190.825C189.031 52.9269 188.133 53.9004 188.133 55.8476V61.0908H186.532V51.4489H188.133V53.0148ZM197.301 61.2492C196.398 61.2492 195.577 61.0439 194.838 60.6334C194.111 60.2228 193.536 59.6422 193.114 58.8915C192.703 58.129 192.498 57.2493 192.498 56.2523C192.498 55.267 192.709 54.399 193.131 53.6482C193.565 52.8858 194.152 52.3052 194.891 51.9064C195.63 51.4958 196.457 51.2905 197.372 51.2905C198.286 51.2905 199.113 51.4958 199.852 51.9064C200.591 52.3052 201.172 52.8799 201.594 53.6306C202.028 54.3814 202.245 55.2552 202.245 56.2523C202.245 57.2493 202.022 58.129 201.577 58.8915C201.143 59.6422 200.55 60.2228 199.8 60.6334C199.049 61.0439 198.216 61.2492 197.301 61.2492ZM197.301 59.8416C197.876 59.8416 198.415 59.7067 198.92 59.4369C199.424 59.1671 199.829 58.7624 200.134 58.2229C200.451 57.6833 200.609 57.0264 200.609 56.2523C200.609 55.4781 200.456 54.8212 200.152 54.2817C199.847 53.7421 199.448 53.3433 198.955 53.0852C198.462 52.8154 197.929 52.6805 197.354 52.6805C196.767 52.6805 196.228 52.8154 195.735 53.0852C195.254 53.3433 194.867 53.7421 194.574 54.2817C194.281 54.8212 194.134 55.4781 194.134 56.2523C194.134 57.0382 194.275 57.7009 194.556 58.2405C194.85 58.78 195.237 59.1847 195.718 59.4545C196.199 59.7126 196.726 59.8416 197.301 59.8416ZM207.94 59.6129L210.931 51.4489H212.638L208.855 61.0908H206.99L203.207 51.4489H204.931L207.94 59.6129ZM215.04 49.883C214.735 49.883 214.477 49.7774 214.266 49.5663C214.055 49.3551 213.949 49.0971 213.949 48.7921C213.949 48.4871 214.055 48.2291 214.266 48.0179C214.477 47.8068 214.735 47.7012 215.04 47.7012C215.333 47.7012 215.58 47.8068 215.779 48.0179C215.99 48.2291 216.096 48.4871 216.096 48.7921C216.096 49.0971 215.99 49.3551 215.779 49.5663C215.58 49.7774 215.333 49.883 215.04 49.883ZM215.814 51.4489V61.0908H214.213V51.4489H215.814ZM217.945 56.2347C217.945 55.2494 218.144 54.3872 218.543 53.6482C218.942 52.8975 219.487 52.3169 220.179 51.9064C220.883 51.4958 221.669 51.2905 222.537 51.2905C223.288 51.2905 223.986 51.4665 224.631 51.8184C225.276 52.1586 225.769 52.6102 226.109 53.1732V48.0707H227.728V61.0908H226.109V59.2786C225.792 59.8533 225.323 60.3284 224.701 60.7037C224.08 61.0674 223.352 61.2492 222.52 61.2492C221.663 61.2492 220.883 61.038 220.179 60.6158C219.487 60.1935 218.942 59.6011 218.543 58.8387C218.144 58.0763 217.945 57.2082 217.945 56.2347ZM226.109 56.2523C226.109 55.525 225.962 54.8916 225.669 54.352C225.376 53.8125 224.977 53.4019 224.473 53.1204C223.98 52.8272 223.434 52.6805 222.836 52.6805C222.238 52.6805 221.693 52.8213 221.2 53.1028C220.707 53.3843 220.314 53.7949 220.021 54.3344C219.728 54.874 219.581 55.5074 219.581 56.2347C219.581 56.9736 219.728 57.6188 220.021 58.1701C220.314 58.7097 220.707 59.1261 221.2 59.4193C221.693 59.7008 222.238 59.8416 222.836 59.8416C223.434 59.8416 223.98 59.7008 224.473 59.4193C224.977 59.1261 225.376 58.7097 225.669 58.1701C225.962 57.6188 226.109 56.9795 226.109 56.2523ZM239.231 55.9004C239.231 56.2053 239.213 56.5279 239.178 56.8681H231.471C231.53 57.8182 231.853 58.563 232.439 59.1026C233.037 59.6305 233.759 59.8944 234.603 59.8944C235.295 59.8944 235.87 59.736 236.328 59.4193C236.797 59.0909 237.125 58.6569 237.313 58.1173H239.037C238.779 59.044 238.263 59.8005 237.489 60.387C236.715 60.9618 235.753 61.2492 234.603 61.2492C233.688 61.2492 232.867 61.0439 232.14 60.6334C231.424 60.2228 230.861 59.6422 230.451 58.8915C230.04 58.129 229.835 57.2493 229.835 56.2523C229.835 55.2552 230.034 54.3814 230.433 53.6306C230.832 52.8799 231.389 52.3052 232.105 51.9064C232.832 51.4958 233.665 51.2905 234.603 51.2905C235.518 51.2905 236.328 51.49 237.031 51.8888C237.735 52.2876 238.275 52.8389 238.65 53.5427C239.037 54.2347 239.231 55.0206 239.231 55.9004ZM237.577 55.5661C237.577 54.9561 237.442 54.4341 237.172 54.0001C236.902 53.5544 236.533 53.2201 236.064 52.9972C235.606 52.7626 235.096 52.6453 234.533 52.6453C233.724 52.6453 233.031 52.9034 232.457 53.4195C231.894 53.9356 231.571 54.6511 231.489 55.5661H237.577ZM242.945 53.0148C243.227 52.4635 243.626 52.0354 244.142 51.7304C244.67 51.4254 245.309 51.273 246.059 51.273V52.9269H245.637C243.843 52.9269 242.945 53.9004 242.945 55.8476V61.0908H241.344V51.4489H242.945V53.0148ZM252 56.2347C252 55.2494 252.2 54.3872 252.599 53.6482C252.997 52.8975 253.543 52.3169 254.235 51.9064C254.939 51.4958 255.725 51.2905 256.593 51.2905C257.343 51.2905 258.041 51.4665 258.686 51.8184C259.331 52.1586 259.824 52.6102 260.164 53.1732V48.0707H261.783V61.0908H260.164V59.2786C259.848 59.8533 259.378 60.3284 258.757 60.7037C258.135 61.0674 257.408 61.2492 256.575 61.2492C255.719 61.2492 254.939 61.038 254.235 60.6158C253.543 60.1935 252.997 59.6011 252.599 58.8387C252.2 58.0763 252 57.2082 252 56.2347ZM260.164 56.2523C260.164 55.525 260.018 54.8916 259.724 54.352C259.431 53.8125 259.032 53.4019 258.528 53.1204C258.035 52.8272 257.49 52.6805 256.892 52.6805C256.293 52.6805 255.748 52.8213 255.255 53.1028C254.763 53.3843 254.37 53.7949 254.077 54.3344C253.783 54.874 253.637 55.5074 253.637 56.2347C253.637 56.9736 253.783 57.6188 254.077 58.1701C254.37 58.7097 254.763 59.1261 255.255 59.4193C255.748 59.7008 256.293 59.8416 256.892 59.8416C257.49 59.8416 258.035 59.7008 258.528 59.4193C259.032 59.1261 259.431 58.7097 259.724 58.1701C260.018 57.6188 260.164 56.9795 260.164 56.2523ZM268.694 61.2492C267.791 61.2492 266.97 61.0439 266.231 60.6334C265.503 60.2228 264.929 59.6422 264.506 58.8915C264.096 58.129 263.891 57.2493 263.891 56.2523C263.891 55.267 264.102 54.399 264.524 53.6482C264.958 52.8858 265.544 52.3052 266.283 51.9064C267.022 51.4958 267.849 51.2905 268.764 51.2905C269.679 51.2905 270.506 51.4958 271.245 51.9064C271.984 52.3052 272.565 52.8799 272.987 53.6306C273.421 54.3814 273.638 55.2552 273.638 56.2523C273.638 57.2493 273.415 58.129 272.969 58.8915C272.535 59.6422 271.943 60.2228 271.192 60.6334C270.442 61.0439 269.609 61.2492 268.694 61.2492ZM268.694 59.8416C269.269 59.8416 269.808 59.7067 270.313 59.4369C270.817 59.1671 271.222 58.7624 271.527 58.2229C271.843 57.6833 272.002 57.0264 272.002 56.2523C272.002 55.4781 271.849 54.8212 271.544 54.2817C271.239 53.7421 270.84 53.3433 270.348 53.0852C269.855 52.8154 269.321 52.6805 268.747 52.6805C268.16 52.6805 267.621 52.8154 267.128 53.0852C266.647 53.3433 266.26 53.7421 265.967 54.2817C265.673 54.8212 265.527 55.4781 265.527 56.2523C265.527 57.0382 265.668 57.7009 265.949 58.2405C266.242 58.78 266.629 59.1847 267.11 59.4545C267.591 59.7126 268.119 59.8416 268.694 59.8416ZM288.587 51.4489L285.579 61.0908H283.925L281.602 53.4371L279.28 61.0908H277.626L274.6 51.4489H276.236L278.453 59.5425L280.846 51.4489H282.482L284.822 59.5601L287.004 51.4489H288.587ZM294.874 51.273C296.047 51.273 296.997 51.6307 297.725 52.3462C298.452 53.05 298.815 54.0705 298.815 55.4077V61.0908H297.232V55.6364C297.232 54.6746 296.991 53.9415 296.51 53.4371C296.03 52.921 295.373 52.6629 294.54 52.6629C293.695 52.6629 293.021 52.9269 292.516 53.4547C292.024 53.9825 291.778 54.7508 291.778 55.7596V61.0908H290.176V51.4489H291.778V52.8213C292.094 52.3286 292.522 51.9474 293.062 51.6776C293.613 51.4078 294.217 51.273 294.874 51.273ZM307.723 53.2436C308.051 52.6688 308.532 52.1996 309.166 51.836C309.799 51.4724 310.52 51.2905 311.33 51.2905C312.198 51.2905 312.978 51.4958 313.67 51.9064C314.362 52.3169 314.907 52.8975 315.306 53.6482C315.705 54.3872 315.904 55.2494 315.904 56.2347C315.904 57.2082 315.705 58.0763 315.306 58.8387C314.907 59.6011 314.356 60.1935 313.652 60.6158C312.96 61.038 312.186 61.2492 311.33 61.2492C310.497 61.2492 309.764 61.0674 309.13 60.7037C308.509 60.3401 308.039 59.8768 307.723 59.3138V61.0908H306.122V48.0707H307.723V53.2436ZM314.268 56.2347C314.268 55.5074 314.121 54.874 313.828 54.3344C313.535 53.7949 313.136 53.3843 312.632 53.1028C312.139 52.8213 311.594 52.6805 310.995 52.6805C310.409 52.6805 309.863 52.8272 309.359 53.1204C308.866 53.4019 308.468 53.8183 308.163 54.3696C307.869 54.9092 307.723 55.5367 307.723 56.2523C307.723 56.9795 307.869 57.6188 308.163 58.1701C308.468 58.7097 308.866 59.1261 309.359 59.4193C309.863 59.7008 310.409 59.8416 310.995 59.8416C311.594 59.8416 312.139 59.7008 312.632 59.4193C313.136 59.1261 313.535 58.7097 313.828 58.1701C314.121 57.6188 314.268 56.9736 314.268 56.2347ZM326.809 55.9004C326.809 56.2053 326.792 56.5279 326.756 56.8681H319.05C319.109 57.8182 319.431 58.563 320.018 59.1026C320.616 59.6305 321.337 59.8944 322.182 59.8944C322.874 59.8944 323.449 59.736 323.906 59.4193C324.375 59.0909 324.704 58.6569 324.891 58.1173H326.616C326.358 59.044 325.842 59.8005 325.067 60.387C324.293 60.9618 323.331 61.2492 322.182 61.2492C321.267 61.2492 320.446 61.0439 319.719 60.6334C319.003 60.2228 318.44 59.6422 318.029 58.8915C317.619 58.129 317.414 57.2493 317.414 56.2523C317.414 55.2552 317.613 54.3814 318.012 53.6306C318.411 52.8799 318.968 52.3052 319.683 51.9064C320.411 51.4958 321.243 51.2905 322.182 51.2905C323.097 51.2905 323.906 51.49 324.61 51.8888C325.314 52.2876 325.853 52.8389 326.229 53.5427C326.616 54.2347 326.809 55.0206 326.809 55.9004ZM325.155 55.5661C325.155 54.9561 325.02 54.4341 324.751 54.0001C324.481 53.5544 324.111 53.2201 323.642 52.9972C323.185 52.7626 322.674 52.6453 322.111 52.6453C321.302 52.6453 320.61 52.9034 320.035 53.4195C319.472 53.9356 319.15 54.6511 319.068 55.5661H325.155ZM330.524 48.0707V61.0908H328.923V48.0707H330.524ZM337.458 61.2492C336.555 61.2492 335.733 61.0439 334.994 60.6334C334.267 60.2228 333.692 59.6422 333.27 58.8915C332.86 58.129 332.654 57.2493 332.654 56.2523C332.654 55.267 332.866 54.399 333.288 53.6482C333.722 52.8858 334.308 52.3052 335.047 51.9064C335.786 51.4958 336.613 51.2905 337.528 51.2905C338.443 51.2905 339.27 51.4958 340.009 51.9064C340.748 52.3052 341.329 52.8799 341.751 53.6306C342.185 54.3814 342.402 55.2552 342.402 56.2523C342.402 57.2493 342.179 58.129 341.733 58.8915C341.299 59.6422 340.707 60.2228 339.956 60.6334C339.205 61.0439 338.373 61.2492 337.458 61.2492ZM337.458 59.8416C338.032 59.8416 338.572 59.7067 339.076 59.4369C339.581 59.1671 339.986 58.7624 340.29 58.2229C340.607 57.6833 340.766 57.0264 340.766 56.2523C340.766 55.4781 340.613 54.8212 340.308 54.2817C340.003 53.7421 339.604 53.3433 339.112 53.0852C338.619 52.8154 338.085 52.6805 337.511 52.6805C336.924 52.6805 336.384 52.8154 335.892 53.0852C335.411 53.3433 335.024 53.7421 334.731 54.2817C334.437 54.8212 334.291 55.4781 334.291 56.2523C334.291 57.0382 334.431 57.7009 334.713 58.2405C335.006 58.78 335.393 59.1847 335.874 59.4545C336.355 59.7126 336.883 59.8416 337.458 59.8416ZM357.351 51.4489L354.343 61.0908H352.689L350.366 53.4371L348.044 61.0908H346.39L343.363 51.4489H345L347.217 59.5425L349.61 51.4489H351.246L353.586 59.5601L355.768 51.4489H357.351ZM360.594 58.8739L358.624 63.6069H357.55L358.835 58.8739H360.594ZM31.877 82.2523C31.877 81.2552 32.0764 80.3872 32.4752 79.6482C32.874 78.8975 33.4253 78.3169 34.1291 77.9064C34.8446 77.4958 35.6599 77.2905 36.5748 77.2905C37.7595 77.2905 38.7331 77.5779 39.4955 78.1527C40.2697 78.7274 40.7799 79.5251 41.0263 80.5456H39.302C39.1377 79.9591 38.8152 79.4958 38.3343 79.1556C37.8651 78.8154 37.2786 78.6453 36.5748 78.6453C35.6599 78.6453 34.9209 78.962 34.3578 79.5955C33.7948 80.2171 33.5133 81.1027 33.5133 82.2523C33.5133 83.4135 33.7948 84.3108 34.3578 84.9443C34.9209 85.5777 35.6599 85.8944 36.5748 85.8944C37.2786 85.8944 37.8651 85.7302 38.3343 85.4017C38.8034 85.0733 39.126 84.6041 39.302 83.9941H41.0263C40.7682 84.9795 40.2521 85.7712 39.4779 86.3694C38.7037 86.9559 37.736 87.2492 36.5748 87.2492C35.6599 87.2492 34.8446 87.0439 34.1291 86.6334C33.4253 86.2228 32.874 85.6422 32.4752 84.8915C32.0764 84.1408 31.877 83.261 31.877 82.2523ZM47.3678 87.2492C46.4646 87.2492 45.6435 87.0439 44.9045 86.6334C44.1773 86.2228 43.6025 85.6422 43.1802 84.8915C42.7697 84.129 42.5644 83.2493 42.5644 82.2523C42.5644 81.267 42.7756 80.399 43.1978 79.6482C43.6318 78.8858 44.2183 78.3052 44.9573 77.9064C45.6963 77.4958 46.5232 77.2905 47.4382 77.2905C48.3531 77.2905 49.18 77.4958 49.919 77.9064C50.658 78.3052 51.2386 78.8799 51.6609 79.6306C52.0949 80.3814 52.3119 81.2552 52.3119 82.2523C52.3119 83.2493 52.089 84.129 51.6433 84.8915C51.2093 85.6422 50.6169 86.2228 49.8662 86.6334C49.1155 87.0439 48.2827 87.2492 47.3678 87.2492ZM47.3678 85.8416C47.9425 85.8416 48.4821 85.7067 48.9865 85.4369C49.4909 85.1671 49.8956 84.7624 50.2005 84.2229C50.5172 83.6833 50.6756 83.0264 50.6756 82.2523C50.6756 81.4781 50.5231 80.8212 50.2181 80.2817C49.9132 79.7421 49.5143 79.3433 49.0217 79.0852C48.529 78.8154 47.9953 78.6805 47.4206 78.6805C46.8341 78.6805 46.2945 78.8154 45.8019 79.0852C45.3209 79.3433 44.9338 79.7421 44.6406 80.2817C44.3474 80.8212 44.2007 81.4781 44.2007 82.2523C44.2007 83.0382 44.3415 83.7009 44.623 84.2405C44.9162 84.78 45.3033 85.1847 45.7843 85.4545C46.2652 85.7126 46.793 85.8416 47.3678 85.8416ZM59.1149 77.273C60.2879 77.273 61.238 77.6307 61.9652 78.3462C62.6925 79.05 63.0561 80.0705 63.0561 81.4077V87.0908H61.4726V81.6364C61.4726 80.6746 61.2321 79.9415 60.7512 79.4371C60.2703 78.921 59.6134 78.6629 58.7806 78.6629C57.936 78.6629 57.2616 78.9269 56.7572 79.4547C56.2645 79.9825 56.0182 80.7508 56.0182 81.7596V87.0908H54.4171V77.4489H56.0182V78.8213C56.3349 78.3286 56.7631 77.9474 57.3026 77.6776C57.8539 77.4078 58.458 77.273 59.1149 77.273ZM70.3693 77.273C71.5423 77.273 72.4924 77.6307 73.2197 78.3462C73.9469 79.05 74.3106 80.0705 74.3106 81.4077V87.0908H72.727V81.6364C72.727 80.6746 72.4866 79.9415 72.0056 79.4371C71.5247 78.921 70.8679 78.6629 70.035 78.6629C69.1905 78.6629 68.516 78.9269 68.0116 79.4547C67.519 79.9825 67.2727 80.7508 67.2727 81.7596V87.0908H65.6715V77.4489H67.2727V78.8213C67.5894 78.3286 68.0175 77.9474 68.5571 77.6776C69.1084 77.4078 69.7125 77.273 70.3693 77.273ZM85.7234 81.9004C85.7234 82.2053 85.7058 82.5279 85.6706 82.8681H77.9641C78.0227 83.8182 78.3453 84.563 78.9318 85.1026C79.53 85.6305 80.2514 85.8944 81.0959 85.8944C81.788 85.8944 82.3628 85.736 82.8202 85.4193C83.2894 85.0909 83.6179 84.6569 83.8055 84.1173H85.5298C85.2718 85.044 84.7557 85.8005 83.9815 86.387C83.2073 86.9618 82.2455 87.2492 81.0959 87.2492C80.181 87.2492 79.3599 87.0439 78.6327 86.6334C77.9172 86.2228 77.3541 85.6422 76.9436 84.8915C76.533 84.129 76.3278 83.2493 76.3278 82.2523C76.3278 81.2552 76.5272 80.3814 76.926 79.6306C77.3248 78.8799 77.882 78.3052 78.5975 77.9064C79.3247 77.4958 80.1576 77.2905 81.0959 77.2905C82.0109 77.2905 82.8202 77.49 83.524 77.8888C84.2278 78.2876 84.7674 78.8389 85.1427 79.5427C85.5298 80.2347 85.7234 81.0206 85.7234 81.9004ZM84.0695 81.5661C84.0695 80.9561 83.9346 80.4341 83.6648 80.0001C83.395 79.5544 83.0255 79.2201 82.5563 78.9972C82.0988 78.7626 81.5886 78.6453 81.0256 78.6453C80.2162 78.6453 79.5242 78.9034 78.9494 79.4195C78.3864 79.9356 78.0638 80.6511 77.9817 81.5661H84.0695ZM87.2386 82.2523C87.2386 81.2552 87.438 80.3872 87.8368 79.6482C88.2356 78.8975 88.7869 78.3169 89.4907 77.9064C90.2062 77.4958 91.0215 77.2905 91.9364 77.2905C93.1211 77.2905 94.0947 77.5779 94.8571 78.1527C95.6313 78.7274 96.1415 79.5251 96.3879 80.5456H94.6636C94.4994 79.9591 94.1768 79.4958 93.6959 79.1556C93.2267 78.8154 92.6402 78.6453 91.9364 78.6453C91.0215 78.6453 90.2825 78.962 89.7194 79.5955C89.1564 80.2171 88.8749 81.1027 88.8749 82.2523C88.8749 83.4135 89.1564 84.3108 89.7194 84.9443C90.2825 85.5777 91.0215 85.8944 91.9364 85.8944C92.6402 85.8944 93.2267 85.7302 93.6959 85.4017C94.1651 85.0733 94.4876 84.6041 94.6636 83.9941H96.3879C96.1298 84.9795 95.6137 85.7712 94.8395 86.3694C94.0653 86.9559 93.0976 87.2492 91.9364 87.2492C91.0215 87.2492 90.2062 87.0439 89.4907 86.6334C88.7869 86.2228 88.2356 85.6422 87.8368 84.8915C87.438 84.1408 87.2386 83.261 87.2386 82.2523ZM100.477 78.7685V84.4516C100.477 84.9208 100.577 85.2551 100.776 85.4545C100.976 85.6422 101.322 85.736 101.814 85.736H102.993V87.0908H101.551C100.659 87.0908 99.9905 86.8855 99.5447 86.475C99.099 86.0645 98.8761 85.39 98.8761 84.4516V78.7685H97.6269V77.4489H98.8761V75.0208H100.477V77.4489H102.993V78.7685H100.477ZM117.929 77.4489L112.122 91.6303H110.469L112.369 86.9853L108.48 77.4489H110.257L113.284 85.261L116.275 77.4489H117.929ZM123.743 87.2492C122.84 87.2492 122.019 87.0439 121.28 86.6334C120.553 86.2228 119.978 85.6422 119.556 84.8915C119.145 84.129 118.94 83.2493 118.94 82.2523C118.94 81.267 119.151 80.399 119.573 79.6482C120.007 78.8858 120.594 78.3052 121.333 77.9064C122.072 77.4958 122.899 77.2905 123.814 77.2905C124.729 77.2905 125.556 77.4958 126.295 77.9064C127.034 78.3052 127.614 78.8799 128.037 79.6306C128.471 80.3814 128.688 81.2552 128.688 82.2523C128.688 83.2493 128.465 84.129 128.019 84.8915C127.585 85.6422 126.993 86.2228 126.242 86.6334C125.491 87.0439 124.658 87.2492 123.743 87.2492ZM123.743 85.8416C124.318 85.8416 124.858 85.7067 125.362 85.4369C125.867 85.1671 126.271 84.7624 126.576 84.2229C126.893 83.6833 127.051 83.0264 127.051 82.2523C127.051 81.4781 126.899 80.8212 126.594 80.2817C126.289 79.7421 125.89 79.3433 125.397 79.0852C124.905 78.8154 124.371 78.6805 123.796 78.6805C123.21 78.6805 122.67 78.8154 122.177 79.0852C121.697 79.3433 121.309 79.7421 121.016 80.2817C120.723 80.8212 120.576 81.4781 120.576 82.2523C120.576 83.0382 120.717 83.7009 120.999 84.2405C121.292 84.78 121.679 85.1847 122.16 85.4545C122.641 85.7126 123.169 85.8416 123.743 85.8416ZM139.344 77.4489V87.0908H137.743V85.6656C137.438 86.1583 137.01 86.5454 136.458 86.8269C135.919 87.0967 135.32 87.2316 134.664 87.2316C133.913 87.2316 133.238 87.0791 132.64 86.7741C132.042 86.4574 131.567 85.9882 131.215 85.3665C130.875 84.7449 130.705 83.9883 130.705 83.0968V77.4489H132.288V82.8857C132.288 83.8358 132.529 84.5689 133.01 85.085C133.491 85.5894 134.147 85.8416 134.98 85.8416C135.837 85.8416 136.511 85.5777 137.004 85.0498C137.496 84.522 137.743 83.7537 137.743 82.7449V77.4489H139.344ZM143.648 79.0148C143.93 78.4635 144.329 78.0354 144.845 77.7304C145.373 77.4254 146.012 77.273 146.763 77.273V78.9269H146.34C144.546 78.9269 143.648 79.9004 143.648 81.8476V87.0908H142.047V77.4489H143.648V79.0148ZM166.146 77.4489L163.137 87.0908H161.483L159.161 79.4371L156.838 87.0908H155.184L152.158 77.4489H153.794L156.011 85.5425L158.404 77.4489H160.04L162.381 85.5601L164.562 77.4489H166.146ZM167.137 82.2347C167.137 81.2494 167.336 80.3872 167.735 79.6482C168.134 78.8975 168.679 78.3169 169.371 77.9064C170.075 77.4958 170.855 77.2905 171.711 77.2905C172.556 77.2905 173.289 77.4724 173.911 77.836C174.532 78.1996 174.996 78.6571 175.301 79.2084V77.4489H176.919V87.0908H175.301V85.2962C174.984 85.8592 174.509 86.3284 173.875 86.7037C173.254 87.0674 172.526 87.2492 171.694 87.2492C170.837 87.2492 170.063 87.038 169.371 86.6158C168.679 86.1935 168.134 85.6011 167.735 84.8387C167.336 84.0763 167.137 83.2082 167.137 82.2347ZM175.301 82.2523C175.301 81.525 175.154 80.8916 174.861 80.352C174.567 79.8125 174.169 79.4019 173.664 79.1204C173.172 78.8272 172.626 78.6805 172.028 78.6805C171.43 78.6805 170.884 78.8213 170.392 79.1028C169.899 79.3843 169.506 79.7949 169.213 80.3344C168.92 80.874 168.773 81.5074 168.773 82.2347C168.773 82.9736 168.92 83.6188 169.213 84.1701C169.506 84.7097 169.899 85.1261 170.392 85.4193C170.884 85.7008 171.43 85.8416 172.028 85.8416C172.626 85.8416 173.172 85.7008 173.664 85.4193C174.169 85.1261 174.567 84.7097 174.861 84.1701C175.154 83.6188 175.301 82.9795 175.301 82.2523ZM181.226 74.0707V87.0908H179.625V74.0707H181.226ZM185.556 74.0707V87.0908H183.955V74.0707H185.556ZM197.082 81.9004C197.082 82.2053 197.065 82.5279 197.03 82.8681H189.323C189.382 83.8182 189.704 84.563 190.291 85.1026C190.889 85.6305 191.61 85.8944 192.455 85.8944C193.147 85.8944 193.722 85.736 194.179 85.4193C194.648 85.0909 194.977 84.6569 195.164 84.1173H196.889C196.631 85.044 196.115 85.8005 195.34 86.387C194.566 86.9618 193.604 87.2492 192.455 87.2492C191.54 87.2492 190.719 87.0439 189.992 86.6334C189.276 86.2228 188.713 85.6422 188.303 84.8915C187.892 84.129 187.687 83.2493 187.687 82.2523C187.687 81.2552 187.886 80.3814 188.285 79.6306C188.684 78.8799 189.241 78.3052 189.956 77.9064C190.684 77.4958 191.517 77.2905 192.455 77.2905C193.37 77.2905 194.179 77.49 194.883 77.8888C195.587 78.2876 196.126 78.8389 196.502 79.5427C196.889 80.2347 197.082 81.0206 197.082 81.9004ZM195.428 81.5661C195.428 80.9561 195.294 80.4341 195.024 80.0001C194.754 79.5544 194.384 79.2201 193.915 78.9972C193.458 78.7626 192.948 78.6453 192.385 78.6453C191.575 78.6453 190.883 78.9034 190.308 79.4195C189.745 79.9356 189.423 80.6511 189.341 81.5661H195.428ZM201.149 78.7685V84.4516C201.149 84.9208 201.248 85.2551 201.448 85.4545C201.647 85.6422 201.993 85.736 202.486 85.736H203.665V87.0908H202.222C201.331 87.0908 200.662 86.8855 200.216 86.475C199.77 86.0645 199.548 85.39 199.548 84.4516V78.7685H198.298V77.4489H199.548V75.0208H201.149V77.4489H203.665V78.7685H201.149ZM207.259 84.8739L205.288 89.6069H204.215L205.499 84.8739H207.259ZM213.185 82.2347C213.185 81.2494 213.385 80.3872 213.784 79.6482C214.182 78.8975 214.728 78.3169 215.42 77.9064C216.124 77.4958 216.904 77.2905 217.76 77.2905C218.605 77.2905 219.338 77.4724 219.959 77.836C220.581 78.1996 221.044 78.6571 221.349 79.2084V77.4489H222.968V87.0908H221.349V85.2962C221.033 85.8592 220.558 86.3284 219.924 86.7037C219.302 87.0674 218.575 87.2492 217.742 87.2492C216.886 87.2492 216.112 87.038 215.42 86.6158C214.728 86.1935 214.182 85.6011 213.784 84.8387C213.385 84.0763 213.185 83.2082 213.185 82.2347ZM221.349 82.2523C221.349 81.525 221.203 80.8916 220.909 80.352C220.616 79.8125 220.217 79.4019 219.713 79.1204C219.22 78.8272 218.675 78.6805 218.077 78.6805C217.478 78.6805 216.933 78.8213 216.44 79.1028C215.948 79.3843 215.555 79.7949 215.262 80.3344C214.968 80.874 214.822 81.5074 214.822 82.2347C214.822 82.9736 214.968 83.6188 215.262 84.1701C215.555 84.7097 215.948 85.1261 216.44 85.4193C216.933 85.7008 217.478 85.8416 218.077 85.8416C218.675 85.8416 219.22 85.7008 219.713 85.4193C220.217 85.1261 220.616 84.7097 220.909 84.1701C221.203 83.6188 221.349 82.9795 221.349 82.2523ZM230.372 77.273C231.545 77.273 232.495 77.6307 233.222 78.3462C233.949 79.05 234.313 80.0705 234.313 81.4077V87.0908H232.729V81.6364C232.729 80.6746 232.489 79.9415 232.008 79.4371C231.527 78.921 230.87 78.6629 230.037 78.6629C229.193 78.6629 228.518 78.9269 228.014 79.4547C227.521 79.9825 227.275 80.7508 227.275 81.7596V87.0908H225.674V77.4489H227.275V78.8213C227.592 78.3286 228.02 77.9474 228.559 77.6776C229.111 77.4078 229.715 77.273 230.372 77.273ZM236.33 82.2347C236.33 81.2494 236.529 80.3872 236.928 79.6482C237.327 78.8975 237.872 78.3169 238.565 77.9064C239.268 77.4958 240.054 77.2905 240.922 77.2905C241.673 77.2905 242.371 77.4665 243.016 77.8184C243.661 78.1586 244.154 78.6102 244.494 79.1732V74.0707H246.113V87.0908H244.494V85.2786C244.177 85.8533 243.708 86.3284 243.086 86.7037C242.465 87.0674 241.737 87.2492 240.905 87.2492C240.048 87.2492 239.268 87.038 238.565 86.6158C237.872 86.1935 237.327 85.6011 236.928 84.8387C236.529 84.0763 236.33 83.2082 236.33 82.2347ZM244.494 82.2523C244.494 81.525 244.347 80.8916 244.054 80.352C243.761 79.8125 243.362 79.4019 242.858 79.1204C242.365 78.8272 241.82 78.6805 241.221 78.6805C240.623 78.6805 240.078 78.8213 239.585 79.1028C239.092 79.3843 238.699 79.7949 238.406 80.3344C238.113 80.874 237.966 81.5074 237.966 82.2347C237.966 82.9736 238.113 83.6188 238.406 84.1701C238.699 84.7097 239.092 85.1261 239.585 85.4193C240.078 85.7008 240.623 85.8416 241.221 85.8416C241.82 85.8416 242.365 85.7008 242.858 85.4193C243.362 85.1261 243.761 84.7097 244.054 84.1701C244.347 83.6188 244.494 82.9795 244.494 82.2523ZM255.11 79.2436C255.439 78.6688 255.92 78.1996 256.553 77.836C257.187 77.4724 257.908 77.2905 258.717 77.2905C259.585 77.2905 260.365 77.4958 261.057 77.9064C261.749 78.3169 262.295 78.8975 262.694 79.6482C263.092 80.3872 263.292 81.2494 263.292 82.2347C263.292 83.2082 263.092 84.0763 262.694 84.8387C262.295 85.6011 261.744 86.1935 261.04 86.6158C260.348 87.038 259.574 87.2492 258.717 87.2492C257.884 87.2492 257.151 87.0674 256.518 86.7037C255.896 86.3401 255.427 85.8768 255.11 85.3138V87.0908H253.509V74.0707H255.11V79.2436ZM261.656 82.2347C261.656 81.5074 261.509 80.874 261.216 80.3344C260.922 79.7949 260.524 79.3843 260.019 79.1028C259.527 78.8213 258.981 78.6805 258.383 78.6805C257.796 78.6805 257.251 78.8272 256.747 79.1204C256.254 79.4019 255.855 79.8183 255.55 80.3696C255.257 80.9092 255.11 81.5367 255.11 82.2523C255.11 82.9795 255.257 83.6188 255.55 84.1701C255.855 84.7097 256.254 85.1261 256.747 85.4193C257.251 85.7008 257.796 85.8416 258.383 85.8416C258.981 85.8416 259.527 85.7008 260.019 85.4193C260.524 85.1261 260.922 84.7097 261.216 84.1701C261.509 83.6188 261.656 82.9736 261.656 82.2347ZM273.95 77.4489V87.0908H272.349V85.6656C272.044 86.1583 271.616 86.5454 271.065 86.8269C270.525 87.0967 269.927 87.2316 269.27 87.2316C268.52 87.2316 267.845 87.0791 267.247 86.7741C266.649 86.4574 266.174 85.9882 265.822 85.3665C265.482 84.7449 265.311 83.9883 265.311 83.0968V77.4489H266.895V82.8857C266.895 83.8358 267.135 84.5689 267.616 85.085C268.097 85.5894 268.754 85.8416 269.587 85.8416C270.443 85.8416 271.118 85.5777 271.61 85.0498C272.103 84.522 272.349 83.7537 272.349 82.7449V77.4489H273.95ZM284.959 77.4489L279.152 91.6303H277.498L279.399 86.9853L275.51 77.4489H277.287L280.314 85.261L283.305 77.4489H284.959ZM296.045 77.273C296.772 77.273 297.429 77.4313 298.015 77.748C298.602 78.053 299.059 78.5163 299.388 79.138C299.728 79.7597 299.898 80.5162 299.898 81.4077V87.0908H298.314V81.6364C298.314 80.6746 298.074 79.9415 297.593 79.4371C297.112 78.921 296.455 78.6629 295.622 78.6629C294.778 78.6629 294.103 78.9269 293.599 79.4547C293.106 79.9825 292.86 80.7508 292.86 81.7596V87.0908H291.259V74.0707H292.86V78.8213C293.177 78.3286 293.611 77.9474 294.162 77.6776C294.725 77.4078 295.353 77.273 296.045 77.273ZM306.719 87.2492C305.815 87.2492 304.994 87.0439 304.255 86.6334C303.528 86.2228 302.953 85.6422 302.531 84.8915C302.12 84.129 301.915 83.2493 301.915 82.2523C301.915 81.267 302.126 80.399 302.549 79.6482C302.983 78.8858 303.569 78.3052 304.308 77.9064C305.047 77.4958 305.874 77.2905 306.789 77.2905C307.704 77.2905 308.531 77.4958 309.27 77.9064C310.009 78.3052 310.589 78.8799 311.012 79.6306C311.446 80.3814 311.663 81.2552 311.663 82.2523C311.663 83.2493 311.44 84.129 310.994 84.8915C310.56 85.6422 309.968 86.2228 309.217 86.6334C308.466 87.0439 307.633 87.2492 306.719 87.2492ZM306.719 85.8416C307.293 85.8416 307.833 85.7067 308.337 85.4369C308.842 85.1671 309.246 84.7624 309.551 84.2229C309.868 83.6833 310.026 83.0264 310.026 82.2523C310.026 81.4781 309.874 80.8212 309.569 80.2817C309.264 79.7421 308.865 79.3433 308.372 79.0852C307.88 78.8154 307.346 78.6805 306.771 78.6805C306.185 78.6805 305.645 78.8154 305.153 79.0852C304.672 79.3433 304.285 79.7421 303.991 80.2817C303.698 80.8212 303.551 81.4781 303.551 82.2523C303.551 83.0382 303.692 83.7009 303.974 84.2405C304.267 84.78 304.654 85.1847 305.135 85.4545C305.616 85.7126 306.144 85.8416 306.719 85.8416ZM317.973 87.2492C317.07 87.2492 316.249 87.0439 315.51 86.6334C314.782 86.2228 314.208 85.6422 313.785 84.8915C313.375 84.129 313.17 83.2493 313.17 82.2523C313.17 81.267 313.381 80.399 313.803 79.6482C314.237 78.8858 314.824 78.3052 315.562 77.9064C316.301 77.4958 317.128 77.2905 318.043 77.2905C318.958 77.2905 319.785 77.4958 320.524 77.9064C321.263 78.3052 321.844 78.8799 322.266 79.6306C322.7 80.3814 322.917 81.2552 322.917 82.2523C322.917 83.2493 322.694 84.129 322.248 84.8915C321.814 85.6422 321.222 86.2228 320.471 86.6334C319.721 87.0439 318.888 87.2492 317.973 87.2492ZM317.973 85.8416C318.548 85.8416 319.087 85.7067 319.592 85.4369C320.096 85.1671 320.501 84.7624 320.806 84.2229C321.122 83.6833 321.281 83.0264 321.281 82.2523C321.281 81.4781 321.128 80.8212 320.823 80.2817C320.518 79.7421 320.12 79.3433 319.627 79.0852C319.134 78.8154 318.601 78.6805 318.026 78.6805C317.439 78.6805 316.9 78.8154 316.407 79.0852C315.926 79.3433 315.539 79.7421 315.246 80.2817C314.953 80.8212 314.806 81.4781 314.806 82.2523C314.806 83.0382 314.947 83.7009 315.228 84.2405C315.521 84.78 315.909 85.1847 316.389 85.4545C316.87 85.7126 317.398 85.8416 317.973 85.8416ZM326.975 78.7685V84.4516C326.975 84.9208 327.075 85.2551 327.274 85.4545C327.474 85.6422 327.82 85.736 328.312 85.736H329.491V87.0908H328.049C327.157 87.0908 326.488 86.8855 326.043 86.475C325.597 86.0645 325.374 85.39 325.374 84.4516V78.7685H324.125V77.4489H325.374V75.0208H326.975V77.4489H329.491V78.7685H326.975ZM333.507 74.8273L333.314 83.6247H331.977L331.783 74.8273H333.507ZM332.716 87.1964C332.411 87.1964 332.153 87.0908 331.942 86.8797C331.73 86.6685 331.625 86.4105 331.625 86.1055C331.625 85.8005 331.73 85.5425 331.942 85.3313C332.153 85.1202 332.411 85.0146 332.716 85.0146C333.009 85.0146 333.255 85.1202 333.455 85.3313C333.666 85.5425 333.771 85.8005 333.771 86.1055C333.771 86.4105 333.666 86.6685 333.455 86.8797C333.255 87.0908 333.009 87.1964 332.716 87.1964Z" fill="white"/>
</svg>
